<?xml version="1.0" encoding="UTF-8" standalone="no"?>
<!-- Created with Inkscape (http://www.inkscape.org/) -->

<svg
   width="29.29076mm"
   height="23.484423mm"
   viewBox="0 0 29.290759 23.484422"
   version="1.1"
   id="svg135086"
   inkscape:version="1.1.1 (1:1.1+202109281949+c3084ef5ed)"
   sodipodi:docname="flickrwhite.svg"
   xmlns:inkscape="http://www.inkscape.org/namespaces/inkscape"
   xmlns:sodipodi="http://sodipodi.sourceforge.net/DTD/sodipodi-0.dtd"
   xmlns="http://www.w3.org/2000/svg"
   xmlns:svg="http://www.w3.org/2000/svg">
  <sodipodi:namedview
     id="namedview135088"
     pagecolor="#ffffff"
     bordercolor="#666666"
     borderopacity="1.0"
     inkscape:pageshadow="2"
     inkscape:pageopacity="0.0"
     inkscape:pagecheckerboard="0"
     inkscape:document-units="mm"
     showgrid="false"
     inkscape:zoom="0.68684764"
     inkscape:cx="-124.48176"
     inkscape:cy="100.45896"
     inkscape:window-width="1920"
     inkscape:window-height="1043"
     inkscape:window-x="0"
     inkscape:window-y="0"
     inkscape:window-maximized="1"
     inkscape:current-layer="layer1" />
  <defs
     id="defs135083" />
  <g
     inkscape:label="Layer 1"
     inkscape:groupmode="layer"
     id="layer1"
     transform="translate(-170.85694,-120.38619)">
    <g
       id="g79977"
       transform="matrix(1.1628729,0,0,1.1628729,554.33978,-276.42642)"
       style="fill:#000000">
      <path
         style="fill:#000000;fill-opacity:1;stroke-width:0.0253074"
         d="m -316.56313,361.42282 c -1.07011,-0.13635 -1.8162,-0.60542 -2.22909,-1.40142 -0.0469,-0.0905 -0.0913,-0.17019 -0.0986,-0.17716 -0.007,-0.007 -0.0159,-0.0297 -0.0193,-0.0506 -0.003,-0.0209 -0.0357,-0.14615 -0.0721,-0.27838 -0.0812,-0.29519 -0.11135,-0.88139 -0.0625,-1.21559 0.059,-0.40332 0.24691,-0.8671 0.47138,-1.1633 0.21332,-0.28146 0.55468,-0.5616 0.89099,-0.73117 0.17314,-0.0873 0.54792,-0.21827 0.68893,-0.24077 0.0487,-0.008 0.11705,-0.0201 0.15185,-0.0274 0.32387,-0.068 0.8756,-0.0677 1.29067,5.8e-4 0.25217,0.0416 0.70894,0.20716 0.70837,0.25674 -1.4e-4,0.0113 -0.0285,0.30527 -0.0632,0.65325 -0.0346,0.34798 -0.063,0.63661 -0.063,0.64142 -5e-5,0.005 -0.0498,-0.0204 -0.11045,-0.0559 -0.44798,-0.26254 -1.18379,-0.29181 -1.58375,-0.063 -0.27984,0.16009 -0.50004,0.47248 -0.58611,0.83145 -0.0507,0.21152 -0.0398,0.61314 0.0219,0.80347 0.13653,0.42146 0.50467,0.7497 0.9613,0.85712 0.12832,0.0302 0.24954,0.037 0.48717,0.0273 0.32502,-0.0132 0.50371,-0.0496 0.76909,-0.15685 0.0837,-0.0338 0.15546,-0.0582 0.15948,-0.0541 0.004,0.004 0.016,0.30086 0.0265,0.65963 0.0171,0.57976 0.0148,0.65469 -0.0205,0.67357 -0.0663,0.0354 -0.42717,0.12455 -0.66886,0.16517 -0.22834,0.0384 -0.88415,0.067 -1.05025,0.0458 z"
         id="path846"
         inkscape:connector-curvature="0" />
      <path
         style="fill:#000000;fill-opacity:1;stroke-width:0.0253074"
         d="m -328.71066,359.38904 v -1.92369 h -0.49349 -0.49349 v -0.63268 -0.63269 h 0.50615 0.50614 l 0.005,-0.27205 c 0.007,-0.45978 0.025,-0.61797 0.099,-0.89095 0.22697,-0.8375 0.95401,-1.24423 2.11099,-1.18097 0.29048,0.0159 0.68523,0.0725 0.71529,0.10252 0.0144,0.0144 -0.0612,1.02879 -0.0866,1.16186 -0.0113,0.0593 -0.0232,0.0691 -0.0681,0.0562 -0.0299,-0.009 -0.154,-0.0286 -0.27572,-0.0443 -0.37678,-0.0487 -0.58629,0.0305 -0.69961,0.26478 -0.0669,0.13833 -0.0851,0.25492 -0.0858,0.54985 l -5.7e-4,0.24042 0.59857,0.007 0.59858,0.007 v 0.63222 0.63223 h -0.60105 -0.60105 v 1.91703 1.91703 l -0.86677,0.007 -0.86678,0.007 v -1.92369 z"
         id="path844"
         inkscape:connector-curvature="0" />
      <path
         style="fill:#000000;fill-opacity:1;stroke-width:0.0253074"
         d="m -324.91455,357.6425 v -3.66957 h 0.84762 0.84763 l 0.006,3.66957 0.007,3.66957 h -0.85413 -0.85412 z"
         id="path842"
         inkscape:connector-curvature="0" />
      <path
         style="fill:#000000;fill-opacity:1;stroke-width:0.0253074"
         d="m -321.77644,358.75603 v -2.55605 h 0.86045 0.86045 v 2.55605 2.55604 h -0.86045 -0.86045 z"
         id="path840"
         inkscape:connector-curvature="0" />
      <path
         style="fill:#000000;fill-opacity:1;stroke-width:0.0253074"
         d="m -314.13362,357.6425 v -3.66957 h 0.86045 0.86045 v 2.1802 2.1802 l 0.33291,-0.50358 c 0.1831,-0.27698 0.44027,-0.66872 0.5715,-0.87055 0.13123,-0.20182 0.26722,-0.40681 0.30221,-0.45553 0.035,-0.0487 0.0938,-0.13697 0.1306,-0.19613 l 0.067,-0.10756 h 0.94288 c 0.51859,0 0.94289,0.005 0.94289,0.0116 0,0.006 -0.14235,0.20569 -0.31634,0.44296 -0.17399,0.23728 -0.31634,0.44275 -0.31634,0.45662 0,0.0139 -0.009,0.0252 -0.02,0.0252 -0.0111,0 -0.0822,0.0866 -0.15818,0.19254 -0.076,0.10589 -0.26961,0.37067 -0.43031,0.58839 -0.1607,0.21773 -0.32964,0.4486 -0.37541,0.51305 l -0.0832,0.1172 0.59265,0.88875 c 0.32596,0.48882 0.59833,0.88307 0.60528,0.87612 0.007,-0.007 0.0132,0.002 0.0138,0.019 5.8e-4,0.0174 0.13922,0.23623 0.30791,0.48629 0.16869,0.25006 0.30671,0.46359 0.30671,0.47451 0,0.0109 -0.46705,0.0199 -1.03788,0.0199 h -1.03787 l -0.0676,-0.13784 c -0.0372,-0.0758 -0.0787,-0.13099 -0.0922,-0.12262 -0.0137,0.009 -0.0165,0.002 -0.006,-0.0144 0.0101,-0.0163 -0.004,-0.0665 -0.0314,-0.11147 -0.0273,-0.045 -0.18383,-0.33233 -0.34775,-0.63855 -0.16392,-0.30622 -0.3417,-0.63648 -0.39506,-0.73391 -0.0533,-0.0974 -0.16245,-0.30173 -0.24243,-0.45399 l -0.1454,-0.27682 -0.007,1.24483 -0.007,1.24484 h -0.86021 -0.86021 z"
         id="path838"
         inkscape:connector-curvature="0" />
      <path
         style="fill:#000000;fill-opacity:1;stroke-width:0.0253074"
         d="m -308.38885,358.75603 v -2.55605 l 0.79086,1e-5 h 0.79085 l -0.005,0.46086 -0.005,0.46086 0.0809,-0.15085 c 0.19622,-0.36606 0.41929,-0.59767 0.70743,-0.7345 0.19423,-0.0922 0.22246,-0.1012 0.44808,-0.14223 0.15506,-0.0282 0.42489,-0.0141 0.74642,0.039 0.0632,0.0104 0.0661,0.0664 0.0318,0.61094 -0.0264,0.41909 -0.0309,0.50536 -0.0393,0.7556 -0.004,0.12426 -0.0116,0.14572 -0.0455,0.13271 -0.12796,-0.0491 -0.57628,-0.0691 -0.78205,-0.0348 -0.36522,0.0608 -0.6481,0.28289 -0.80973,0.63576 -0.16724,0.36513 -0.17087,0.40097 -0.18299,1.80703 l -0.011,1.2717 h -0.85842 -0.85842 z"
         id="path836"
         inkscape:connector-curvature="0" />
      <path
         style="fill:#000000;fill-opacity:1;stroke-width:0.0253074"
         d="m -321.77644,354.74481 v -0.67132 l 0.85412,0.007 0.85413,0.007 v 0.65799 0.65799 l -0.85413,0.007 -0.85412,0.007 z"
         id="path834"
         inkscape:connector-curvature="0" />
      <path
         style="fill:#000000;fill-opacity:1;stroke-width:0.0253074"
         d="m -324.11737,353.34849 c -0.0696,-0.005 -0.2575,-0.0259 -0.41757,-0.0478 -1.45073,-0.19879 -2.74211,-0.88919 -3.72068,-1.98915 -0.0949,-0.10668 -0.17632,-0.1921 -0.18093,-0.18981 -0.005,0.002 -0.006,-1.5e-4 -0.003,-0.005 0.003,-0.005 -0.0439,-0.0736 -0.10407,-0.15184 -0.57873,-0.75278 -0.97982,-1.67783 -1.15491,-2.66363 -0.0698,-0.3929 -0.0963,-1.24978 -0.0509,-1.64488 0.10358,-0.90128 0.39505,-1.76861 0.837,-2.49068 0.056,-0.0915 0.0941,-0.17882 0.0846,-0.1941 -0.01,-0.0156 -0.006,-0.0206 0.009,-0.0114 0.0281,0.0174 0.11635,-0.0988 0.11635,-0.15326 0,-0.0178 0.005,-0.0275 0.0109,-0.0215 0.006,0.006 0.10264,-0.10505 0.21478,-0.24675 0.41756,-0.52763 1.00863,-1.0542 1.58506,-1.4121 0.12595,-0.0782 0.22084,-0.1512 0.21089,-0.16223 -0.01,-0.011 -0.005,-0.0123 0.0118,-0.003 0.0165,0.009 0.15312,-0.0444 0.30369,-0.11948 1.24125,-0.61949 2.77379,-0.77454 4.15926,-0.4208 0.78758,0.20109 1.62321,0.6198 2.26151,1.13319 0.12381,0.0996 0.23769,0.17387 0.25308,0.1651 0.0154,-0.009 0.0194,-0.006 0.009,0.005 -0.0105,0.0116 0.12136,0.16428 0.29301,0.33938 0.17164,0.1751 0.33236,0.34959 0.35715,0.38774 0.025,0.0384 0.058,0.062 0.074,0.0529 0.0159,-0.009 0.0206,-0.007 0.0104,0.004 -0.0101,0.0112 0.0167,0.0671 0.0598,0.12427 0.46336,0.61503 0.84916,1.40826 1.03223,2.12236 0.30765,1.20003 0.25439,2.42626 -0.15555,3.58142 -0.13576,0.38255 -0.42779,0.96758 -0.64079,1.28368 -0.0938,0.1392 -0.17081,0.26668 -0.17115,0.2833 -3.6e-4,0.0166 -0.008,0.028 -0.017,0.0253 -0.009,-0.003 -0.10304,0.0991 -0.20898,0.22619 -0.3851,0.46204 -0.84348,0.87363 -1.34794,1.21033 -0.2947,0.19669 -0.90347,0.50234 -1.26356,0.6344 -0.74426,0.27295 -1.64119,0.40046 -2.45663,0.34925 z"
         id="path832"
         inkscape:connector-curvature="0" />
      <path
         style="fill:#000000;fill-opacity:1;stroke-width:0.0253074"
         d="m -311.1263,353.34009 c -0.77826,-0.0703 -1.49828,-0.27043 -2.18483,-0.6074 -1.3369,-0.6562 -2.4151,-1.81866 -2.9574,-3.18854 -0.91901,-2.32149 -0.34668,-4.92837 1.45895,-6.64522 0.71102,-0.67607 1.55349,-1.15783 2.51106,-1.43593 0.82975,-0.24098 1.80309,-0.29215 2.69461,-0.14164 1.04786,0.1769 2.08575,0.66658 2.90814,1.37207 0.0752,0.0645 0.1481,0.11017 0.16207,0.10154 0.014,-0.009 0.0188,-0.005 0.0105,0.008 -0.008,0.0132 0.0556,0.0934 0.14161,0.17819 0.89007,0.87686 1.50648,2.05644 1.71038,3.27301 0.28071,1.67485 -0.11878,3.33834 -1.12337,4.67776 -0.24668,0.3289 -0.70782,0.809 -1.00603,1.04741 -0.12164,0.0973 -0.21384,0.18869 -0.20487,0.20319 0.009,0.0145 0.005,0.0193 -0.009,0.0108 -0.0139,-0.009 -0.15518,0.0702 -0.31392,0.17508 -0.52631,0.34777 -1.21097,0.648 -1.84082,0.80722 -0.57353,0.14499 -1.40088,0.21439 -1.95713,0.16418 z"
         id="path828"
         inkscape:connector-curvature="0" />
    </g>
  </g>
</svg>
