<?xml version="1.0" encoding="UTF-8" standalone="no"?>
<!-- Created with Inkscape (http://www.inkscape.org/) -->

<svg
   width="25.12361mm"
   height="24.503185mm"
   viewBox="0 0 25.123609 24.503185"
   version="1.1"
   id="svg134958"
   inkscape:version="1.1.1 (1:1.1+202109281949+c3084ef5ed)"
   sodipodi:docname="githubwhite.svg"
   xmlns:inkscape="http://www.inkscape.org/namespaces/inkscape"
   xmlns:sodipodi="http://sodipodi.sourceforge.net/DTD/sodipodi-0.dtd"
   xmlns="http://www.w3.org/2000/svg"
   xmlns:svg="http://www.w3.org/2000/svg">
  <sodipodi:namedview
     id="namedview134960"
     pagecolor="#ffffff"
     bordercolor="#666666"
     borderopacity="1.0"
     inkscape:pageshadow="2"
     inkscape:pageopacity="0.0"
     inkscape:pagecheckerboard="0"
     inkscape:document-units="mm"
     showgrid="false"
     inkscape:zoom="0.68684764"
     inkscape:cx="26.934649"
     inkscape:cy="107.7386"
     inkscape:window-width="1920"
     inkscape:window-height="1043"
     inkscape:window-x="0"
     inkscape:window-y="0"
     inkscape:window-maximized="1"
     inkscape:current-layer="layer1" />
  <defs
     id="defs134955" />
  <g
     inkscape:label="Layer 1"
     inkscape:groupmode="layer"
     id="layer1"
     transform="translate(-4.40094,-116.7951)">
    <path
       inkscape:connector-curvature="0"
       style="fill:#000000;fill-opacity:1;fill-rule:evenodd;stroke:none;stroke-width:0.208017"
       d="m 16.96272,116.7951 c -6.93675,0 -12.56178,5.62379 -12.56178,12.56178 0,5.5499 3.59929,10.25844 8.59045,11.91945 0.6278,0.11633 0.85838,-0.27246 0.85838,-0.60425 0,-0.29933 -0.0121,-1.28901 -0.017,-2.33867 -3.49469,0.7599 -4.23215,-1.48212 -4.23215,-1.48212 -0.57142,-1.45175 -1.39467,-1.83803 -1.39467,-1.83803 -1.13973,-0.77964 0.0859,-0.76361 0.0859,-0.76361 1.26142,0.0886 1.92547,1.29473 1.92547,1.29473 1.12038,1.92021 2.93881,1.36492 3.65564,1.04395 0.11293,-0.81168 0.43818,-1.36589 0.79743,-1.67958 -2.79013,-0.31744 -5.72312,-1.3949 -5.72312,-6.20821 0,-1.37126 0.49055,-2.49195 1.29412,-3.37165 -0.13042,-0.31639 -0.5604,-1.59414 0.12189,-3.32442 0,0 1.05483,-0.33721 3.45514,1.28802 1.00201,-0.27832 2.07678,-0.41794 3.14433,-0.42294 1.06754,0.005 2.14288,0.14462 3.14677,0.42294 2.39761,-1.62523 3.45117,-1.28802 3.45117,-1.28802 0.68376,1.73028 0.25384,3.00803 0.12341,3.32442 0.80544,0.8797 1.29259,2.00039 1.29259,3.37165 0,4.82495 -2.9387,5.88717 -5.73591,6.19816 0.45057,0.38982 0.85197,1.1542 0.85197,2.32617 0,1.68078 -0.0143,3.03346 -0.0143,3.44721 0,0.33449 0.2259,0.72617 0.86265,0.60302 4.98867,-1.66288 8.58345,-6.36997 8.58345,-11.91822 0,-6.93799 -5.6242,-12.56178 -12.56178,-12.56178 z m -7.98408,17.82539 c -0.0673,-0.01 -0.12751,0.0121 -0.14779,0.06 -0.0295,0.0626 0.0214,0.14773 0.11269,0.18891 0.0895,0.0429 0.18745,0.024 0.21512,-0.0387 0.0315,-0.0626 -0.0204,-0.14824 -0.11147,-0.18923 -0.0227,-0.0109 -0.0461,-0.0176 -0.0686,-0.021 z m 0.45036,0.43209 c -0.0207,0.004 -0.0391,0.0129 -0.0546,0.0269 -0.0608,0.0562 -0.0456,0.17356 0.0368,0.26113 0.0793,0.0878 0.19635,0.11341 0.25626,0.0579 0.0626,-0.0564 0.0467,-0.17252 -0.0357,-0.26113 -0.0616,-0.0656 -0.14108,-0.0968 -0.20295,-0.0847 z m 0.52076,0.63989 c -0.0238,0.001 -0.0463,0.009 -0.0658,0.0216 -0.0789,0.0536 -0.0788,0.18762 -10e-4,0.29953 0.0778,0.11171 0.20397,0.16184 0.28094,0.10818 0.0786,-0.0547 0.0786,-0.18869 10e-4,-0.30227 -0.0591,-0.083 -0.14368,-0.13089 -0.21512,-0.12707 z m 0.60241,0.71395 c -0.0418,0.001 -0.0789,0.0169 -0.10514,0.0455 -0.0688,0.076 -0.0382,0.21976 0.0716,0.32085 0.10734,0.10381 0.25383,0.12409 0.32269,0.0481 0.0732,-0.0751 0.0401,-0.21977 -0.0688,-0.32087 -0.0676,-0.0642 -0.15054,-0.0969 -0.22031,-0.0936 z m 0.91445,0.54603 c -0.10175,-0.001 -0.18719,0.0436 -0.20935,0.11792 -0.0287,0.0994 0.0642,0.21442 0.2063,0.25748 0.14228,0.0418 0.28328,-0.002 0.31385,-0.10114 0.0295,-0.10004 -0.0635,-0.21433 -0.20537,-0.25718 -0.0359,-0.0109 -0.0715,-0.0167 -0.1054,-0.017 z m 2.10221,0.0451 c -0.0337,-0.004 -0.0698,-0.002 -0.10697,0.004 -0.14581,0.0269 -0.2512,0.13072 -0.2331,0.23431 0.0185,0.10005 0.1534,0.16244 0.29923,0.13561 0.14831,-0.0277 0.2522,-0.1313 0.23432,-0.2322 -0.0142,-0.0771 -0.0925,-0.13067 -0.19349,-0.14168 z m -1.03512,0.12095 c -0.14997,0.002 -0.26814,0.0876 -0.26814,0.19227 10e-4,0.10199 0.12344,0.18585 0.27364,0.18253 0.14935,-0.001 0.26985,-0.0878 0.26631,-0.19137 0,-0.10271 -0.12245,-0.18635 -0.27181,-0.18343 z"
       id="path28" />
  </g>
</svg>
