<?xml version="1.0" encoding="UTF-8" standalone="no"?>
<svg
   width="94.4897"
   height="94.48819"
   enable-background="new 0 0 800 800"
   version="1.0"
   viewBox="0 0 94.4897 94.488192"
   xml:space="preserve"
   id="svg693"
   sodipodi:docname="hp.svg"
   inkscape:version="1.2.1 (9c6d41e410, 2022-07-14)"
   xmlns:inkscape="http://www.inkscape.org/namespaces/inkscape"
   xmlns:sodipodi="http://sodipodi.sourceforge.net/DTD/sodipodi-0.dtd"
   xmlns="http://www.w3.org/2000/svg"
   xmlns:svg="http://www.w3.org/2000/svg"><defs
   id="defs697" /><sodipodi:namedview
   id="namedview695"
   pagecolor="#ffffff"
   bordercolor="#000000"
   borderopacity="0.25"
   inkscape:showpageshadow="2"
   inkscape:pageopacity="0.0"
   inkscape:pagecheckerboard="0"
   inkscape:deskcolor="#d1d1d1"
   showgrid="false"
   inkscape:zoom="0.30512268"
   inkscape:cx="1668.1815"
   inkscape:cy="-13.109481"
   inkscape:window-width="1920"
   inkscape:window-height="1017"
   inkscape:window-x="-8"
   inkscape:window-y="-8"
   inkscape:window-maximized="1"
   inkscape:current-layer="svg693" />

<g
   transform="matrix(0.09449008,0,0,0.09449008,-19.232322,-20.097785)"
   id="g691"
   style="fill:#000000"><path
     d="m 704.93,212.7 -107.58,301.62 73.131,0.0229 c 52.68,0.0153 75.098,41.551 58.509,88.066 l -106.97,299.91 H 514.38 l 117.69,-330 h -55.422 l -117.68,330 h -108.57 l 241.48,-677.11 c -222.38,50.731 -388.34,249.71 -388.34,487.46 0,234.05 160.82,430.51 377.98,484.98 l 243.97,-685.01 h 176.69 c 36.545,0 82.508,24.641 62.646,80.724 l -99.203,280.11 c -12.672,35.78 -42.793,43.031 -66.789,43.031 h -108.62 l -105.35,295.79 c 6.2031,0.2273 12.418,0.3834 18.672,0.3834 276.14,0 500,-223.85 500,-500 -7e-4,-275.68 -223.11,-499.23 -498.62,-499.98 z M 913.08,571.51 810.61,859.15 h 54.567 l 102.49,-287.64 z"
     fill="#015294"
     id="path689"
     style="fill:#000000" /></g></svg>
