<?xml version="1.0" encoding="UTF-8" standalone="no"?>
<!-- Created with Inkscape (http://www.inkscape.org/) -->

<svg
   width="92.454117mm"
   height="92.417793mm"
   viewBox="0 0 92.454117 92.417793"
   version="1.1"
   id="svg1174"
   inkscape:version="1.1.1 (1:1.1+202109281949+c3084ef5ed)"
   sodipodi:docname="north.svg"
   xmlns:inkscape="http://www.inkscape.org/namespaces/inkscape"
   xmlns:sodipodi="http://sodipodi.sourceforge.net/DTD/sodipodi-0.dtd"
   xmlns="http://www.w3.org/2000/svg"
   xmlns:svg="http://www.w3.org/2000/svg">
  <sodipodi:namedview
     id="namedview1176"
     pagecolor="#ffffff"
     bordercolor="#666666"
     borderopacity="1.0"
     inkscape:pageshadow="2"
     inkscape:pageopacity="0.0"
     inkscape:pagecheckerboard="0"
     inkscape:document-units="mm"
     showgrid="false"
     inkscape:zoom="0.68684764"
     inkscape:cx="50.22948"
     inkscape:cy="36.398174"
     inkscape:window-width="1920"
     inkscape:window-height="1043"
     inkscape:window-x="0"
     inkscape:window-y="0"
     inkscape:window-maximized="1"
     inkscape:current-layer="layer1" />
  <defs
     id="defs1171" />
  <g
     inkscape:label="Layer 1"
     inkscape:groupmode="layer"
     id="layer1"
     transform="translate(-91.679557,-138.69383)">
    <path
       style="fill:#000000;stroke-width:0.264583"
       d="m 134.12149,230.84578 c -7.12821,-0.54896 -14.65511,-2.94933 -20.06774,-6.39971 -4.16885,-2.65752 -9.51867,-7.5779 -12.23045,-11.2487 -5.83364,-7.89671 -9.31983,-16.69922 -9.87041,-24.92244 -0.0926,-1.38244 -0.20079,-2.89432 -0.24052,-3.35973 -0.25348,-2.96936 0.99513,-10.09352 2.58762,-14.76423 2.26088,-6.63101 4.10554,-9.92688 8.4408,-15.08125 3.90751,-4.64579 9.81374,-9.35608 14.55152,-11.60503 9.19803,-4.36615 20.41506,-5.85293 29.96665,-3.97197 13.8688,2.73112 27.31729,13.44778 32.91426,26.2283 7.45663,17.02699 4.26609,35.87546 -8.57615,50.66458 -5.96322,6.86725 -14.82169,11.87102 -24.28629,13.71829 -2.16348,0.42227 -9.19723,1.11404 -10.10599,0.99393 -0.14552,-0.0192 -1.533,-0.13265 -3.0833,-0.25204 z m 2.42184,-3.52316 c 0,-0.0609 0.0723,-0.29899 0.1606,-0.52917 0.13576,-0.35378 -0.092,-0.41851 -1.4726,-0.41851 -0.89826,0 -1.89327,0.14388 -2.21112,0.31975 -0.56662,0.3135 -0.5624,0.32324 0.21583,0.49786 0.9036,0.20276 3.30729,0.29729 3.30729,0.13007 z m 5.97332,-0.16433 c 8.17444,-0.77773 15.37514,-3.70701 21.99552,-8.94789 1.05539,-0.83548 1.44836,-1.35155 1.6777,-2.20326 0.63337,-2.35216 -0.40378,-5.66132 -2.37346,-7.57283 -0.5946,-0.57704 -2.31799,-1.66536 -3.82977,-2.4185 -3.13478,-1.56169 -4.71035,-2.79408 -5.46614,-4.27556 -0.50434,-0.98859 -0.57827,-1.0299 -1.84296,-1.0299 -1.24235,0 -1.31754,0.0392 -1.31754,0.68762 0,2.0809 1.98374,4.19044 6.29606,6.69532 3.60777,2.09564 4.59999,3.44491 4.04327,5.49828 -0.27803,1.02548 -1.39576,2.46462 -1.91419,2.46462 -0.1922,0 -0.22626,-0.5457 -0.10483,-1.67959 0.16774,-1.56636 0.13202,-1.73643 -0.52986,-2.52304 -0.90216,-1.07215 -1.57312,-1.41156 -5.36248,-2.71266 -4.42455,-1.51919 -6.72923,-3.21407 -8.09817,-5.95543 -0.37389,-0.74874 -0.6798,-1.48702 -0.6798,-1.64063 0,-1.1451 -0.69536,-3.12202 -1.36733,-3.88735 -0.59758,-0.68061 -0.82154,-1.24499 -0.93666,-2.3604 -0.10282,-0.99624 -0.0563,-1.46591 0.14527,-1.46591 0.29598,0 0.40359,0.33371 0.69527,2.15623 0.13528,0.84528 0.7921,1.81204 1.03236,1.5195 0.0469,-0.0571 0.67829,-1.35401 1.40307,-2.88198 1.06067,-2.23607 1.64654,-3.10316 3.00269,-4.44399 1.87907,-1.85785 3.88773,-3.17586 6.10338,-4.00484 1.11048,-0.41548 1.6386,-0.79988 2.1191,-1.54239 0.35199,-0.54394 0.75797,-0.92945 0.90215,-0.85669 0.14419,0.0728 0.24232,0.19182 0.21806,0.26458 -0.27045,0.81135 -0.18015,0.92407 0.70556,0.88076 1.2914,-0.0631 3.99837,-0.91467 4.1481,-1.30486 0.0683,-0.17799 -0.35217,-1.19717 -0.93438,-2.26486 -0.58221,-1.06769 -1.37754,-2.74492 -1.7674,-3.72719 -0.38986,-0.98226 -0.86516,-1.78593 -1.05621,-1.78593 -0.79457,0 -3.78752,0.8911 -4.97591,1.4815 -1.73944,0.86415 -1.98133,0.82261 -2.07896,-0.35702 -0.0931,-1.12507 -0.0247,-1.1117 -3.5217,-0.68762 l -1.85208,0.22459 -0.0293,3.57188 c -0.049,5.97164 -1.22518,8.97345 -5.13198,13.09806 -1.89973,2.00564 -2.38697,2.95375 -2.43386,4.73602 -0.0314,1.19392 0.10257,1.64132 0.83187,2.77784 0.66296,1.03312 0.83955,1.55755 0.74391,2.20918 -0.0902,0.6148 0.10555,1.30039 0.69803,2.44429 0.71269,1.376 0.8278,1.88318 0.85589,3.77106 0.0197,1.32319 0.16398,2.33974 0.36681,2.58413 0.24828,0.29917 0.27698,0.86152 0.11146,2.18439 -0.12259,0.97982 -0.19271,2.59189 -0.15582,3.58238 0.0656,1.76223 0.0407,1.83788 -1.16245,3.52392 -0.67624,0.94767 -1.3417,2.1293 -1.47881,2.62584 -0.14699,0.53236 -0.62992,1.19314 -1.17694,1.61038 -1.02709,0.7834 -1.54063,1.5577 -1.29582,1.95381 0.20368,0.32956 1.18283,0.32631 4.77931,-0.0159 z m -10.58795,-0.9197 c 0.48418,-0.37798 0.46814,-0.39109 -0.28016,-0.22888 -1.22448,0.26542 -1.73199,0.612 -0.91046,0.62176 0.37236,0.004 0.90815,-0.17237 1.19062,-0.39288 z m -1.0789,-1.04025 c 4.02999,-1.97169 6.72336,-6.97919 6.41151,-11.92028 -0.1686,-2.67145 -0.90318,-4.63379 -2.74978,-7.3457 -0.78937,-1.15927 -1.3749,-2.16809 -1.30116,-2.24182 0.23867,-0.23867 2.45092,1.21128 2.90465,1.90376 0.24228,0.36977 0.55683,0.6723 0.699,0.6723 0.50261,0 0.24834,-1.35809 -0.5506,-2.94078 -0.56592,-1.12108 -0.8121,-1.9935 -0.81914,-2.90287 -0.006,-0.71506 -0.10385,-1.3001 -0.21847,-1.3001 -0.41558,0 -2.11265,2.12166 -2.26973,2.8376 -0.32715,1.49102 -0.33365,1.49504 -1.2678,0.78253 -6.38432,-4.86956 -8.63369,-5.68511 -13.49088,-4.89133 -4.15772,0.67947 -7.09688,2.41909 -11.82609,6.9996 -1.38769,1.34405 -2.84621,2.56658 -3.24115,2.71674 -0.39494,0.15016 -0.71808,0.44316 -0.71808,0.65112 0,0.53381 3.52692,4.70628 5.85103,6.92197 5.48578,5.22986 10.5542,8.47057 15.95105,10.19896 2.87534,0.92086 4.53636,0.88539 6.63564,-0.1417 z m 8.55323,-2.17682 c 0.0545,-0.38051 -0.0928,-0.62521 -0.44302,-0.73638 -0.28852,-0.0916 -0.95031,-0.4554 -1.47063,-0.8085 l -0.94605,-0.64201 v 0.62608 c 0,0.74313 1.6868,2.33857 2.34078,2.214 0.24054,-0.0458 0.47405,-0.33975 0.51892,-0.65319 z m 1.63822,-3.11718 c 0,-0.68339 -0.89148,-1.60126 -1.30625,-1.34492 -0.39116,0.24175 -0.35328,2.34597 0.0495,2.74879 0.2646,0.26464 0.42331,0.21645 0.79375,-0.24098 0.25466,-0.31446 0.46302,-0.83776 0.46302,-1.16289 z m -2.38957,-0.77075 c 0.33811,-1.40942 0.25945,-2.28365 -0.20549,-2.28365 -0.63439,0 -1.33826,2.97695 -0.84453,3.57186 0.47029,0.56666 0.66124,0.33239 1.05002,-1.28821 z m 1.92708,-6.98001 c 0.65035,-0.72865 1.063,-2.68807 0.87096,-4.13571 -0.14494,-1.09263 -0.68917,-2.59154 -1.11081,-3.05937 -0.0582,-0.0646 -0.86371,0.63361 -1.78994,1.55162 l -1.68407,1.66909 0.67348,1.49109 c 1.29134,2.85907 2.10893,3.52685 3.04038,2.48328 z m 20.19531,-0.26342 c -0.25783,-0.81236 -1.72205,-2.15076 -2.94457,-2.69154 -1.55072,-0.68596 -4.13695,-2.47137 -5.27039,-3.63844 -0.51487,-0.53015 -1.24728,-1.59988 -1.62758,-2.37718 -0.63296,-1.29372 -0.68265,-1.63228 -0.58746,-4.0023 0.0864,-2.1521 0.22613,-2.83869 0.82776,-4.06837 1.62946,-3.33049 5.37059,-5.58894 11.11356,-6.70904 1.09084,-0.21276 1.1326,-0.76431 0.15043,-1.9865 -0.72646,-0.90398 -0.99131,-1.06417 -1.54455,-0.93418 -0.36725,0.0863 -1.3821,0.25857 -2.25523,0.38284 -0.94296,0.13421 -2.64507,0.72036 -4.1923,1.44369 -2.07927,0.97205 -2.93338,1.55294 -4.23334,2.87916 -1.58534,1.61737 -3.16943,4.20734 -4.03908,6.60387 -0.95235,2.62439 -0.1316,5.68923 2.1875,8.16854 1.47551,1.57744 2.07954,1.91387 6.17618,3.44003 3.64984,1.35971 4.88266,2.08875 5.60639,3.31538 0.56394,0.95581 0.91112,1.05131 0.63268,0.17404 z m 13.07348,-4.50248 c 2.79524,-4.19206 5.1113,-10.14417 6.04718,-15.54087 0.2776,-1.60073 0.5152,-3.14854 0.52801,-3.43958 0.0924,-2.09894 0.0239,-8.58404 -0.0989,-9.36234 -0.88987,-5.64076 -1.77476,-8.40648 -4.24237,-13.25954 -2.60006,-5.11357 -4.07885,-7.17833 -7.76932,-10.84792 -7.32721,-7.28576 -15.04787,-11.20246 -24.54401,-12.4512 -2.82832,-0.37193 -11.25021,-0.20362 -13.7071,0.27392 -0.87312,0.16971 -3.31391,0.84897 -5.42396,1.50947 -9.47509,2.96594 -14.86208,7.40108 -16.10641,13.26052 -0.42637,2.00775 -0.3672,6.35014 0.11895,8.72938 0.50908,2.49145 2.30811,6.38931 3.90944,8.47035 1.81519,2.35898 5.16986,5.37859 6.93671,6.24389 1.63635,0.80138 6.21824,2.34369 6.40572,2.15622 0.0593,-0.0593 -0.7855,-0.52065 -1.8774,-1.02513 -4.19649,-1.9389 -7.6508,-4.64781 -9.84496,-7.72054 -2.13038,-2.9834 -3.0358,-5.75577 -3.0358,-9.29549 0,-2.20991 0.26479,-2.41675 1.19063,-0.93004 0.29104,0.46735 0.76976,1.2295 1.06381,1.69367 0.90097,1.42216 3.44369,3.0206 6.20171,3.89859 1.37666,0.43824 2.59705,0.79681 2.71198,0.79681 0.45859,0 0.16036,-0.78129 -0.75665,-1.98227 -2.13061,-2.79037 -4.85523,-8.1595 -4.85523,-9.56769 v -0.68245 l 1.01746,0.91921 c 1.97612,1.78531 5.62843,3.96176 6.00922,3.58096 0.0718,-0.0718 0.31217,-1.17105 0.53415,-2.44278 0.50481,-2.89214 1.95327,-7.35277 3.17986,-9.79261 1.49945,-2.98257 1.33028,-2.86345 3.38842,-2.38613 3.93285,0.91209 8.7954,3.00075 12.46152,5.35272 4.03002,2.58542 9.13397,7.21465 12.76428,11.57708 1.08989,1.30969 2.38831,2.58112 2.88536,2.82541 1.2805,0.62932 1.97087,1.52419 1.86062,2.41176 -0.11719,0.94347 0.15006,1.09801 1.06895,0.6181 1.04769,-0.54718 2.04668,-1.67112 2.94431,-3.31257 0.7197,-1.31607 0.7995,-1.38133 1.07031,-0.87531 0.3916,0.73172 0.35126,2.86594 -0.0768,4.06448 -0.54124,1.51533 -1.47573,2.50162 -3.26757,3.44874 -0.96257,0.50879 -1.65308,1.04865 -1.65365,1.29288 -0.002,0.91793 1.16569,3.88888 2.27064,5.77647 0.64238,1.09737 1.16797,2.15208 1.16797,2.34379 0,0.19172 -0.35644,0.55139 -0.79208,0.79929 -0.43564,0.24789 -0.79283,0.53363 -0.79375,0.63497 -0.002,0.22603 1.67646,3.16599 2.5601,4.4841 0.48759,0.72732 0.62606,1.24145 0.56366,2.09278 l -0.0827,1.12858 -1.4552,0.0239 -1.45521,0.0239 -0.0812,0.97627 c -0.0852,1.02479 0.43916,2.3279 1.32852,3.30155 0.39458,0.43199 0.48015,0.77328 0.34647,1.38191 -0.21306,0.97009 -1.52365,2.14548 -2.39226,2.14548 -0.34405,0 -0.69146,0.10666 -0.77203,0.23702 -0.33004,0.53402 0.91329,1.38381 3.15797,2.1584 1.30968,0.45195 2.85134,1.12722 3.4259,1.50059 1.45439,0.94512 3.55745,2.95509 4.01233,3.83472 0.20931,0.40476 0.4668,0.7344 0.57221,0.73253 0.1054,-0.002 0.72651,-0.80554 1.38023,-1.78593 z m -71.70036,-8.06448 c 2.00511,-6.62028 7.64756,-11.36708 16.47062,-13.85614 1.41883,-0.40027 2.57969,-0.80037 2.57969,-0.88913 0,-0.0888 -0.82444,-0.35485 -1.83208,-0.59133 -2.31303,-0.54284 -5.89824,-2.21437 -8.18069,-3.81407 -5.66825,-3.97273 -8.91193,-9.205 -9.48039,-15.29255 -0.0894,-0.95726 -0.26144,-1.74046 -0.38233,-1.74046 -0.33868,0 -3.02613,5.71023 -3.79281,8.05889 -1.48705,4.55547 -1.82577,6.96193 -1.84496,13.10777 -0.0153,4.89237 0.0652,6.098 0.57513,8.61401 0.90621,4.47145 2.76624,9.68381 4.38356,12.28401 l 0.57853,0.93011 0.17208,-2.44548 c 0.0947,-1.34502 0.43379,-3.30955 0.75365,-4.36563 z m 30.5538,1.16426 c 0.5374,-0.70468 2.70492,-2.75851 4.81673,-4.56407 4.49439,-3.84263 6.20082,-5.7659 7.373,-8.30991 1.11562,-2.42126 1.50208,-4.33317 1.27737,-6.31938 -0.1955,-1.72791 -0.2592,-2.47774 -0.32293,-3.80094 -0.0743,-1.54297 -0.4963,-0.90416 -0.62914,0.95239 -0.21369,2.98652 -1.9302,5.4677 -4.83623,6.99062 -1.19597,0.62676 -2.89451,0.72025 -6.49123,0.35729 -2.17885,-0.21987 -2.33169,-0.1983 -4.36563,0.61599 -2.50218,1.00176 -4.80814,2.65436 -5.05035,3.61942 -0.25327,1.00909 0.36701,3.41891 1.4188,5.51214 0.63705,1.26784 1.59853,2.52572 3.08413,4.0349 1.18718,1.20603 2.29124,2.19277 2.45346,2.19277 0.16222,0 0.73463,-0.57655 1.27202,-1.28122 z m 30.34599,-1.00874 c 0.66774,-0.60429 0.60595,-1.28943 -0.21312,-2.36329 -0.47926,-0.62835 -0.74786,-1.38063 -0.85989,-2.40837 -0.0896,-0.82203 -0.30008,-1.54001 -0.46772,-1.59551 -0.48222,-0.15967 -1.92572,1.55858 -2.10492,2.50557 -0.19294,1.01962 0.0573,2.53822 0.58711,3.56273 0.32382,0.6262 0.54557,0.73675 1.47784,0.73675 0.64933,0 1.29426,-0.17866 1.5807,-0.43788 z m -9.52124,-1.07653 c -0.10442,-1.40206 0.5658,-4.06732 1.39654,-5.55369 0.34859,-0.62369 0.5458,-1.13398 0.43823,-1.13398 -0.4974,0 -2.99847,2.64908 -3.59684,3.80972 -0.64865,1.25816 -0.92233,3.52092 -0.47941,3.96384 0.10386,0.10386 0.66941,0.15347 1.25677,0.11024 l 1.06793,-0.0786 z m -37.31118,-1.25456 c 6.29055,-2.20768 7.2319,-3.23322 7.2319,-7.8787 0,-2.62165 0.30496,-3.36229 0.78313,-1.90192 0.13968,0.4266 0.27217,0.8089 0.29441,0.84956 0.0223,0.0407 0.39554,-0.25777 0.82953,-0.66318 0.434,-0.40541 1.40284,-1.02458 2.15299,-1.37593 1.65704,-0.77612 1.75118,-1.15785 0.23942,-0.97086 -0.61847,0.0765 -1.81948,0.21272 -2.66892,0.30272 -1.6059,0.17014 -4.22905,0.93844 -5.59931,1.64 -2.35265,1.20453 -5.11475,3.77681 -6.62578,6.17043 -0.7069,1.1198 -1.44401,3.58466 -1.44401,4.82866 0,0.63079 0.082,0.7306 0.46302,0.5638 0.25466,-0.11147 2.20929,-0.81553 4.34362,-1.56458 z m 23.24946,-12.9285 c 1.51828,-0.72869 2.72868,-1.87608 3.4321,-3.25342 0.9081,-1.77813 0.94083,-5.23284 0.0652,-6.88654 -0.74429,-1.40571 -2.20696,-2.60806 -3.98056,-3.27211 -1.76263,-0.65995 -3.09751,-0.66737 -3.91823,-0.0218 -0.62258,0.48972 -2.95242,0.91851 -6.55761,1.20688 -0.85584,0.0684 -1.6203,0.18868 -1.69879,0.26717 -0.48685,0.48686 3.45864,3.05104 4.69461,3.05104 0.29084,0 0.80025,-0.36909 1.13203,-0.82021 1.15337,-1.56822 3.97233,-2.46013 5.83379,-1.84579 2.29637,0.75787 3.83495,3.32834 3.47062,5.79828 -0.19445,1.31818 -1.42497,3.08847 -2.64009,3.79813 -1.07645,0.62869 -3.69073,0.69111 -4.8053,0.11475 -1.01072,-0.52267 -2.1246,-1.93396 -2.58428,-3.27431 -0.33699,-0.98262 -0.3582,-0.99452 -2.08313,-1.16905 -2.82453,-0.2858 -6.48292,-1.74202 -9.42067,-3.74989 -1.52871,-1.04483 -5.82026,-5.19343 -7.07668,-6.84096 -1.09711,-1.43863 -1.47664,-1.60593 -1.23354,-0.54376 0.63677,2.78222 3.35555,6.62991 6.57461,9.30456 3.34519,2.77944 4.71198,3.65503 9.8054,6.28148 l 4.7625,2.45582 2.64583,-0.0754 c 1.81391,-0.0517 2.94024,-0.21674 3.58215,-0.52482 z m -26.79319,-7.91659 c -3.95803,-4.52158 -6.0329,-9.37625 -6.02163,-14.08907 0.005,-1.88299 0.92061,-6.07928 1.56598,-7.17311 0.62033,-1.05138 0.64792,-1.16126 0.29152,-1.16126 -0.58258,0 -2.08108,1.65846 -2.5076,2.77528 -0.70959,1.85804 -0.49158,8.86369 0.34978,11.24009 1.01075,2.85481 2.59144,5.25423 5.10336,7.74661 1.28329,1.27331 2.40815,2.3151 2.49969,2.3151 0.0915,0 -0.48495,-0.74414 -1.2811,-1.65364 z m 41.21044,-0.73615 c 0.8448,-0.93349 2.03633,-1.49375 4.49019,-2.11129 2.41575,-0.60796 3.67411,-1.10759 3.96178,-1.57305 0.0874,-0.14138 -0.26248,-0.081 -0.77747,0.13417 -1.24451,0.51999 -4.04517,0.88841 -4.88968,0.64322 -0.64012,-0.18584 -0.60589,-0.22652 0.64704,-0.76884 2.47845,-1.07279 2.52102,-1.13147 1.62929,-2.24607 l -0.61686,-0.77104 -2.3583,1.34387 c -1.29706,0.73913 -3.37033,1.88821 -4.60726,2.55351 -2.52485,1.35804 -2.21733,1.58632 0.92604,0.6874 1.75746,-0.50259 3.73703,-0.7276 2.74603,-0.31214 -0.23593,0.0989 -0.72565,0.53703 -1.08827,0.97359 -1.17601,1.41582 -1.23325,2.7403 -0.0625,1.44667 z m -6.51362,-2.22473 c 1.712,-1.13814 7.46175,-5.90407 7.81775,-6.48008 0.4012,-0.64916 -5.76766,-7.20494 -9.51394,-10.11069 -4.52535,-3.51001 -9.8326,-6.12976 -14.6074,-7.21048 -1.23291,-0.27905 -1.70356,-0.29579 -1.88622,-0.0671 -0.48381,0.60576 -1.30508,2.45912 -1.89369,4.27349 -0.33046,1.01864 -0.70827,1.98842 -0.83957,2.15506 -0.58541,0.74295 -2.67177,14.40712 -2.26109,14.80846 0.0312,0.0305 0.65956,0.16469 1.39636,0.29824 1.96329,0.35587 5.17814,-0.0636 7.0997,-0.92633 1.40778,-0.63206 1.9371,-0.72293 4.12837,-0.70877 1.95553,0.0126 2.78704,0.13906 3.74553,0.56947 1.38114,0.62021 3.02947,2.19159 3.80025,3.62284 0.28163,0.52295 0.67732,0.95082 0.87932,0.95082 0.202,0 1.16258,-0.52872 2.13463,-1.17494 z m -24.89774,-6.8967 c -0.33602,-0.38683 -1.13946,-1.13661 -1.78542,-1.66618 l -1.17446,-0.96286 0.69271,1.16162 c 0.38098,0.63889 1.14762,1.70709 1.70363,2.37378 0.9982,1.1969 1.01195,1.20325 1.09271,0.50455 0.0519,-0.44912 -0.14138,-0.96451 -0.52917,-1.41091 z"
       id="path1057" />
  </g>
</svg>
