<?xml version="1.0" encoding="UTF-8" standalone="no"?>
<!-- Created with Inkscape (http://www.inkscape.org/) -->

<svg
   width="50.529629mm"
   height="24.999977mm"
   viewBox="0 0 50.529628 24.999978"
   version="1.1"
   id="svg671"
   xml:space="preserve"
   inkscape:version="1.2.1 (9c6d41e410, 2022-07-14)"
   sodipodi:docname="sap.svg"
   xmlns:inkscape="http://www.inkscape.org/namespaces/inkscape"
   xmlns:sodipodi="http://sodipodi.sourceforge.net/DTD/sodipodi-0.dtd"
   xmlns="http://www.w3.org/2000/svg"
   xmlns:svg="http://www.w3.org/2000/svg"><sodipodi:namedview
     id="namedview673"
     pagecolor="#ffffff"
     bordercolor="#000000"
     borderopacity="0.25"
     inkscape:showpageshadow="2"
     inkscape:pageopacity="0.0"
     inkscape:pagecheckerboard="0"
     inkscape:deskcolor="#d1d1d1"
     inkscape:document-units="mm"
     showgrid="false"
     inkscape:zoom="0.76880612"
     inkscape:cx="829.20776"
     inkscape:cy="100.15529"
     inkscape:window-width="1920"
     inkscape:window-height="1017"
     inkscape:window-x="-8"
     inkscape:window-y="-8"
     inkscape:window-maximized="1"
     inkscape:current-layer="layer1" /><defs
     id="defs668" /><g
     inkscape:label="Layer 1"
     inkscape:groupmode="layer"
     id="layer1"
     transform="translate(93.638723,-930.88352)"><path
       style="fill:#000000;stroke-width:0.0104131"
       d="m -60.905103,955.87006 c -0.542969,-0.0867 -1.013204,-0.43425 -1.239848,-0.91665 -0.213793,-0.45505 -0.208895,-0.97268 0.01334,-1.4156 0.220825,-0.44003 0.636376,-0.75669 1.127528,-0.85927 0.393256,-0.0821 0.757886,-0.0327 1.111116,0.15058 0.15454,0.0802 0.267997,0.16453 0.398784,0.29643 0.219311,0.22114 0.357902,0.48399 0.428397,0.8125 0.02001,0.0928 0.02347,0.14087 0.02347,0.31761 0,0.17604 -0.0036,0.22479 -0.02312,0.31524 -0.06587,0.30473 -0.181866,0.54445 -0.369794,0.76405 -0.242805,0.28373 -0.606204,0.48104 -0.992911,0.53911 -0.09922,0.0141 -0.372605,0.0121 -0.47701,-0.004 z m 0.504471,-0.28281 c 0.11537,-0.0202 0.221969,-0.0568 0.347351,-0.12086 0.235856,-0.12026 0.425045,-0.30963 0.547141,-0.54732 0.115551,-0.22494 0.163736,-0.44648 0.154499,-0.71021 -0.0032,-0.0899 -0.01334,-0.19605 -0.02292,-0.23951 -0.108335,-0.48959 -0.408948,-0.84222 -0.850826,-0.99808 -0.138613,-0.0489 -0.253157,-0.0673 -0.419388,-0.0677 -0.214369,0 -0.349557,0.0263 -0.536275,0.10531 -0.225257,0.0956 -0.41621,0.24967 -0.564698,0.45577 -0.174631,0.24238 -0.266193,0.59462 -0.237011,0.91184 0.03139,0.3411 0.149831,0.60371 0.379205,0.84073 0.303835,0.31397 0.742652,0.44893 1.202922,0.36994 z m -0.884549,-1.33246 v -0.93292 l 0.44516,0.004 c 0.352189,0.004 0.459296,0.008 0.512845,0.0208 0.282471,0.0671 0.4064,0.2178 0.408569,0.49699 0.0013,0.17079 -0.03662,0.27268 -0.140169,0.37622 -0.06721,0.0673 -0.223224,0.14411 -0.293464,0.14452 -0.01192,0 -0.02854,0.004 -0.03679,0.0101 -0.01597,0.0101 -0.02755,-0.008 0.352539,0.55674 0.09213,0.13683 0.167476,0.25052 0.167476,0.25252 0,0.002 -0.06979,0.004 -0.155086,0.004 -0.121615,0 -0.156258,-0.002 -0.160543,-0.0141 -0.003,-0.008 -0.116622,-0.1906 -0.252468,-0.40612 l -0.246999,-0.39185 h -0.159956 -0.159957 v 0.4061 0.40612 h -0.140573 -0.140574 z m 0.835139,-0.12006 c 0.161614,-0.0342 0.237411,-0.12653 0.237411,-0.28913 0,-0.0873 -0.01395,-0.13118 -0.05607,-0.17686 -0.07559,-0.0818 -0.19274,-0.1049 -0.53488,-0.1053 h -0.200461 v 0.29156 0.29157 h 0.249402 c 0.144818,0 0.272543,-0.004 0.304582,-0.0121 z m -33.188681,-10.75548 v -12.49573 h 25.264813 25.264814 l -12.495732,12.49573 -12.495732,12.49574 h -12.769082 -12.769081 z m 6.898687,7.91371 c 1.513954,-0.0808 2.764354,-0.50707 3.824258,-1.30356 0.08445,-0.0635 0.190355,-0.14775 0.235342,-0.18737 0.04499,-0.0396 0.0835,-0.0703 0.08558,-0.0683 0.002,0.002 -0.03628,0.11137 -0.08523,0.24276 -0.04897,0.13138 -0.12115,0.32564 -0.160401,0.43161 -0.03925,0.10591 -0.108558,0.29222 -0.154015,0.41392 l -0.08265,0.22127 h 2.263087 2.263086 l 0.05219,-0.16108 c 0.102838,-0.31763 0.701117,-2.135 0.703904,-2.13824 0.0016,-0.002 0.07009,0.0182 0.152256,0.0437 1.238057,0.38872 2.672492,0.47456 4.019072,0.24052 0.29577,-0.0513 0.658872,-0.13764 0.91555,-0.2174 0.08283,-0.0257 0.153631,-0.0435 0.15737,-0.0394 0.0036,0.004 0.03578,0.0986 0.07123,0.21035 0.03545,0.11177 0.122222,0.38346 0.192822,0.60397 0.109083,0.34065 0.420695,1.31745 0.454289,1.42396 l 0.01071,0.034 h 3.690642 3.690641 v -2.38981 -2.38981 h 0.976229 c 0.536928,0 1.062919,-0.004 1.168873,-0.0101 1.326739,-0.073 2.365838,-0.35146 3.291231,-0.88194 0.249576,-0.1431 0.595082,-0.3932 0.795915,-0.57626 1.037775,-0.94579 1.557,-2.22735 1.556529,-3.84187 -5.34e-4,-1.61084 -0.429407,-2.83152 -1.30246,-3.70655 -0.412374,-0.41331 -0.932219,-0.75127 -1.550502,-1.008 -0.813304,-0.33774 -1.774639,-0.53911 -2.967736,-0.62164 -0.572555,-0.0396 -0.764501,-0.0418 -3.48749,-0.042 l -2.659649,-1.2e-4 0.0014,5.90944 c 0.0012,4.9648 -8.53e-4,5.90362 -0.01273,5.873 -0.0077,-0.0202 -0.134631,-0.36448 -0.282018,-0.76537 -0.147385,-0.40092 -0.307728,-0.83671 -0.356297,-0.96843 -0.04857,-0.13178 -0.106132,-0.2887 -0.1279,-0.34883 -0.02177,-0.06 -0.05599,-0.15382 -0.07602,-0.20825 -0.02001,-0.0544 -0.131013,-0.35665 -0.246601,-0.67166 -0.115592,-0.315 -0.225869,-0.6149 -0.245052,-0.66644 -0.0192,-0.0515 -0.103566,-0.28115 -0.187526,-0.51025 -0.08396,-0.22908 -0.184676,-0.50321 -0.223814,-0.60916 -0.03915,-0.10591 -0.116481,-0.31658 -0.171841,-0.46807 -0.05536,-0.15139 -0.107082,-0.29206 -0.114925,-0.31239 -0.0079,-0.0204 -0.10783,-0.29257 -0.222201,-0.60497 -0.114358,-0.31239 -0.214965,-0.58652 -0.223545,-0.60916 -0.0085,-0.0226 -0.05847,-0.15826 -0.110862,-0.3015 -0.05239,-0.1431 -0.104091,-0.28376 -0.114904,-0.3124 -0.01071,-0.0287 -0.053,-0.1435 -0.09372,-0.25511 -0.04075,-0.11177 -0.0896,-0.24523 -0.108579,-0.29677 -0.130427,-0.35433 -0.34022,-0.92556 -0.782049,-2.12948 -0.598489,-1.63079 -0.604874,-1.6482 -0.6261,-1.70515 l -0.01657,-0.0443 h -2.153734 c -2.040526,0 -2.154244,8.9e-4 -2.163465,0.0182 -0.0053,0.0101 -0.290979,0.76797 -0.634728,1.68432 -0.343752,0.91636 -0.964425,2.57048 -1.379273,3.67583 -0.414851,1.10536 -0.964647,2.5706 -1.221774,3.25613 l -0.467503,1.24638 -0.01334,-0.0645 c -0.08317,-0.40437 -0.169254,-0.66489 -0.320956,-0.97116 -0.274946,-0.55511 -0.701794,-1.03711 -1.305846,-1.47461 -0.38737,-0.28056 -0.968469,-0.59431 -1.526364,-0.82416 -0.529941,-0.21831 -0.900351,-0.35021 -1.774593,-0.6319 -0.685384,-0.22084 -1.176095,-0.41162 -1.619238,-0.62956 -0.267677,-0.13158 -0.368045,-0.18858 -0.577927,-0.32832 -0.294038,-0.19565 -0.508868,-0.42758 -0.581457,-0.62768 -0.02375,-0.0655 -0.0272,-0.0907 -0.02662,-0.19505 5.7e-4,-0.10106 0.0049,-0.13158 0.02759,-0.19585 0.08331,-0.23555 0.296043,-0.44478 0.595448,-0.58568 0.503709,-0.23706 1.141209,-0.29608 2.182196,-0.20191 0.961813,0.0869 1.778132,0.33159 2.956772,0.88628 0.09004,0.0424 0.12123,0.0528 0.127476,0.0428 0.0046,-0.008 0.136309,-0.23585 0.292785,-0.5079 0.15648,-0.27203 0.357289,-0.62113 0.446249,-0.77577 0.148638,-0.25837 0.286705,-0.49859 0.80197,-1.39537 l 0.185484,-0.3228 -0.158744,-0.0786 c -1.579815,-0.78204 -3.854982,-1.28821 -5.646447,-1.25615 -0.365855,0.006 -0.499154,0.0141 -0.827892,0.0487 -1.703897,0.17807 -3.189731,0.86028 -4.104932,1.88476 -0.59921,0.67077 -0.944631,1.43985 -1.056974,2.35336 -0.02662,0.21641 -0.02603,0.8969 9.42e-4,1.10901 0.07026,0.55224 0.184635,0.93906 0.403741,1.36537 0.146173,0.2844 0.358219,0.58368 0.58139,0.82056 0.474855,0.50402 1.076445,0.92598 1.879783,1.31852 0.611512,0.29881 1.246503,0.54404 2.1451,0.82842 0.930887,0.29461 1.116737,0.35872 1.45263,0.50109 0.648418,0.27488 0.984165,0.55807 1.072879,0.90493 0.03741,0.14633 0.02276,0.353 -0.03828,0.5402 -0.08928,0.27383 -0.322333,0.53561 -0.614064,0.68977 -0.400747,0.2118 -1.063495,0.28759 -2.01895,0.23088 -1.067323,-0.0633 -1.991245,-0.37499 -3.231329,-1.08986 -0.06573,-0.0378 -0.121494,-0.0639 -0.126163,-0.0586 -0.0046,0.006 -0.239181,0.46845 -0.521302,1.02972 -0.282121,0.56128 -0.624819,1.24127 -0.761554,1.51111 -0.136733,0.26983 -0.248604,0.49475 -0.2486,0.49984 1.1e-5,0.0141 0.360416,0.20734 0.645605,0.34617 1.260549,0.61357 2.621417,0.99155 4.019462,1.1164 0.422483,0.0378 1.124652,0.0517 1.525522,0.0303 z m 11.305579,-5.602 c -0.28778,-0.0202 -0.576994,-0.0651 -0.835194,-0.13016 -0.143787,-0.0362 -0.420774,-0.12269 -0.446405,-0.13926 -0.01152,-0.008 0.0073,-0.0772 0.09772,-0.36193 0.06159,-0.19404 0.127335,-0.40188 0.146071,-0.46201 0.0188,-0.0602 0.084,-0.26631 0.145,-0.45818 0.061,-0.19181 0.136814,-0.43083 0.168466,-0.53106 0.03165,-0.10026 0.078,-0.24548 0.102979,-0.32281 0.02498,-0.0774 0.1507,-0.47326 0.279397,-0.8799 0.255969,-0.8088 0.488664,-1.54273 0.570326,-1.79886 0.05079,-0.15926 0.07248,-0.19524 0.08467,-0.14067 0.0028,0.0121 0.02642,0.0914 0.05235,0.17443 0.02593,0.0831 0.118138,0.38059 0.204912,0.66123 0.08677,0.28064 0.210963,0.68128 0.275976,0.89033 0.06502,0.20903 0.189204,0.60967 0.275993,0.89031 0.08679,0.28064 0.178269,0.57586 0.203315,0.65604 0.02504,0.0802 0.149103,0.48082 0.27569,0.89031 0.126587,0.40949 0.234476,0.7576 0.239747,0.77359 0.01152,0.0346 0.02025,0.0303 -0.197874,0.096 -0.30604,0.0922 -0.609454,0.15179 -0.926766,0.18231 -0.155631,0.0141 -0.565433,0.0208 -0.716361,0.0101 z m 10.994103,-4.8525 v -1.99931 l 0.674249,4e-5 c 0.786197,4e-5 0.982488,0.0101 1.316782,0.0724 0.974803,0.17927 1.545265,0.67697 1.683425,1.46879 0.03608,0.20681 0.0437,0.53287 0.01758,0.74974 -0.09821,0.81292 -0.580181,1.33952 -1.435209,1.5681 -0.416415,0.11136 -0.758632,0.13946 -1.697038,0.13966 l -0.559704,1.2e-4 v -1.99934 z"
       id="path718" /></g></svg>
