<?xml version="1.0" encoding="UTF-8" standalone="no"?>
<!-- Created with Inkscape (http://www.inkscape.org/) -->

<svg
   width="130.27998mm"
   height="87.186211mm"
   viewBox="0 0 130.27998 87.186211"
   version="1.1"
   id="svg18663"
   inkscape:version="1.1.1 (1:1.1+202109281949+c3084ef5ed)"
   sodipodi:docname="trafficsim.svg"
   xmlns:inkscape="http://www.inkscape.org/namespaces/inkscape"
   xmlns:sodipodi="http://sodipodi.sourceforge.net/DTD/sodipodi-0.dtd"
   xmlns="http://www.w3.org/2000/svg"
   xmlns:svg="http://www.w3.org/2000/svg">
  <sodipodi:namedview
     id="namedview18665"
     pagecolor="#ffffff"
     bordercolor="#666666"
     borderopacity="1.0"
     inkscape:pageshadow="2"
     inkscape:pageopacity="0.0"
     inkscape:pagecheckerboard="0"
     inkscape:document-units="mm"
     showgrid="false"
     inkscape:zoom="0.66368547"
     inkscape:cx="220.73709"
     inkscape:cy="88.897532"
     inkscape:window-width="1920"
     inkscape:window-height="1043"
     inkscape:window-x="0"
     inkscape:window-y="0"
     inkscape:window-maximized="1"
     inkscape:current-layer="layer1" />
  <defs
     id="defs18660" />
  <g
     inkscape:label="Layer 1"
     inkscape:groupmode="layer"
     id="layer1"
     transform="translate(-46.48417,-124.64045)">
    <g
       id="g18616"
       transform="translate(-96.655899,-638.39607)">
      <path
         id="circle19121"
         style="fill:none;stroke:#00ff00;stop-color:#000000"
         d="m 254.30848,797.93579 a 22.265207,22.265207 0 0 1 -22.26521,22.26521 22.265207,22.265207 0 0 1 -22.2652,-22.26521 22.265207,22.265207 0 0 1 22.2652,-22.26521 22.265207,22.265207 0 0 1 22.26521,22.26521 z" />
      <g
         aria-label="t"
         transform="matrix(1.1695622,0,0,1.1695622,-679.74546,-2851.2251)"
         id="text19873"
         style="font-size:39.9999px;line-height:1;font-family:FreeMono;-inkscape-font-specification:FreeMono;letter-spacing:0px;word-spacing:0px;baseline-shift:baseline;opacity:1;vector-effect:none;stroke-width:0.999999;stop-color:#000000;stop-opacity:1">
        <path
           d="m 740.27738,3133.3287 q 0.80078,0 1.13281,0.2929 0.33203,0.293 0.33203,0.9766 v 5.8594 h 8.02733 q 0.66406,0 0.93749,0.3125 0.29297,0.2929 0.29297,1.0156 0,0.7226 -0.29297,1.0351 -0.27343,0.293 -0.93749,0.293 h -8.02733 v 7.1094 q 0,2.2265 0.76172,3.2617 0.78125,1.0351 2.69531,1.0351 1.30859,0 2.75389,-0.5273 1.44531,-0.5274 2.79297,-1.4063 0.27343,-0.1953 0.60546,-0.1953 0.66406,0 1.13281,0.8985 0.25391,0.5078 0.25391,0.8789 0,0.625 -0.64453,1.0156 -1.52343,0.957 -3.39843,1.582 -1.87499,0.6055 -3.49608,0.6055 -3.32031,0 -4.86327,-1.7188 -1.52344,-1.7382 -1.52344,-5.1757 v -7.3633 h -3.96483 q -0.66406,0 -0.95703,-0.293 -0.27344,-0.3125 -0.27344,-1.0351 0,-0.7227 0.27344,-1.0156 0.29297,-0.3125 0.95703,-0.3125 h 3.96483 v -5.8594 q 0,-0.6836 0.33203,-0.9766 0.33203,-0.2929 1.13281,-0.2929 z"
           style="font-family:'Courier Prime';-inkscape-font-specification:'Courier Prime'"
           id="path837" />
      </g>
      <g
         aria-label="s"
         transform="matrix(1.1695622,0,0,1.1695622,-637.33209,-2883.7506)"
         id="text5082"
         style="font-size:39.9999px;line-height:1;font-family:FreeMono;-inkscape-font-specification:FreeMono;letter-spacing:0px;word-spacing:0px;baseline-shift:baseline;opacity:1;vector-effect:none;stroke-width:0.999999;stop-color:#000000;stop-opacity:1">
        <path
           d="m 749.47658,3138.4654 q 0.80078,0 1.13281,0.2929 0.33203,0.293 0.33203,0.9766 v 3.7109 q 0,0.6836 -0.33203,0.9766 -0.33203,0.293 -1.13281,0.293 -0.66406,0 -0.9375,-0.5078 -0.83984,-1.6016 -2.4414,-2.2461 -1.60156,-0.6641 -4.06249,-0.6641 -1.89453,0 -2.96874,0.6836 -1.05469,0.6641 -1.05469,1.875 0,0.625 0.39063,1.0156 0.41015,0.3906 1.1914,0.6445 0.64453,0.2149 1.48437,0.3321 0.85937,0.1172 2.20703,0.2539 1.89452,0.2148 3.04687,0.4101 1.17187,0.1758 2.20702,0.5469 1.5625,0.5664 2.42187,1.6406 0.8789,1.0742 0.8789,2.8321 0,1.7578 -0.89843,3.0859 -0.87891,1.3086 -2.59765,2.0312 -1.69922,0.7227 -4.08202,0.7227 -2.10937,0 -3.71093,-0.586 -1.60156,-0.5859 -2.79296,-1.7773 v 1.0938 q 0,0.6835 -0.33203,0.9765 -0.33203,0.293 -1.13281,0.293 -0.80078,0 -1.13281,-0.293 -0.33203,-0.293 -0.33203,-0.9765 v -4.6875 q 0,-0.6836 0.33203,-0.9766 0.33203,-0.293 1.13281,-0.293 0.41015,0 0.64453,0.1953 0.23437,0.1758 0.41015,0.6055 0.70313,1.875 2.34375,2.7344 1.64062,0.8594 4.37499,0.8594 2.26562,0 3.47655,-0.8204 1.21093,-0.8203 1.21093,-2.1874 0,-0.6641 -0.42968,-1.0938 -0.42969,-0.4297 -1.23047,-0.7031 -0.68359,-0.2149 -1.58203,-0.3516 -0.8789,-0.1562 -2.24608,-0.2929 -1.83594,-0.1954 -3.0664,-0.4102 -1.23047,-0.2148 -2.26562,-0.625 -1.42578,-0.5664 -2.22656,-1.5625 -0.78125,-1.0156 -0.78125,-2.6367 0,-1.6992 0.87891,-2.9102 0.89843,-1.2304 2.46093,-1.8554 1.58203,-0.625 3.57421,-0.625 1.89453,0 3.45702,0.5664 1.58203,0.5664 2.71484,1.582 v -0.8789 q 0,-0.6836 0.33203,-0.9766 0.33203,-0.2929 1.13281,-0.2929 z"
           style="font-family:'Courier Prime';-inkscape-font-specification:'Courier Prime'"
           id="path840" />
      </g>
      <path
         id="circle5580"
         style="fill:none;stroke:#ff0000;stop-color:#000000"
         d="m 211.71237,827.45752 a 22.265207,22.265207 0 0 1 -22.26521,22.26521 22.265207,22.265207 0 0 1 -22.26521,-22.26521 22.265207,22.265207 0 0 1 22.26521,-22.26521 22.265207,22.265207 0 0 1 22.26521,22.26521 z" />
      <g
         aria-label="x:20
y:05
id:02"
         transform="matrix(0.18441566,0,0,0.18441566,72.039148,222.75666)"
         id="text6504"
         style="font-size:39.9999px;line-height:1;font-family:Acre;-inkscape-font-specification:Acre;letter-spacing:0px;word-spacing:0px;baseline-shift:baseline;opacity:1;vector-effect:none;stroke-width:0.999999;stop-color:#000000;stop-opacity:1">
        <path
           d="m 997.58076,2935.2518 q 0.66406,0 0.9375,0.3125 0.29296,0.2929 0.29296,1.0156 0,0.7226 -0.29296,1.0351 -0.27344,0.293 -0.9375,0.293 h -1.26953 l -5.80077,6.1133 6.26952,6.621 h 0.99609 q 0.66406,0 0.9375,0.3125 0.29297,0.293 0.29297,1.0157 0,0.7226 -0.29297,1.0351 -0.27344,0.293 -0.9375,0.293 h -6.71873 q -0.66406,0 -0.95703,-0.293 -0.27344,-0.3125 -0.27344,-1.0351 0,-0.7227 0.27344,-1.0157 0.29297,-0.3125 0.95703,-0.3125 h 1.87499 l -4.68749,-5.039 -4.66795,5.039 h 1.54296 q 0.66406,0 0.9375,0.3125 0.29297,0.293 0.29297,1.0157 0,0.7226 -0.29297,1.0351 -0.27344,0.293 -0.9375,0.293 h -6.1328 q -0.66406,0 -0.95702,-0.293 -0.27344,-0.3125 -0.27344,-1.0351 0,-0.7227 0.27344,-1.0157 0.29296,-0.3125 0.95702,-0.3125 h 0.97656 l 6.34764,-6.6601 -5.74217,-6.0742 h -1.38671 q -0.66406,0 -0.95703,-0.293 -0.27344,-0.3125 -0.27344,-1.0351 0,-0.7227 0.27344,-1.0156 0.29297,-0.3125 0.95703,-0.3125 h 6.71873 q 0.66406,0 0.9375,0.3125 0.29297,0.2929 0.29297,1.0156 0,0.7226 -0.29297,1.0351 -0.27344,0.293 -0.9375,0.293 h -1.48437 l 4.14061,4.4922 4.16015,-4.4922 h -1.07422 q -0.66406,0 -0.95703,-0.293 -0.27343,-0.3125 -0.27343,-1.0351 0,-0.7227 0.27343,-1.0156 0.29297,-0.3125 0.95703,-0.3125 z"
           style="font-family:'Courier Prime';-inkscape-font-specification:'Courier Prime'"
           id="path844" />
        <path
           d="m 1012.3659,2941.1111 q -1.4063,0 -2.0313,-0.2734 -0.6054,-0.293 -0.6054,-0.9571 v -3.5937 q 0,-0.6641 0.6054,-0.9375 0.625,-0.293 2.0313,-0.293 1.4062,0 2.0117,0.293 0.625,0.2734 0.625,0.9375 v 3.5937 q 0,0.6641 -0.625,0.9571 -0.6055,0.2734 -2.0117,0.2734 z m 0,12.3828 q -1.4063,0 -2.0313,-0.2734 -0.6054,-0.293 -0.6054,-0.9571 v -3.5937 q 0,-0.6641 0.6054,-0.9375 0.625,-0.293 2.0313,-0.293 1.4062,0 2.0117,0.293 0.625,0.2734 0.625,0.9375 v 3.5937 q 0,0.6641 -0.625,0.9571 -0.6055,0.2734 -2.0117,0.2734 z"
           style="font-family:'Courier Prime';-inkscape-font-specification:'Courier Prime'"
           id="path846" />
        <path
           d="m 1035.6861,2929.6854 q 2.2657,0 3.9649,0.8203 1.7187,0.8008 2.6562,2.3437 0.9375,1.543 0.9375,3.6719 0,1.9922 -0.9961,3.6718 -0.9765,1.6602 -3.0664,3.7891 l -6.5625,6.6601 h 8.4766 v -2.4609 q 0,-0.6836 0.332,-0.9766 0.332,-0.2929 1.1328,-0.2929 0.8008,0 1.1328,0.2929 0.3321,0.293 0.3321,0.9766 v 3.7891 q 0,0.7226 -0.293,1.0351 -0.2734,0.293 -0.9375,0.293 h -13.5547 q -0.664,0 -0.957,-0.293 -0.2734,-0.3125 -0.2734,-1.0351 0,-0.7422 0.2929,-1.0547 l 8.5938,-8.7109 q 1.7968,-1.836 2.5195,-3.0469 0.7422,-1.2305 0.7422,-2.6367 0,-1.8164 -1.1719,-2.8711 -1.1523,-1.0742 -3.2812,-1.0742 -2.1485,0 -4.043,1.0937 v 2.1485 q 0,0.6836 -0.332,0.9765 -0.3321,0.293 -1.1328,0.293 -0.8008,0 -1.1328,-0.293 -0.3321,-0.2929 -0.3321,-0.9765 v -2.8711 q 0,-0.7617 0.4492,-1.0742 1.4258,-1.0352 3.086,-1.6016 1.6601,-0.5859 3.4179,-0.5859 z"
           style="font-family:'Courier Prime';-inkscape-font-specification:'Courier Prime'"
           id="path848" />
        <path
           d="m 1060.3345,2929.6854 q 2.5,0 4.375,1.5039 1.8945,1.4843 2.9101,4.2187 1.0352,2.7148 1.0352,6.3086 0,3.5937 -1.0352,6.3086 -1.0156,2.7148 -2.8906,4.2187 -1.875,1.4844 -4.3945,1.4844 -2.5195,0 -4.3945,-1.4844 -1.875,-1.5039 -2.9102,-4.2187 -1.0156,-2.7149 -1.0156,-6.3086 0,-3.5938 1.0156,-6.3086 1.0352,-2.7344 2.9102,-4.2187 1.8945,-1.5039 4.3945,-1.5039 z m 0,2.8906 q -1.543,0 -2.7344,1.0937 -1.1718,1.0742 -1.8359,3.1445 -0.6641,2.0508 -0.6641,4.9024 0,2.8515 0.6641,4.9218 0.6641,2.0508 1.8359,3.125 1.1914,1.0743 2.7344,1.0743 1.543,0 2.7148,-1.0743 1.1915,-1.0742 1.8555,-3.125 0.6641,-2.0703 0.6641,-4.9218 0,-2.8516 -0.6641,-4.9024 -0.664,-2.0703 -1.8555,-3.1445 -1.1718,-1.0937 -2.7148,-1.0937 z"
           style="font-family:'Courier Prime';-inkscape-font-specification:'Courier Prime'"
           id="path850" />
        <path
           d="m 998.16669,2979.4256 q 0.66406,0 0.9375,0.3125 0.29297,0.2929 0.29297,1.0156 0,0.7226 -0.29297,1.0351 -0.27344,0.293 -0.9375,0.293 h -1.21093 l -7.98826,16.3671 q -1.26953,2.5977 -2.48046,4.0821 -1.21094,1.4843 -2.73437,2.1679 -1.50391,0.7032 -3.67187,0.7813 -0.68359,0.019 -1.05468,-0.3516 -0.3711,-0.3515 -0.3711,-1.2695 0,-1.2695 1.03516,-1.3281 1.87499,-0.098 2.96874,-0.625 1.11328,-0.5274 2.03124,-1.8164 0.9375,-1.2696 2.28516,-3.9844 l -7.14842,-14.0234 h -1.23047 q -0.66406,0 -0.95703,-0.293 -0.27344,-0.3125 -0.27344,-1.0351 0,-0.7227 0.27344,-1.0156 0.29297,-0.3125 0.95703,-0.3125 h 6.91405 q 0.66406,0 0.93749,0.3125 0.29297,0.2929 0.29297,1.0156 0,0.7226 -0.29297,1.0351 -0.27343,0.293 -0.93749,0.293 h -2.5 l 5.5078,10.9765 5.25389,-10.9765 h -1.73827 q -0.66406,0 -0.95703,-0.293 -0.27344,-0.3125 -0.27344,-1.0351 0,-0.7227 0.27344,-1.0156 0.29297,-0.3125 0.95703,-0.3125 z"
           style="font-family:'Courier Prime';-inkscape-font-specification:'Courier Prime'"
           id="path852" />
        <path
           d="m 1012.3659,2985.2849 q -1.4063,0 -2.0313,-0.2734 -0.6054,-0.293 -0.6054,-0.957 v -3.5938 q 0,-0.664 0.6054,-0.9375 0.625,-0.293 2.0313,-0.293 1.4062,0 2.0117,0.293 0.625,0.2735 0.625,0.9375 v 3.5938 q 0,0.664 -0.625,0.957 -0.6055,0.2734 -2.0117,0.2734 z m 0,12.3828 q -1.4063,0 -2.0313,-0.2734 -0.6054,-0.293 -0.6054,-0.9571 v -3.5937 q 0,-0.6641 0.6054,-0.9375 0.625,-0.293 2.0313,-0.293 1.4062,0 2.0117,0.293 0.625,0.2734 0.625,0.9375 v 3.5937 q 0,0.6641 -0.625,0.9571 -0.6055,0.2734 -2.0117,0.2734 z"
           style="font-family:'Courier Prime';-inkscape-font-specification:'Courier Prime'"
           id="path854" />
        <path
           d="m 1036.3502,2973.8592 q 2.5,0 4.375,1.5039 1.8945,1.4843 2.9101,4.2187 1.0352,2.7148 1.0352,6.3086 0,3.5937 -1.0352,6.3086 -1.0156,2.7148 -2.8906,4.2187 -1.875,1.4844 -4.3945,1.4844 -2.5195,0 -4.3945,-1.4844 -1.875,-1.5039 -2.9102,-4.2187 -1.0156,-2.7149 -1.0156,-6.3086 0,-3.5938 1.0156,-6.3086 1.0352,-2.7344 2.9102,-4.2187 1.8945,-1.5039 4.3945,-1.5039 z m 0,2.8906 q -1.543,0 -2.7344,1.0937 -1.1718,1.0742 -1.8359,3.1446 -0.6641,2.0507 -0.6641,4.9023 0,2.8515 0.6641,4.9218 0.6641,2.0508 1.8359,3.125 1.1914,1.0743 2.7344,1.0743 1.543,0 2.7148,-1.0743 1.1914,-1.0742 1.8555,-3.125 0.6641,-2.0703 0.6641,-4.9218 0,-2.8516 -0.6641,-4.9023 -0.6641,-2.0704 -1.8555,-3.1446 -1.1718,-1.0937 -2.7148,-1.0937 z"
           style="font-family:'Courier Prime';-inkscape-font-specification:'Courier Prime'"
           id="path856" />
        <path
           d="m 1065.6275,2974.2889 q 0.664,0 0.9375,0.3125 0.2929,0.2929 0.2929,1.0156 0,0.7226 -0.2929,1.0351 -0.2735,0.293 -0.9375,0.293 h -9.1016 l -0.2539,6.2695 q 1.9531,-1.0937 4.1992,-1.0937 2.3438,0 4.0625,0.9961 1.7188,0.996 2.6172,2.7734 0.918,1.7578 0.918,4.0429 0,2.2852 -1.0157,4.1016 -1.0156,1.7969 -2.8906,2.832 -1.875,1.0352 -4.3359,1.0352 -1.875,0 -3.7695,-0.625 -1.8945,-0.625 -3.4375,-1.6992 -0.6055,-0.4102 -0.6055,-0.9961 0,-0.4297 0.3125,-0.9375 0.5078,-0.8399 1.1328,-0.8399 0.3125,0 0.6641,0.2539 1.2695,0.8985 2.7539,1.4258 1.4844,0.5274 2.9492,0.5274 1.582,0 2.7539,-0.625 1.1719,-0.6446 1.7773,-1.7774 0.625,-1.1523 0.625,-2.6758 0,-1.4453 -0.5859,-2.5585 -0.5664,-1.1133 -1.6602,-1.7383 -1.0742,-0.625 -2.5195,-0.625 -1.3281,0 -2.3828,0.3515 -1.0547,0.3321 -2.0508,1.0352 -0.3125,0.1953 -0.9765,0.1953 -0.8203,0 -1.1719,-0.293 -0.332,-0.2929 -0.293,-0.9765 l 0.3907,-9.7656 q 0.039,-0.6836 0.3515,-0.9766 0.3125,-0.2929 1.1133,-0.2929 z"
           style="font-family:'Courier Prime';-inkscape-font-specification:'Courier Prime'"
           id="path858" />
        <path
           d="m 989.08469,3023.5994 q 0.66406,0 0.93749,0.3125 0.29297,0.2929 0.29297,1.0156 v 14.0624 h 6.26952 q 0.66406,0 0.93749,0.3125 0.29297,0.293 0.29297,1.0157 0,0.7226 -0.29297,1.0351 -0.27343,0.293 -0.93749,0.293 H 981.2722 q -0.66406,0 -0.95702,-0.293 -0.27344,-0.3125 -0.27344,-1.0351 0,-0.7227 0.27344,-1.0157 0.29296,-0.3125 0.95702,-0.3125 h 6.11327 v -12.7343 h -4.94139 q -0.66406,0 -0.95703,-0.293 -0.27344,-0.3125 -0.27344,-1.0351 0,-0.7227 0.27344,-1.0156 0.29297,-0.3125 0.95703,-0.3125 z m -0.625,-8.5742 q 1.07421,0 1.46484,0.2929 0.39062,0.2735 0.39062,0.9766 v 2.539 q 0,0.7032 -0.39062,0.9961 -0.39063,0.2735 -1.46484,0.2735 -1.07422,0 -1.46484,-0.2735 -0.39063,-0.2929 -0.39063,-0.9961 v -2.539 q 0,-0.7031 0.39063,-0.9766 0.39062,-0.2929 1.46484,-0.2929 z"
           style="font-family:'Courier Prime';-inkscape-font-specification:'Courier Prime'"
           id="path860" />
        <path
           d="m 1019.1823,3016.0213 q 0.664,0 0.9375,0.3125 0.2929,0.2929 0.2929,1.0156 v 21.6405 h 1.6016 q 0.6641,0 0.9375,0.3125 0.293,0.293 0.293,1.0157 0,0.7226 -0.293,1.0351 -0.2734,0.293 -0.9375,0.293 h -3.1055 q -0.664,0 -0.957,-0.293 -0.2734,-0.3125 -0.2734,-1.0351 v -1.5625 q -1.2305,1.6015 -2.8516,2.4609 -1.6211,0.8594 -3.5351,0.8594 -2.4219,0 -4.336,-1.1328 -1.914,-1.1524 -3.0078,-3.2813 -1.0937,-2.1484 -1.0937,-5.039 0,-2.8906 1.0937,-5.0195 1.0938,-2.1485 3.0078,-3.2813 1.9141,-1.1523 4.336,-1.1523 3.6718,0 6.1914,3.2226 v -7.7148 h -3.1641 q -0.6641,0 -0.957,-0.293 -0.2735,-0.3125 -0.2735,-1.0351 0,-0.7227 0.2735,-1.0156 0.2929,-0.3125 0.957,-0.3125 z m -7.6953,10.039 q -1.7383,0 -2.9883,0.8398 -1.25,0.8203 -1.9141,2.3047 -0.6445,1.4844 -0.6445,3.418 0,1.9336 0.6445,3.4179 0.6641,1.4844 1.9141,2.3242 1.25,0.8204 2.9883,0.8204 1.7383,0 3.0859,-0.7813 1.3672,-0.7812 2.1289,-2.2656 0.7813,-1.4844 0.7813,-3.5156 0,-2.0313 -0.7813,-3.5156 -0.7617,-1.4844 -2.1289,-2.2657 -1.3476,-0.7812 -3.0859,-0.7812 z"
           style="font-family:'Courier Prime';-inkscape-font-specification:'Courier Prime'"
           id="path862" />
        <path
           d="m 1036.3502,3029.4587 q -1.4063,0 -2.0313,-0.2734 -0.6054,-0.293 -0.6054,-0.957 v -3.5938 q 0,-0.664 0.6054,-0.9375 0.625,-0.293 2.0313,-0.293 1.4062,0 2.0117,0.293 0.625,0.2735 0.625,0.9375 v 3.5938 q 0,0.664 -0.625,0.957 -0.6055,0.2734 -2.0117,0.2734 z m 0,12.3828 q -1.4063,0 -2.0313,-0.2734 -0.6054,-0.293 -0.6054,-0.9571 v -3.5937 q 0,-0.6641 0.6054,-0.9375 0.625,-0.293 2.0313,-0.293 1.4062,0 2.0117,0.293 0.625,0.2734 0.625,0.9375 v 3.5937 q 0,0.6641 -0.625,0.9571 -0.6055,0.2734 -2.0117,0.2734 z"
           style="font-family:'Courier Prime';-inkscape-font-specification:'Courier Prime'"
           id="path864" />
        <path
           d="m 1060.3345,3018.033 q 2.5,0 4.375,1.5039 1.8945,1.4843 2.9101,4.2187 1.0352,2.7148 1.0352,6.3086 0,3.5937 -1.0352,6.3086 -1.0156,2.7148 -2.8906,4.2187 -1.875,1.4844 -4.3945,1.4844 -2.5195,0 -4.3945,-1.4844 -1.875,-1.5039 -2.9102,-4.2187 -1.0156,-2.7149 -1.0156,-6.3086 0,-3.5938 1.0156,-6.3086 1.0352,-2.7344 2.9102,-4.2187 1.8945,-1.5039 4.3945,-1.5039 z m 0,2.8906 q -1.543,0 -2.7344,1.0937 -1.1718,1.0742 -1.8359,3.1446 -0.6641,2.0507 -0.6641,4.9023 0,2.8515 0.6641,4.9219 0.6641,2.0507 1.8359,3.1249 1.1914,1.0743 2.7344,1.0743 1.543,0 2.7148,-1.0743 1.1915,-1.0742 1.8555,-3.1249 0.6641,-2.0704 0.6641,-4.9219 0,-2.8516 -0.6641,-4.9023 -0.664,-2.0704 -1.8555,-3.1446 -1.1718,-1.0937 -2.7148,-1.0937 z"
           style="font-family:'Courier Prime';-inkscape-font-specification:'Courier Prime'"
           id="path866" />
        <path
           d="m 1083.6548,3018.033 q 2.2656,0 3.9648,0.8203 1.7187,0.8008 2.6562,2.3437 0.9375,1.543 0.9375,3.6719 0,1.9922 -0.9961,3.6719 -0.9765,1.6601 -3.0664,3.789 l -6.5624,6.6601 h 8.4765 v -2.4609 q 0,-0.6836 0.332,-0.9765 0.3321,-0.293 1.1328,-0.293 0.8008,0 1.1329,0.293 0.332,0.2929 0.332,0.9765 v 3.7891 q 0,0.7226 -0.293,1.0351 -0.2734,0.293 -0.9375,0.293 h -13.5546 q -0.6641,0 -0.9571,-0.293 -0.2734,-0.3125 -0.2734,-1.0351 0,-0.7422 0.293,-1.0547 l 8.5937,-8.7109 q 1.7969,-1.836 2.5195,-3.0469 0.7422,-1.2305 0.7422,-2.6367 0,-1.8164 -1.1719,-2.8711 -1.1523,-1.0742 -3.2812,-1.0742 -2.1484,0 -4.043,1.0937 v 2.1485 q 0,0.6836 -0.332,0.9765 -0.332,0.293 -1.1328,0.293 -0.8008,0 -1.1328,-0.293 -0.332,-0.2929 -0.332,-0.9765 v -2.8711 q 0,-0.7617 0.4492,-1.0742 1.4258,-1.0352 3.0859,-1.6016 1.6602,-0.5859 3.418,-0.5859 z"
           style="font-family:'Courier Prime';-inkscape-font-specification:'Courier Prime'"
           id="path868" />
      </g>
      <g
         aria-label="x:17
y:11
id:33"
         transform="matrix(0.18441566,0,0,0.18441566,-37.10152,258.5116)"
         id="text8384"
         style="font-size:39.9999px;line-height:1;font-family:Acre;-inkscape-font-specification:Acre;letter-spacing:0px;word-spacing:0px;baseline-shift:baseline;opacity:1;vector-effect:none;stroke-width:0.999999;stop-color:#000000;stop-opacity:1">
        <path
           d="m 997.58076,2935.2518 q 0.66406,0 0.9375,0.3125 0.29296,0.2929 0.29296,1.0156 0,0.7226 -0.29296,1.0351 -0.27344,0.293 -0.9375,0.293 h -1.26953 l -5.80077,6.1133 6.26952,6.621 h 0.99609 q 0.66406,0 0.9375,0.3125 0.29297,0.293 0.29297,1.0157 0,0.7226 -0.29297,1.0351 -0.27344,0.293 -0.9375,0.293 h -6.71873 q -0.66406,0 -0.95703,-0.293 -0.27344,-0.3125 -0.27344,-1.0351 0,-0.7227 0.27344,-1.0157 0.29297,-0.3125 0.95703,-0.3125 h 1.87499 l -4.68749,-5.039 -4.66795,5.039 h 1.54296 q 0.66406,0 0.9375,0.3125 0.29297,0.293 0.29297,1.0157 0,0.7226 -0.29297,1.0351 -0.27344,0.293 -0.9375,0.293 h -6.1328 q -0.66406,0 -0.95702,-0.293 -0.27344,-0.3125 -0.27344,-1.0351 0,-0.7227 0.27344,-1.0157 0.29296,-0.3125 0.95702,-0.3125 h 0.97656 l 6.34764,-6.6601 -5.74217,-6.0742 h -1.38671 q -0.66406,0 -0.95703,-0.293 -0.27344,-0.3125 -0.27344,-1.0351 0,-0.7227 0.27344,-1.0156 0.29297,-0.3125 0.95703,-0.3125 h 6.71873 q 0.66406,0 0.9375,0.3125 0.29297,0.2929 0.29297,1.0156 0,0.7226 -0.29297,1.0351 -0.27344,0.293 -0.9375,0.293 h -1.48437 l 4.14061,4.4922 4.16015,-4.4922 h -1.07422 q -0.66406,0 -0.95703,-0.293 -0.27343,-0.3125 -0.27343,-1.0351 0,-0.7227 0.27343,-1.0156 0.29297,-0.3125 0.95703,-0.3125 z"
           style="font-family:'Courier Prime';-inkscape-font-specification:'Courier Prime'"
           id="path871" />
        <path
           d="m 1012.3659,2941.1111 q -1.4063,0 -2.0313,-0.2734 -0.6054,-0.293 -0.6054,-0.9571 v -3.5937 q 0,-0.6641 0.6054,-0.9375 0.625,-0.293 2.0313,-0.293 1.4062,0 2.0117,0.293 0.625,0.2734 0.625,0.9375 v 3.5937 q 0,0.6641 -0.625,0.9571 -0.6055,0.2734 -2.0117,0.2734 z m 0,12.3828 q -1.4063,0 -2.0313,-0.2734 -0.6054,-0.293 -0.6054,-0.9571 v -3.5937 q 0,-0.6641 0.6054,-0.9375 0.625,-0.293 2.0313,-0.293 1.4062,0 2.0117,0.293 0.625,0.2734 0.625,0.9375 v 3.5937 q 0,0.6641 -0.625,0.9571 -0.6055,0.2734 -2.0117,0.2734 z"
           style="font-family:'Courier Prime';-inkscape-font-specification:'Courier Prime'"
           id="path873" />
        <path
           d="m 1043.3814,2950.6423 q 0.6641,0 0.9375,0.3125 0.293,0.293 0.293,1.0157 0,0.7226 -0.293,1.0351 -0.2734,0.293 -0.9375,0.293 h -13.164 q -0.6641,0 -0.957,-0.293 -0.2735,-0.3125 -0.2735,-1.0351 0,-0.7227 0.2735,-1.0157 0.2929,-0.3125 0.957,-0.3125 h 5.2539 v -16.7577 l -4.8633,3.0273 q -0.332,0.1953 -0.6054,0.1953 -0.625,0 -1.0743,-0.8008 -0.2734,-0.4687 -0.2734,-0.8984 0,-0.6641 0.6055,-1.0156 l 7.3632,-4.5313 q 0.3907,-0.2343 0.7813,-0.2343 0.4297,0 0.7031,0.2929 0.293,0.2735 0.293,0.7813 v 19.9413 z"
           style="font-family:'Courier Prime';-inkscape-font-specification:'Courier Prime'"
           id="path875" />
        <path
           d="m 1067.2095,2930.115 q 0.6641,0 0.9375,0.3125 0.293,0.293 0.293,1.0157 0,0.4687 -0.1172,0.7812 l -8.3203,20.6054 q -0.1758,0.4493 -0.5664,0.6641 -0.3711,0.2344 -0.8985,0.2344 -0.7031,0 -1.1523,-0.293 -0.4297,-0.2734 -0.4297,-0.7422 0,-0.2734 0.098,-0.4883 l 7.9492,-19.4335 h -9.2578 v 2.8515 q 0,0.6836 -0.3321,0.9766 -0.332,0.293 -1.1328,0.293 -0.8007,0 -1.1328,-0.293 -0.332,-0.293 -0.332,-0.9766 v -4.1796 q 0,-0.7227 0.2734,-1.0157 0.293,-0.3125 0.9571,-0.3125 z"
           style="font-family:'Courier Prime';-inkscape-font-specification:'Courier Prime'"
           id="path877" />
        <path
           d="m 998.16669,2979.4256 q 0.66406,0 0.9375,0.3125 0.29297,0.2929 0.29297,1.0156 0,0.7226 -0.29297,1.0351 -0.27344,0.293 -0.9375,0.293 h -1.21093 l -7.98826,16.3671 q -1.26953,2.5977 -2.48046,4.0821 -1.21094,1.4843 -2.73437,2.1679 -1.50391,0.7032 -3.67187,0.7813 -0.68359,0.019 -1.05468,-0.3516 -0.3711,-0.3515 -0.3711,-1.2695 0,-1.2695 1.03516,-1.3281 1.87499,-0.098 2.96874,-0.625 1.11328,-0.5274 2.03124,-1.8164 0.9375,-1.2696 2.28516,-3.9844 l -7.14842,-14.0234 h -1.23047 q -0.66406,0 -0.95703,-0.293 -0.27344,-0.3125 -0.27344,-1.0351 0,-0.7227 0.27344,-1.0156 0.29297,-0.3125 0.95703,-0.3125 h 6.91405 q 0.66406,0 0.93749,0.3125 0.29297,0.2929 0.29297,1.0156 0,0.7226 -0.29297,1.0351 -0.27343,0.293 -0.93749,0.293 h -2.5 l 5.5078,10.9765 5.25389,-10.9765 h -1.73827 q -0.66406,0 -0.95703,-0.293 -0.27344,-0.3125 -0.27344,-1.0351 0,-0.7227 0.27344,-1.0156 0.29297,-0.3125 0.95703,-0.3125 z"
           style="font-family:'Courier Prime';-inkscape-font-specification:'Courier Prime'"
           id="path879" />
        <path
           d="m 1012.3659,2985.2849 q -1.4063,0 -2.0313,-0.2734 -0.6054,-0.293 -0.6054,-0.957 v -3.5938 q 0,-0.664 0.6054,-0.9375 0.625,-0.293 2.0313,-0.293 1.4062,0 2.0117,0.293 0.625,0.2735 0.625,0.9375 v 3.5938 q 0,0.664 -0.625,0.957 -0.6055,0.2734 -2.0117,0.2734 z m 0,12.3828 q -1.4063,0 -2.0313,-0.2734 -0.6054,-0.293 -0.6054,-0.9571 v -3.5937 q 0,-0.6641 0.6054,-0.9375 0.625,-0.293 2.0313,-0.293 1.4062,0 2.0117,0.293 0.625,0.2734 0.625,0.9375 v 3.5937 q 0,0.6641 -0.625,0.9571 -0.6055,0.2734 -2.0117,0.2734 z"
           style="font-family:'Courier Prime';-inkscape-font-specification:'Courier Prime'"
           id="path881" />
        <path
           d="m 1043.3814,2994.8161 q 0.6641,0 0.9375,0.3125 0.293,0.293 0.293,1.0157 0,0.7226 -0.293,1.0351 -0.2734,0.293 -0.9375,0.293 h -13.164 q -0.6641,0 -0.957,-0.293 -0.2735,-0.3125 -0.2735,-1.0351 0,-0.7227 0.2735,-1.0157 0.2929,-0.3125 0.957,-0.3125 h 5.2539 v -16.7577 l -4.8633,3.0273 q -0.332,0.1953 -0.6054,0.1953 -0.625,0 -1.0743,-0.8008 -0.2734,-0.4687 -0.2734,-0.8984 0,-0.6641 0.6055,-1.0156 l 7.3632,-4.5313 q 0.3907,-0.2343 0.7813,-0.2343 0.4297,0 0.7031,0.2929 0.293,0.2735 0.293,0.7813 v 19.9413 z"
           style="font-family:'Courier Prime';-inkscape-font-specification:'Courier Prime'"
           id="path883" />
        <path
           d="m 1067.3657,2994.8161 q 0.6641,0 0.9375,0.3125 0.293,0.293 0.293,1.0157 0,0.7226 -0.293,1.0351 -0.2734,0.293 -0.9375,0.293 h -13.164 q -0.664,0 -0.957,-0.293 -0.2735,-0.3125 -0.2735,-1.0351 0,-0.7227 0.2735,-1.0157 0.293,-0.3125 0.957,-0.3125 h 5.2539 v -16.7577 l -4.8633,3.0273 q -0.332,0.1953 -0.6054,0.1953 -0.625,0 -1.0742,-0.8008 -0.2735,-0.4687 -0.2735,-0.8984 0,-0.6641 0.6055,-1.0156 l 7.3632,-4.5313 q 0.3907,-0.2343 0.7813,-0.2343 0.4297,0 0.7031,0.2929 0.293,0.2735 0.293,0.7813 v 19.9413 z"
           style="font-family:'Courier Prime';-inkscape-font-specification:'Courier Prime'"
           id="path885" />
        <path
           d="m 989.08469,3023.5994 q 0.66406,0 0.93749,0.3125 0.29297,0.2929 0.29297,1.0156 v 14.0624 h 6.26952 q 0.66406,0 0.93749,0.3125 0.29297,0.293 0.29297,1.0157 0,0.7226 -0.29297,1.0351 -0.27343,0.293 -0.93749,0.293 H 981.2722 q -0.66406,0 -0.95702,-0.293 -0.27344,-0.3125 -0.27344,-1.0351 0,-0.7227 0.27344,-1.0157 0.29296,-0.3125 0.95702,-0.3125 h 6.11327 v -12.7343 h -4.94139 q -0.66406,0 -0.95703,-0.293 -0.27344,-0.3125 -0.27344,-1.0351 0,-0.7227 0.27344,-1.0156 0.29297,-0.3125 0.95703,-0.3125 z m -0.625,-8.5742 q 1.07421,0 1.46484,0.2929 0.39062,0.2735 0.39062,0.9766 v 2.539 q 0,0.7032 -0.39062,0.9961 -0.39063,0.2735 -1.46484,0.2735 -1.07422,0 -1.46484,-0.2735 -0.39063,-0.2929 -0.39063,-0.9961 v -2.539 q 0,-0.7031 0.39063,-0.9766 0.39062,-0.2929 1.46484,-0.2929 z"
           style="font-family:'Courier Prime';-inkscape-font-specification:'Courier Prime'"
           id="path887" />
        <path
           d="m 1019.1823,3016.0213 q 0.664,0 0.9375,0.3125 0.2929,0.2929 0.2929,1.0156 v 21.6405 h 1.6016 q 0.6641,0 0.9375,0.3125 0.293,0.293 0.293,1.0157 0,0.7226 -0.293,1.0351 -0.2734,0.293 -0.9375,0.293 h -3.1055 q -0.664,0 -0.957,-0.293 -0.2734,-0.3125 -0.2734,-1.0351 v -1.5625 q -1.2305,1.6015 -2.8516,2.4609 -1.6211,0.8594 -3.5351,0.8594 -2.4219,0 -4.336,-1.1328 -1.914,-1.1524 -3.0078,-3.2813 -1.0937,-2.1484 -1.0937,-5.039 0,-2.8906 1.0937,-5.0195 1.0938,-2.1485 3.0078,-3.2813 1.9141,-1.1523 4.336,-1.1523 3.6718,0 6.1914,3.2226 v -7.7148 h -3.1641 q -0.6641,0 -0.957,-0.293 -0.2735,-0.3125 -0.2735,-1.0351 0,-0.7227 0.2735,-1.0156 0.2929,-0.3125 0.957,-0.3125 z m -7.6953,10.039 q -1.7383,0 -2.9883,0.8398 -1.25,0.8203 -1.9141,2.3047 -0.6445,1.4844 -0.6445,3.418 0,1.9336 0.6445,3.4179 0.6641,1.4844 1.9141,2.3242 1.25,0.8204 2.9883,0.8204 1.7383,0 3.0859,-0.7813 1.3672,-0.7812 2.1289,-2.2656 0.7813,-1.4844 0.7813,-3.5156 0,-2.0313 -0.7813,-3.5156 -0.7617,-1.4844 -2.1289,-2.2657 -1.3476,-0.7812 -3.0859,-0.7812 z"
           style="font-family:'Courier Prime';-inkscape-font-specification:'Courier Prime'"
           id="path889" />
        <path
           d="m 1036.3502,3029.4587 q -1.4063,0 -2.0313,-0.2734 -0.6054,-0.293 -0.6054,-0.957 v -3.5938 q 0,-0.664 0.6054,-0.9375 0.625,-0.293 2.0313,-0.293 1.4062,0 2.0117,0.293 0.625,0.2735 0.625,0.9375 v 3.5938 q 0,0.664 -0.625,0.957 -0.6055,0.2734 -2.0117,0.2734 z m 0,12.3828 q -1.4063,0 -2.0313,-0.2734 -0.6054,-0.293 -0.6054,-0.9571 v -3.5937 q 0,-0.6641 0.6054,-0.9375 0.625,-0.293 2.0313,-0.293 1.4062,0 2.0117,0.293 0.625,0.2734 0.625,0.9375 v 3.5937 q 0,0.6641 -0.625,0.9571 -0.6055,0.2734 -2.0117,0.2734 z"
           style="font-family:'Courier Prime';-inkscape-font-specification:'Courier Prime'"
           id="path891" />
        <path
           d="m 1059.8658,3018.033 q 2.2461,0 3.9257,0.8007 1.6797,0.7813 2.5977,2.2461 0.918,1.4453 0.918,3.3985 0,1.6796 -0.7813,2.9101 -0.7812,1.2109 -2.207,1.9336 1.7773,0.7422 2.7539,2.168 0.9961,1.4257 0.9961,3.4179 0,2.1289 -0.9571,3.75 -0.9375,1.6211 -2.7539,2.5195 -1.8164,0.8985 -4.3359,0.8985 -1.914,0 -3.8672,-0.6641 -1.9531,-0.664 -3.4961,-1.7969 -0.5859,-0.4296 -0.5859,-0.9765 0,-0.3906 0.332,-0.957 0.5079,-0.8204 1.1329,-0.8204 0.3125,0 0.664,0.254 1.2891,0.957 2.793,1.5234 1.5039,0.5469 3.0273,0.5469 2.4219,0 3.6914,-1.1329 1.2695,-1.1523 1.2695,-3.1445 0,-2.0117 -1.289,-3.0468 -1.2695,-1.0547 -3.5742,-1.0547 h -1.4258 q -0.6641,0 -0.957,-0.293 -0.2735,-0.3125 -0.2735,-1.0351 0,-0.7227 0.2735,-1.0157 0.2929,-0.3125 0.957,-0.3125 h 1.0742 q 2.2266,0 3.3789,-0.9375 1.1523,-0.9375 1.1523,-2.7343 0,-1.6602 -1.1523,-2.5977 -1.1523,-0.957 -3.2617,-0.957 -2.2656,0 -3.8477,0.7617 v 1.3086 q 0,0.6836 -0.332,0.9766 -0.332,0.2929 -1.1328,0.2929 -0.8008,0 -1.1328,-0.2929 -0.332,-0.293 -0.332,-0.9766 v -2.1289 q 0,-0.4297 0.1172,-0.6836 0.1367,-0.2539 0.4101,-0.4297 2.793,-1.7187 6.2305,-1.7187 z"
           style="font-family:'Courier Prime';-inkscape-font-specification:'Courier Prime'"
           id="path893" />
        <path
           d="m 1083.8501,3018.033 q 2.2461,0 3.9257,0.8007 1.6797,0.7813 2.5977,2.2461 0.918,1.4453 0.918,3.3985 0,1.6796 -0.7813,2.9101 -0.7812,1.2109 -2.207,1.9336 1.7773,0.7422 2.7539,2.168 0.9961,1.4257 0.9961,3.4179 0,2.1289 -0.957,3.75 -0.9375,1.6211 -2.7539,2.5195 -1.8164,0.8985 -4.336,0.8985 -1.914,0 -3.8672,-0.6641 -1.9531,-0.664 -3.496,-1.7969 -0.586,-0.4296 -0.586,-0.9765 0,-0.3906 0.3321,-0.957 0.5078,-0.8204 1.1328,-0.8204 0.3125,0 0.664,0.254 1.2891,0.957 2.793,1.5234 1.5039,0.5469 3.0273,0.5469 2.4219,0 3.6914,-1.1329 1.2696,-1.1523 1.2696,-3.1445 0,-2.0117 -1.2891,-3.0468 -1.2695,-1.0547 -3.5742,-1.0547 h -1.4258 q -0.6641,0 -0.957,-0.293 -0.2735,-0.3125 -0.2735,-1.0351 0,-0.7227 0.2735,-1.0157 0.2929,-0.3125 0.957,-0.3125 h 1.0742 q 2.2266,0 3.3789,-0.9375 1.1524,-0.9375 1.1524,-2.7343 0,-1.6602 -1.1524,-2.5977 -1.1523,-0.957 -3.2617,-0.957 -2.2656,0 -3.8476,0.7617 v 1.3086 q 0,0.6836 -0.3321,0.9766 -0.332,0.2929 -1.1328,0.2929 -0.8008,0 -1.1328,-0.2929 -0.332,-0.293 -0.332,-0.9766 v -2.1289 q 0,-0.4297 0.1172,-0.6836 0.1367,-0.2539 0.4101,-0.4297 2.793,-1.7187 6.2305,-1.7187 z"
           style="font-family:'Courier Prime';-inkscape-font-specification:'Courier Prime'"
           id="path895" />
      </g>
    </g>
  </g>
</svg>
