<?xml version="1.0" encoding="UTF-8" standalone="no"?>
<!-- Created with Inkscape (http://www.inkscape.org/) -->

<svg
   width="318.823mm"
   height="434.71042mm"
   viewBox="0 0 318.823 434.71042"
   version="1.1"
   id="svg1857"
   inkscape:version="1.1.1 (1:1.1+202109281949+c3084ef5ed)"
   sodipodi:docname="drawing.svg"
   xmlns:inkscape="http://www.inkscape.org/namespaces/inkscape"
   xmlns:sodipodi="http://sodipodi.sourceforge.net/DTD/sodipodi-0.dtd"
   xmlns="http://www.w3.org/2000/svg"
   xmlns:svg="http://www.w3.org/2000/svg">
  <sodipodi:namedview
     id="namedview1859"
     pagecolor="#ffffff"
     bordercolor="#666666"
     borderopacity="1.0"
     inkscape:pageshadow="2"
     inkscape:pageopacity="0.0"
     inkscape:pagecheckerboard="0"
     inkscape:document-units="mm"
     showgrid="false"
     inkscape:zoom="0.68684764"
     inkscape:cx="511.75833"
     inkscape:cy="707.5805"
     inkscape:window-width="1920"
     inkscape:window-height="1043"
     inkscape:window-x="0"
     inkscape:window-y="0"
     inkscape:window-maximized="1"
     inkscape:current-layer="layer1" />
  <defs
     id="defs1854" />
  <g
     inkscape:label="Layer 1"
     inkscape:groupmode="layer"
     id="layer1"
     transform="translate(30.3648,39.001129)">
    <path
       style="fill:#000000;stroke-width:0.264583"
       d="m 123.88656,394.25851 -4.89479,-1.42153 -3.83646,-1.21488 -3.83645,-1.21492 -4.23334,-1.48087 -4.23333,-1.48085 -5.55625,-2.18355 -5.55625,-2.18353 -4.63021,-2.05208 -4.63021,-2.05208 -5.55625,-2.7785 -5.55625,-2.77852 -3.57187,-1.99501 -3.57188,-1.99501 -3.70416,-2.24613 -3.70417,-2.2461 -4.2423,-2.84821 -4.2423,-2.84819 -4.22437,-3.14418 -4.22436,-3.14415 -3.30729,-2.74481 -3.3073,-2.74479 -3.70416,-3.3619 -3.70417,-3.36187 -3.7071,-3.80074 -3.7071,-3.80077 -2.65369,-3.04271 -2.65369,-3.04271 -1.73389,-2.11666 -1.73389,-2.11667 -2.58805,-3.43958 -2.58806,-3.43959 -3.24444,-4.89479 -3.24443,-4.89479 -2.5533,-4.45498 -2.55329,-4.455 -2.24837,-4.49088 -2.24838,-4.49087 -1.20233,-2.69579 -1.20232,-2.69581 -1.33182,-3.3073 -1.33182,-3.30729 -1.44195,-3.95734 -1.44194,-3.95735 -1.40843,-4.64161 -1.40843,-4.64161 -1.20723,-4.7625 -1.20722,-4.76251 -0.91945,-4.49791 -0.91944,-4.49792 -0.67188,-4.10104 -0.67188,-4.10104 -0.52957,-4.23334 -0.52956,-4.23333 -0.40597,-4.49792 -0.40596,-4.49791 -0.26318,-5.02709 -0.26318,-5.02708 -0.001,-121.906775 -10e-4,-121.906774 h 159.41154 159.41145 l -0.003,119.790107 -0.003,119.790112 -0.2639,6.35 -0.26389,6.35 -0.41132,4.89479 -0.41132,4.89479 -0.64416,5.11165 -0.64415,5.11164 -0.67546,3.99111 -0.67543,3.9911 -0.93135,4.52329 -0.93134,4.52329 -1.15477,4.49792 -1.15475,4.49792 -1.32739,4.36562 -1.32741,4.36563 -1.18155,3.30729 -1.18155,3.30729 -0.92483,2.40626 -0.92482,2.40622 -1.51233,3.5469 -1.51231,3.54687 -1.90188,3.96875 -1.90185,3.96875 -2.33614,4.23334 -2.33613,4.23333 -2.38625,3.83646 -2.38626,3.83646 -2.38458,3.43958 -2.38458,3.43958 -1.92657,2.55101 -1.92659,2.55101 -2.67216,3.26117 -2.67215,3.2612 -3.00009,3.31592 -3.00008,3.31594 -4.19554,4.10927 -4.19554,4.1093 -3.175,2.77297 -3.175,2.77296 -2.64583,2.13572 -2.64583,2.13572 -3.64435,2.71176 -3.64434,2.71177 -4.49013,3.00974 -4.49012,3.00974 -4.88608,2.91852 -4.88608,2.91848 -5.2357,2.77395 -5.2357,2.77392 -5.68854,2.61585 -5.68855,2.61586 -3.64447,1.50902 -3.64447,1.50903 -4.55761,1.72585 -4.55761,1.72587 -5.82083,1.93628 -5.82084,1.9363 -6.10528,1.74511 -6.10529,1.74514 -0.11242,-0.0145 -0.11242,-0.0145 -4.8948,-1.4215 z m 11.77835,-12.85539 6.04952,-1.87076 5.53244,-1.98078 5.53244,-1.98078 4.80206,-1.93638 4.80207,-1.93638 3.87054,-1.7355 3.87054,-1.73551 5.82537,-2.915 5.82538,-2.91499 4.42112,-2.5351 4.42113,-2.53514 3.21317,-2.00998 3.21316,-2.01002 2.91042,-2.0035 2.91042,-2.00348 2.92781,-2.15762 2.92781,-2.1576 2.89302,-2.33183 2.89302,-2.33182 3.0146,-2.64975 3.01459,-2.64975 3.17989,-3.05972 3.1799,-3.05972 3.16584,-3.43959 3.16585,-3.43958 2.43004,-2.91042 2.43004,-2.91041 2.12418,-2.77813 2.12421,-2.77812 1.83766,-2.64584 1.83767,-2.64583 2.26428,-3.57188 2.26427,-3.57187 1.93615,-3.43958 1.93614,-3.43959 2.31195,-4.69275 2.31196,-4.69276 1.71691,-4.04545 1.7169,-4.04548 1.63089,-4.48464 1.6309,-4.48466 1.32921,-4.37192 1.32921,-4.37192 1.14165,-4.49792 1.14168,-4.49792 0.8128,-3.96875 0.8128,-3.96875 0.65439,-3.83645 0.65443,-3.83646 0.67545,-5.42396 0.67545,-5.42396 0.40093,-4.89479 0.40092,-4.89479 0.25921,-8.06979 0.25922,-8.0698 0.004,-110.794272 0.004,-110.794273 H 128.91365 -18.45927 l 0.001,115.027607 10e-4,115.027608 0.26511,5.02708 0.26511,5.02709 0.40817,4.63021 0.40818,4.6302 0.53352,4.23334 0.53352,4.23333 0.78612,4.63021 0.78612,4.63021 1.07903,5.02708 1.07903,5.02708 1.43046,5.15938 1.43045,5.15938 1.22107,3.70416 1.22107,3.70417 1.71605,4.48437 1.71606,4.48437 1.96609,4.37917 1.96608,4.37917 2.06848,3.96875 2.06847,3.96875 1.92108,3.30729 1.92109,3.3073 2.69714,4.10104 2.69715,4.10104 2.77889,3.70417 2.7789,3.70416 2.65759,3.175 2.65759,3.175 3.82234,4.10105 3.82234,4.10104 4.08239,3.75025 4.08238,3.75029 2.91042,2.43348 2.91042,2.43348 4.6788,3.5117 4.6788,3.51169 4.18474,2.76 4.18474,2.76003 3.57187,2.12473 3.57188,2.12476 2.64583,1.45392 2.64583,1.45391 2.77813,1.47169 2.77812,1.47169 4.63021,2.16773 4.63021,2.16773 4.49792,1.92048 4.49791,1.92045 5.68855,2.12024 5.68854,2.12024 4.89479,1.61676 4.89479,1.61677 3.43958,1.04449 3.43959,1.0445 0.68159,0.0167 0.6816,0.0167 6.04953,-1.87077 z m -11.28928,-18.90485 -4.59011,-1.64409 -4.63021,-1.76766 -4.6302,-1.76763 -6.61459,-2.81855 -6.61458,-2.81853 -7.67292,-3.86286 -7.67291,-3.86287 -3.96875,-2.33592 -3.96875,-2.3359 -4.23334,-2.7772 -4.23333,-2.7772 -3.43958,-2.56241 -3.43959,-2.56239 -3.175,-2.64593 -3.175,-2.64594 -2.9079,-2.76183 -2.90791,-2.76185 -2.82161,-2.96754 -2.82162,-2.96754 -2.16991,-2.58871 -2.16992,-2.58871 -2.57941,-3.43959 -2.57941,-3.43958 -2.37505,-3.57188 -2.37505,-3.57187 -2.1257,-3.57807 -2.1257,-3.57806 -2.26711,-4.26898 -2.26711,-4.26894 -2.29878,-4.85299 -2.29877,-4.85296 -2.70845,-6.35 -2.70846,-6.35 -2.26851,-5.82084 -2.26851,-5.82083 -1.18129,-3.175 -1.18128,-3.175 0.0774,-0.0824 0.0774,-0.0824 24.7842,18.43109 24.78419,18.43109 0.0907,-0.0925 0.0907,-0.0925 -15.44122,-37.56189 -15.44122,-37.56191 0.0758,-0.0758 0.0758,-0.0758 29.85485,28.57398 29.85485,28.57394 0.0656,-0.0656 0.0656,-0.0656 -11.75399,-50.66384 -11.75399,-50.66384 0.071,-0.21313 0.071,-0.21313 27.62829,46.30871 27.6283,46.30869 0.0744,-0.0744 0.0745,-0.0745 8.47143,-61.21172 8.47143,-61.21171 0.0743,-0.0744 0.0744,-0.0743 8.43188,61.03517 8.43188,61.03518 0.19047,0.21323 0.19049,0.21322 27.61992,-46.29584 27.61992,-46.29584 0.0678,0.0678 0.0678,0.0678 -11.77705,50.76994 -11.77706,50.76993 0.0686,0.17775 0.0686,0.17775 29.76562,-28.50703 29.76563,-28.50705 0.0713,0.17415 0.0713,0.17415 -15.36544,37.38649 -15.36544,37.38647 0.10391,0.10393 0.10392,0.1039 24.71518,-18.37663 24.71517,-18.37664 0.0716,0.2014 0.0715,0.20138 -2.48716,6.59841 -2.48716,6.59842 -1.87449,4.67612 -1.87452,4.67614 -2.27894,5.24573 -2.27893,5.24576 -3.1405,6.35 -3.1405,6.35 -2.42737,4.23334 -2.42737,4.23333 -2.77934,4.23333 -2.77935,4.23334 -2.5659,3.44609 -2.5659,3.44609 -2.74702,3.30078 -2.74703,3.30079 -4.77391,4.76916 -4.77391,4.7692 -3.43959,2.868 -3.43958,2.86803 -3.43958,2.58424 -3.43959,2.58427 -4.6414,3.05517 -4.64142,3.05517 -5.14817,2.93872 -5.14817,2.93873 -5.82084,2.87544 -5.82083,2.87541 -3.43958,1.51175 -3.43959,1.51178 -4.10104,1.70825 -4.10104,1.70826 -5.55625,2.08166 -5.55625,2.08169 -3.34739,1.16523 -3.34739,1.16522 z m 130.0828,-170.16686 -1.05833,-0.0889 -2.60527,-0.41637 -2.60527,-0.41638 -2.42181,-0.73967 -2.42181,-0.73967 -4.8948,-1.85865 -4.89479,-1.85865 -1.85208,-0.54666 -1.85208,-0.54666 -1.98438,-0.42182 -1.98437,-0.42183 -3.03266,-0.38133 -3.03265,-0.38133 h -4.54608 -4.54609 l -2.70496,0.27758 -2.70497,0.27759 -0.13496,-0.13497 -0.13497,-0.13496 2.37092,-10.12392 2.37093,-10.12391 0.63941,-0.17879 0.63941,-0.17879 3.70417,-0.0255 3.70416,-0.0255 3.04271,0.27783 3.04271,0.27782 3.30729,0.66219 3.30729,0.66219 3.70417,1.28885 3.70417,1.28886 4.23333,1.46137 4.23333,1.46138 1.98438,0.4114 1.98437,0.4114 3.50573,0.3128 3.50573,0.31279 v 10.26903 10.26904 l -1.25677,-0.0445 -1.25677,-0.0445 -1.05834,-0.0889 z m -168.57248,-9.8429 -5.74269,-9.69067 -0.34047,-0.52917 -0.34047,-0.52917 5.60952,-0.009 5.60952,-0.009 2.38125,-0.44334 2.38125,-0.44333 2.31501,-0.6713 2.31501,-0.6713 4.67063,-1.74086 4.67063,-1.74087 1.54717,-0.48153 1.54717,-0.48154 v 0.27991 0.2799 l -1.32631,9.94496 -1.32631,9.94495 -0.13678,0.60664 -0.13678,0.60665 -0.32285,0.10455 -0.32284,0.10455 -4.7912,1.72674 -4.7912,1.72674 -1.98829,0.54548 -1.98828,0.54548 -1.87501,0.35726 -1.875,0.35727 -5.74268,-9.69068 z m -86.35355,-1.0515 v -10.35897 h 2.3621 2.36211 l 2.05781,-0.28621 2.05781,-0.28622 2.49097,-0.6472 2.49096,-0.64721 5.59068,-2.0811 5.59069,-2.08109 3.18114,-0.79882 3.18115,-0.79881 3.52392,-0.44853 3.52392,-0.44853 4.84975,0.096 4.84975,0.096 0.1258,0.13095 0.1258,0.13094 2.38093,10.45104 2.38094,10.45105 -0.0885,0.094 -0.0885,0.094 -4.71265,-0.62312 -4.71264,-0.62312 -3.175,0.064 -3.175,0.064 -3.01464,0.41344 -3.01464,0.41344 -3.04828,0.78597 -3.04829,0.78597 -3.85895,1.47005 -3.85895,1.47006 -2.61659,0.92674 -2.61659,0.92674 -2.80737,0.64678 -2.80737,0.64677 -3.24115,0.16499 -3.24114,0.165 z m 163.24791,9.85195 -1.71979,-0.37345 -1.32292,-0.41372 -1.32291,-0.41372 -5.22552,-1.893 -5.22552,-1.893 -0.0116,-0.26983 -0.0116,-0.26982 -1.26857,-10.45104 -1.26856,-10.45104 0.0434,-0.0642 0.0434,-0.0642 2.62578,0.89507 2.62577,0.89507 3.30729,1.25483 3.30729,1.25483 2.64583,0.76823 2.64584,0.76824 2.51354,0.43003 2.51354,0.43003 5.36024,0.016 5.36025,0.016 -0.0686,0.1677 -0.0686,0.16769 -6.07655,9.95991 -6.07655,9.95989 -0.80261,-0.0266 -0.80261,-0.0266 z m -84.66666,-35.56077 -2.77813,-0.49046 -2.24895,-0.70843 -2.24896,-0.70843 -3.70417,-1.45317 -3.70417,-1.45318 -2.24895,-0.7751 -2.24896,-0.77509 -2.51354,-0.63696 -2.51355,-0.63695 -3.0427,-0.46531 -3.04271,-0.46531 h -5.55625 -5.55625 l -3.04271,0.46531 -3.04271,0.46531 -2.51354,0.63695 -2.51354,0.63696 -2.24896,0.77247 -2.24896,0.77247 -3.07377,1.19719 -3.07378,1.19718 -2.48247,0.79493 -2.48248,0.79493 -2.24896,0.42953 -2.24896,0.42953 -2.97656,0.16259 -2.97656,0.16259 v -10.35922 -10.35923 h 2.22981 2.22981 l 2.06967,-0.27794 2.06967,-0.27794 2.94203,-0.77472 2.94203,-0.77473 4.07721,-1.56321 4.0772,-1.56322 2.24118,-0.70862 2.24118,-0.70862 2.16933,-0.50642 2.16933,-0.50643 3.12233,-0.42281 3.12234,-0.42281 5.55625,0.002 5.55625,0.002 3.175,0.42588 3.175,0.42589 2.77813,0.67971 2.77812,0.67971 3.70417,1.3201 3.70417,1.32009 3.30729,1.15333 3.30729,1.15333 2.64583,0.56284 2.64584,0.56283 5.16793,0.14232 5.16792,0.14232 2.3169,-0.30832 2.3169,-0.30832 2.43705,-0.61963 2.43705,-0.61963 5.68854,-2.11988 5.68854,-2.11989 3.39094,-0.84772 3.39095,-0.84772 0.0808,0.0927 0.0808,0.0927 -0.73502,5.29167 -0.73501,5.29167 -0.72636,5.35781 -0.72637,5.35781 -0.42287,0.007 -0.42287,0.007 -3.43958,1.15379 -3.43959,1.15378 -3.83646,1.46595 -3.83645,1.46595 -2.11667,0.55872 -2.11667,0.55872 -2.51354,0.38484 -2.51354,0.38485 -4.63021,-0.0198 -4.63021,-0.0198 -2.77812,-0.49045 z m 87.97395,0.35102 -0.79375,-0.10288 -2.11666,-0.41333 -2.11667,-0.41332 -2.51354,-0.80035 -2.51354,-0.80034 -4.10104,-1.57206 -4.10105,-1.57207 -2.50678,-0.74244 -2.50679,-0.74244 -1.38252,-9.8892 -1.38252,-9.88919 -0.0133,-0.56783 -0.0133,-0.56782 2.4474,0.52982 2.44739,0.52983 3.3073,1.13559 3.30729,1.13559 4.17081,1.47783 4.17083,1.47782 2.67526,0.54518 2.67526,0.54519 3.60496,0.26013 3.60496,0.26013 3.49661,-0.27671 3.49662,-0.2767 2.98568,-0.75762 2.98567,-0.75763 4.10104,-1.51647 4.10105,-1.51647 2.77812,-0.92117 2.77813,-0.92117 2.38125,-0.5228 2.38125,-0.5228 3.03265,-0.37815 3.03265,-0.37815 4.90485,2.7e-4 4.90485,2.6e-4 3.56597,0.41491 3.56597,0.41491 3.44549,0.8862 3.44548,0.88619 3.30729,1.23617 3.30729,1.23618 3.00713,1.02648 3.00712,1.02648 2.42903,0.52627 2.42901,0.52627 2.23679,0.15494 2.23676,0.15494 1.12448,0.13655 1.12448,0.13654 v 10.17025 10.17024 h -1.96522 -1.96525 l -2.06965,-0.27794 -2.06968,-0.27794 -2.91041,-0.77107 -2.91042,-0.77107 -3.175,-1.23452 -3.175,-1.23452 -3.70417,-1.27177 -3.70416,-1.27178 -2.64583,-0.53362 -2.64584,-0.53363 -2.38125,-0.3126 -2.38125,-0.31261 -5.42396,-0.004 -5.42395,-0.004 -3.12665,0.44852 -3.12666,0.44852 -2.95876,0.75048 -2.95877,0.75048 -3.70416,1.38199 -3.70417,1.38198 -3.70417,1.29123 -3.70416,1.29122 -3.13515,0.53344 -3.13512,0.53353 -4.67006,-0.0396 -4.67007,-0.0396 z M -0.4676,110.26409 V 99.905128 h 2.3621 2.36211 l 2.05781,-0.28622 2.05781,-0.28621 2.49097,-0.64721 2.49096,-0.64721 5.59068,-2.0819 5.59069,-2.08191 3.30729,-0.81754 3.30729,-0.81754 3.1224,-0.400465 3.12241,-0.400465 h 5.39685 5.39686 l 3.1224,0.400465 3.12241,0.400465 3.30729,0.81811 3.30729,0.8181 5.68855,2.06164 5.68854,2.06164 1.99414,0.55425 1.99415,0.55426 2.63606,0.39731 2.63606,0.39731 4.67007,0.002 4.67006,0.002 3.0756,-0.5258 3.07561,-0.5258 3.36683,-1.16586 3.36683,-1.16587 3.64303,-1.35694 3.64303,-1.35695 2.97156,-0.76356 2.97155,-0.763565 3.26542,-0.421159 3.26542,-0.421161 h 5.38613 5.38614 l 3.1224,0.400466 3.1224,0.400465 3.3073,0.816324 3.30729,0.81632 5.02708,1.85938 5.02708,1.85938 2.58463,0.75188 2.58462,0.75188 2.96124,0.43427 2.96123,0.43426 5.43435,-0.13439 5.43435,-0.1344 1.98438,-0.43677 1.98437,-0.43677 4.10104,-1.41792 4.10104,-1.41791 3.43959,-1.23392 3.43958,-1.23392 2.64583,-0.63472 2.64584,-0.634724 3.1224,-0.404591 3.12241,-0.40459 5.34426,0.0021 5.34426,0.0021 2.38125,0.267454 2.38125,0.267454 2.87629,0.567608 2.87628,0.567609 4.39976,1.51845 4.39975,1.51844 3.43959,1.19326 3.43958,1.19326 2.64583,0.5712 2.64583,0.57119 3.175,0.17935 3.175,0.179352 0.0693,10.2526 0.0693,10.2526 -2.05364,-0.002 -2.05362,-0.002 -2.64583,-0.39716 -2.64583,-0.39715 -2.38125,-0.68082 -2.38125,-0.68081 -4.36563,-1.66865 -4.36562,-1.66865 -2.64583,-0.84512 -2.64584,-0.84513 -2.38125,-0.49218 -2.38125,-0.49219 -2.24896,-0.32425 -2.24895,-0.32425 h -5.82084 -5.82083 l -2.24896,0.32425 -2.24896,0.32425 -2.38431,0.49164 -2.38431,0.49164 -3.02043,0.97644 -3.02043,0.97644 -3.64047,1.41932 -3.64048,1.41931 -2.66981,0.79314 -2.66982,0.79315 -2.96881,0.43537 -2.9688,0.43538 -4.89533,-0.12232 -4.89533,-0.12232 -3.175,-0.72281 -3.175,-0.72281 -4.89479,-1.8604 -4.89479,-1.86041 -2.67882,-0.88852 -2.67881,-0.88852 -3.27431,-0.65733 -3.27431,-0.65733 -3.96875,-0.30786 -3.96875,-0.30786 -3.57188,0.17743 -3.57187,0.17744 -2.89257,0.3997 -2.89256,0.39969 -2.95338,0.7615 -2.95338,0.7615 -5.93657,2.24493 -5.93656,2.24494 -2.63728,0.66283 -2.63728,0.66284 -2.06967,0.28242 -2.06967,0.28242 h -3.8495 -3.8495 l -2.76207,-0.41013 -2.76207,-0.41013 -2.29393,-0.66475 -2.29392,-0.66475 -5.69359,-2.13317 -5.69358,-2.13317 -2.95877,-0.74907 -2.95876,-0.74909 -3.12666,-0.45584 -3.12665,-0.45585 h -5.68854 -5.68854 l -3.14693,0.45865 -3.14693,0.45865 -3.04828,0.78597 -3.04829,0.78597 -3.85895,1.47006 -3.85895,1.47006 -2.61659,0.92673 -2.61659,0.92674 -2.80737,0.64678 -2.80737,0.64678 -3.24115,0.16499 -3.24114,0.16499 V 110.26395 Z M 36.17719,81.235018 35.38344,81.12628 32.60532,80.829904 29.82719,80.533531 26.38725,79.672839 22.94731,78.812146 20.36481,77.733086 17.78232,76.654025 15.64174,75.381136 13.50117,74.108249 11.21314,72.224569 8.92511,70.340889 7.55869,68.646788 6.19228,66.95269 5.21516,65.503385 4.23804,64.054082 3.33197,62.257958 2.4259,60.461831 1.61844,58.051734 0.81099,55.641634 0.25491,53.100983 -0.30116,50.560332 -0.39476,19.93481 -0.48836,-10.690712 H 10.0935 20.67537 l 0.0982,29.170314 0.0982,29.170313 0.42943,1.719792 0.42943,1.719791 0.53609,1.544008 0.53609,1.544008 0.85623,1.498701 0.85622,1.4987 1.75796,1.735582 1.75795,1.735585 1.97169,0.974228 1.97169,0.97423 2.10132,0.578027 2.10131,0.578027 h 4.63021 4.63021 l 2.11666,-0.575662 2.11667,-0.575661 1.97212,-0.967328 1.97212,-0.967324 1.87044,-1.877145 1.87045,-1.877142 0.98391,-1.999726 0.98392,-1.999726 0.59448,-2.101316 0.59449,-2.101316 0.0767,-29.831771 0.0768,-29.831772 h 10.72345 10.72344 l -0.11008,29.831772 -0.11009,29.831771 -0.40314,2.116667 -0.40313,2.116667 -0.60256,2.248958 -0.60257,2.248959 -0.85418,2.037881 -0.85418,2.037885 -0.97079,1.735923 -0.97078,1.735923 -1.5761,2.09164 -1.5761,2.091643 -1.8989,1.758092 -1.8989,1.758093 -2.32859,1.557565 -2.32858,1.557565 -1.97349,0.936501 -1.97348,0.936501 -1.66688,0.624657 -1.66688,0.624658 -2.64584,0.687398 -2.64583,0.687398 -2.77812,0.418893 -2.77813,0.418891 -4.7625,0.103574 -4.7625,0.103574 z m 185.22516,-0.135662 -2.62901,-0.250878 -3.26236,-0.660554 -3.26236,-0.660556 -2.53132,-0.810853 -2.53133,-0.810855 -2.07484,-0.888069 -2.07484,-0.888068 -2.17379,-1.253842 -2.17379,-1.253839 -2.14534,-1.579349 -2.14535,-1.579345 -2.38125,-2.412056 -2.38125,-2.412053 -1.19062,-1.655241 -1.19063,-1.655241 -1.25258,-2.047656 -1.25257,-2.047652 -1.17832,-2.778125 -1.17831,-2.778126 -0.66198,-2.28954 -0.66198,-2.28954 -0.39932,-1.943793 -0.39932,-1.943793 -0.31376,-2.38125 -0.31376,-2.381251 0.004,-4.894791 0.004,-4.894792 0.44034,-2.910417 0.44034,-2.910417 0.76803,-2.910416 0.76804,-2.910417 0.92515,-2.293742 0.92515,-2.293742 0.79475,-1.574387 0.79475,-1.57439 1.91878,-2.878746 1.91878,-2.878743 3.05575,-3.057343 3.05575,-3.057345 3.0509,-2.02673 3.0509,-2.026732 3.03451,-1.438936 3.03452,-1.438937 3.04271,-0.943779 3.04271,-0.943782 2.64583,-0.519605 2.64583,-0.519607 3.17156,-0.318469 3.17156,-0.318471 5.16281,0.156229 5.16282,0.156228 2.64583,0.418553 2.64584,0.418549 2.38125,0.555033 2.38125,0.555032 2.64583,0.917297 2.64583,0.917295 2.71198,1.278414 2.71198,1.278413 v 0.33963 0.33963 l -1.49929,8.608465 -1.49931,8.608468 -0.17404,0.204896 -0.17402,0.204898 -2.01933,-1.331391 -2.01932,-1.331391 -2.88333,-1.449377 -2.88332,-1.44938 -3.14746,-1.046675 -3.14745,-1.046676 -2.81207,-0.412348 -2.8121,-0.412348 -2.61187,0.0016 -2.61188,0.0016 -2.51354,0.381127 -2.51354,0.381124 -1.75649,0.544891 -1.75648,0.544888 -1.50894,0.667327 -1.50894,0.667327 -1.49217,0.954527 -1.49217,0.954527 -1.29243,1.088591 -1.29244,1.088593 -1.57066,1.951223 -1.57066,1.951226 -1.14516,2.282108 -1.14517,2.28211 -0.67397,2.136225 -0.67397,2.136225 -0.43461,2.2294 -0.43462,2.2294 -0.14958,3.704167 -0.14959,3.704167 0.32179,2.764631 0.32179,2.764634 0.65284,2.527033 0.65284,2.527036 1.39889,2.910416 1.3989,2.910417 1.618,2.029865 1.61799,2.029865 1.59912,1.330798 1.59912,1.330799 1.82689,1.085337 1.8269,1.085339 2.47419,0.8822 2.4742,0.882201 2.49402,0.426487 2.49402,0.426484 h 3.24153 3.24152 l 2.06965,-0.287075 2.06968,-0.287073 2.91042,-0.752047 2.91041,-0.752043 2.48007,-0.949069 2.4801,-0.949065 2.97175,-1.450489 2.97177,-1.450488 0.99531,-0.675444 0.99534,-0.675444 0.0584,0.07922 0.0584,0.07922 1.36583,8.089025 1.36583,8.089022 v 0.377645 0.377642 l -2.18199,1.218801 -2.18199,1.2188 -1.87675,0.823079 -1.87674,0.823077 -2.11413,0.779502 -2.11412,0.779502 -3.28518,0.808649 -3.28517,0.808646 -2.77812,0.413319 -2.77813,0.413316 -4.7625,0.106812 -4.7625,0.106815 -2.629,-0.250878 z M 100.07406,34.689612 v -45.15338 l 18.71927,0.1172 18.71928,0.1172 2.49998,0.430961 2.49998,0.430959 2.43597,0.648359 2.43598,0.648358 2.0755,0.801802 2.0755,0.801798 1.98438,1.171446 1.98437,1.171445 1.45256,1.250445 1.45257,1.250442 1.27417,1.587653 1.27418,1.587656 0.92985,1.846422 0.92984,1.846421 0.5514,2.020266 0.5514,2.020266 0.0159,3.836458 0.0159,3.836459 -0.4721,1.697236 -0.4721,1.697233 -0.79121,1.622719 -0.7912,1.622718 -1.27995,1.707129 -1.27994,1.707132 -1.68062,1.361257 -1.68063,1.361255 -1.69009,1.00648 -1.69009,1.00648 0.63176,0.26106 0.63175,0.261059 1.90397,0.882218 1.90396,0.882216 1.97663,1.322052 1.97664,1.322054 1.839,1.969193 1.83901,1.969191 1.0765,2.069161 1.07649,2.069158 0.59812,2.241082 0.59812,2.241084 -0.005,3.836458 -0.005,3.836459 -0.57491,2.32869 -0.5749,2.328691 -0.9216,1.994675 -0.9216,1.994673 -1.16578,1.629762 -1.16577,1.629759 -1.55239,1.471094 -1.55238,1.471094 -1.58749,1.072915 -1.5875,1.072914 -2.11667,1.060622 -2.11667,1.060622 -1.85208,0.660472 -1.85208,0.660468 -2.91042,0.687396 -2.91042,0.687393 -3.04271,0.441208 -3.0427,0.441212 -18.3224,0.119501 -18.32239,0.119502 V 34.689612 Z m 32.41146,29.764237 3.175,-0.249685 2.07485,-0.533461 2.07485,-0.533458 1.69743,-0.835644 1.69743,-0.835641 1.35981,-1.338522 1.3598,-1.338525 0.64893,-1.417457 0.64894,-1.417461 0.29142,-1.70131 0.29142,-1.701311 -0.28621,-1.986708 -0.28622,-1.986709 -0.69489,-1.420305 -0.69489,-1.420304 -1.37469,-1.37469 -1.37469,-1.374691 -1.871,-0.899914 -1.87099,-0.899914 -2.24252,-0.572744 -2.24253,-0.572743 -7.0776,-0.127101 -7.07761,-0.1271 V 52.251996 64.71554 l 4.29948,-0.006 4.29948,-0.006 3.175,-0.249684 z m 2.75479,-39.532455 1.69646,-0.436354 1.74312,-0.831614 1.74313,-0.831615 1.36542,-1.398042 1.36542,-1.39804 0.58986,-1.533742 0.58987,-1.533739 0.0116,-2.116667 0.0116,-2.116667 -0.3168,-1.099963 -0.31681,-1.09996 -0.8563,-1.274792 -0.8563,-1.274791 -1.38479,-0.964134 -1.3848,-0.964134 -1.7902,-0.565131 -1.79021,-0.565129 -1.85208,-0.257929 -1.85208,-0.257929 -5.6224,-0.0052 -5.62238,-0.0052 v 10.610472 10.610472 l 6.41615,-0.126868 6.41615,-0.126868 z"
       id="path1820" />
  </g>
</svg>
