<?xml version="1.0" encoding="UTF-8" standalone="no"?>
<!-- Created with Inkscape (http://www.inkscape.org/) -->

<svg
   width="300.99637"
   height="90.706772"
   viewBox="0 0 79.638621 23.9995"
   version="1.1"
   id="svg5"
   xml:space="preserve"
   sodipodi:docname="amazon.svg"
   inkscape:version="1.2.2 (b0a8486541, 2022-12-01)"
   xmlns:inkscape="http://www.inkscape.org/namespaces/inkscape"
   xmlns:sodipodi="http://sodipodi.sourceforge.net/DTD/sodipodi-0.dtd"
   xmlns:xlink="http://www.w3.org/1999/xlink"
   xmlns="http://www.w3.org/2000/svg"
   xmlns:svg="http://www.w3.org/2000/svg"><sodipodi:namedview
     id="namedview5126"
     pagecolor="#ffffff"
     bordercolor="#cccccc"
     borderopacity="1"
     inkscape:showpageshadow="0"
     inkscape:pageopacity="1"
     inkscape:pagecheckerboard="0"
     inkscape:deskcolor="#d1d1d1"
     showgrid="false"
     inkscape:zoom="4.352212"
     inkscape:cx="95.124043"
     inkscape:cy="45.264339"
     inkscape:window-width="2560"
     inkscape:window-height="1403"
     inkscape:window-x="1920"
     inkscape:window-y="0"
     inkscape:window-maximized="1"
     inkscape:current-layer="svg5" /><defs
     id="defs2" /><g
     id="layer1"
     transform="translate(-63.245605,-1613.4529)"
     style="fill:#ffffff"><g
       id="g1326"
       style="fill:#ffffff"><path
         d="m 112.65215,1632.2212 c -4.62795,3.4112 -11.3359,5.2312 -17.111328,5.2312 -8.098068,0 -15.38841,-2.9952 -20.903838,-7.9768 -0.433331,-0.3916 -0.04508,-0.9256 0.474927,-0.6205 5.952222,3.4632 13.311901,5.5466 20.914242,5.5466 5.127157,0 10.767387,-1.0608 15.953477,-3.2621 0.78346,-0.3328 1.43866,0.5131 0.67252,1.0816"
         id="path8"
         style="fill:#ffffff;stroke-width:0.132229" /><path
         d="m 114.57615,1630.0199 c -0.58933,-0.7557 -3.91037,-0.3571 -5.40103,-0.1803 -0.45413,0.056 -0.52346,-0.3397 -0.1144,-0.624 2.64505,-1.8616 6.98528,-1.3242 7.49141,-0.7002 0.50612,0.6275 -0.13173,4.9781 -2.61732,7.0546 -0.38133,0.3189 -0.74532,0.1491 -0.57545,-0.2739 0.55812,-1.3936 1.80958,-4.517 1.21679,-5.2762"
         id="path10"
         style="fill:#ffffff;stroke-width:0.132229" /><path
         d="m 109.27912,1616.0736 v -1.8096 c 0,-0.2738 0.208,-0.4576 0.4576,-0.4576 h 8.10153 c 0.26,0 0.468,0.1872 0.468,0.4576 v 1.5496 c -0.004,0.26 -0.22187,0.5997 -0.61013,1.1371 l -4.1981,5.9938 c 1.55999,-0.038 3.20664,0.1941 4.62103,0.9915 0.31893,0.1803 0.40559,0.4437 0.42987,0.7037 v 1.9309 c 0,0.2634 -0.29121,0.572 -0.59627,0.4125 -2.49252,-1.3069 -5.80315,-1.449 -8.55913,0.014 -0.2808,0.1526 -0.57547,-0.1525 -0.57547,-0.4159 v -1.8339 c 0,-0.2947 0.003,-0.7974 0.29813,-1.2445 l 4.86371,-6.9749 h -4.23277 c -0.26,0 -0.468,-0.1838 -0.468,-0.4541"
         id="path12"
         style="fill:#ffffff;stroke-width:0.132229" /><path
         d="m 79.726012,1627.3644 h -2.464781 c -0.23573,-0.017 -0.422932,-0.194 -0.440263,-0.4194 v -12.6498 c 0,-0.2531 0.211465,-0.4541 0.474926,-0.4541 h 2.298384 c 0.239199,0.011 0.429863,0.1942 0.4472,0.4229 v 1.6536 h 0.04508 c 0.599728,-1.5982 1.726383,-2.3434 3.244774,-2.3434 1.542655,0 2.506382,0.7452 3.199711,2.3434 0.596259,-1.5982 1.951718,-2.3434 3.40424,-2.3434 1.033059,0 2.163182,0.4264 2.853043,1.3832 0.779994,1.0642 0.620528,2.6104 0.620528,3.9658 l -0.0035,7.9836 c 0,0.2531 -0.211466,0.4576 -0.474932,0.4576 H 90.46911 c -0.24613,-0.017 -0.443732,-0.2148 -0.443732,-0.4576 v -6.7045 c 0,-0.5338 0.04853,-1.8649 -0.06933,-2.3711 -0.183729,-0.8493 -0.734924,-1.0885 -1.449053,-1.0885 -0.596265,0 -1.220261,0.3987 -1.473323,1.0365 -0.253066,0.6378 -0.228802,1.7056 -0.228802,2.4231 v 6.7045 c 0,0.2531 -0.211461,0.4576 -0.474927,0.4576 H 83.86863 c -0.249598,-0.017 -0.443731,-0.2148 -0.443731,-0.4576 l -0.0035,-6.7045 c 0,-1.4108 0.232266,-3.4873 -1.518385,-3.4873 -1.771458,0 -1.702125,2.0245 -1.702125,3.4873 v 6.7045 c 0,0.2531 -0.211466,0.4576 -0.474927,0.4576"
         id="path14"
         style="fill:#ffffff;stroke-width:0.132229" /><path
         d="m 125.28113,1613.5742 c 3.6573,0 5.63676,3.1408 5.63676,7.1343 0,3.8583 -2.18745,6.9195 -5.63676,6.9195 -3.59144,0 -5.54662,-3.1408 -5.54662,-7.0547 0,-3.9381 1.97945,-6.9991 5.54662,-6.9991 m 0.0208,2.5826 c -1.81652,0 -1.93092,2.4752 -1.93092,4.0179 0,1.5461 -0.0242,4.8463 1.91012,4.8463 1.91012,0 2.00025,-2.6623 2.00025,-4.2847 0,-1.0678 -0.0451,-2.3435 -0.36746,-3.3557 -0.27734,-0.8806 -0.82853,-1.2238 -1.61199,-1.2238"
         id="path16"
         style="fill:#ffffff;stroke-width:0.132229" /><path
         d="m 135.66025,1627.3644 h -2.45439 c -0.24613,-0.017 -0.44373,-0.2148 -0.44373,-0.4576 l -0.004,-12.6532 c 0.0208,-0.2322 0.22533,-0.4125 0.47492,-0.4125 h 2.28452 c 0.21493,0.011 0.39173,0.156 0.44027,0.3536 v 1.9344 h 0.0451 c 0.68987,-1.7298 1.65705,-2.5549 3.35918,-2.5549 1.10585,0 2.18398,0.3987 2.87731,1.4907 0.6448,1.0122 0.6448,2.7143 0.6448,3.9381 v 7.9628 c -0.0277,0.2218 -0.23228,0.3986 -0.47493,0.3986 h -2.47157 c -0.22534,-0.017 -0.41254,-0.1836 -0.4368,-0.3986 v -6.8708 c 0,-1.3833 0.15946,-3.4078 -1.54266,-3.4078 -0.59972,0 -1.15092,0.4021 -1.42478,1.0123 -0.34667,0.7731 -0.39173,1.5426 -0.39173,2.3955 v 6.8118 c -0.004,0.2531 -0.2184,0.4576 -0.48187,0.4576"
         id="path18"
         style="fill:#ffffff;stroke-width:0.132229" /><use
         xlink:href="#path30"
         transform="translate(32.31255)"
         id="use28"
         x="0"
         y="0"
         style="fill:#ffffff" /><path
         d="m 70.508216,1621.3221 v -0.5338 c -1.781853,0 -3.664238,0.3813 -3.664238,2.4821 0,1.0642 0.551196,1.7853 1.497587,1.7853 0.693328,0 1.313856,-0.4264 1.705588,-1.1197 0.485326,-0.8528 0.461063,-1.6536 0.461063,-2.6139 m 2.485581,6.0077 c -0.162934,0.1456 -0.398668,0.156 -0.582396,0.059 -0.818126,-0.6795 -0.963727,-0.9949 -1.41439,-1.6432 -1.351989,1.3797 -2.30878,1.7923 -4.0629,1.7923 -2.073056,0 -3.688506,-1.2792 -3.688506,-3.841 0,-2.0003 1.08506,-3.3627 2.627714,-4.0283 1.338121,-0.5894 3.206638,-0.6934 4.634897,-0.8563 v -0.3189 c 0,-0.5858 0.04508,-1.2792 -0.29813,-1.7853 -0.301599,-0.4541 -0.877063,-0.6414 -1.38319,-0.6414 -0.939459,0 -1.778389,0.4819 -1.982918,1.4803 -0.04158,0.2219 -0.204534,0.4403 -0.4264,0.4506 l -2.391979,-0.2564 c -0.201066,-0.045 -0.422932,-0.2081 -0.367463,-0.5166 0.551196,-2.8981 3.168505,-3.7717 5.511958,-3.7717 1.199456,0 2.766375,0.3189 3.71277,1.2272 1.199456,1.1197 1.085055,2.6138 1.085055,4.2397 v 3.841 c 0,1.1544 0.4784,1.6606 0.929063,2.2845 0.159465,0.2219 0.194134,0.4888 -0.007,0.6553 -0.502664,0.4194 -1.397059,1.1994 -1.889322,1.6362 l -0.007,-0.01"
         id="path30"
         style="fill:#ffffff;stroke-width:0.132229" /></g></g></svg>
