<?xml version="1.0" encoding="UTF-8" standalone="no"?>
<!-- Created with Inkscape (http://www.inkscape.org/) -->

<svg
   width="682.34332mm"
   height="288.2196mm"
   viewBox="0 0 682.34334 288.2196"
   version="1.1"
   id="svg3788"
   inkscape:version="1.2.2 (b0a8486541, 2022-12-01)"
   sodipodi:docname="ballWithShip.svg"
   xmlns:inkscape="http://www.inkscape.org/namespaces/inkscape"
   xmlns:sodipodi="http://sodipodi.sourceforge.net/DTD/sodipodi-0.dtd"
   xmlns="http://www.w3.org/2000/svg"
   xmlns:svg="http://www.w3.org/2000/svg">
  <sodipodi:namedview
     id="namedview3790"
     pagecolor="#ffffff"
     bordercolor="#cccccc"
     borderopacity="1"
     inkscape:showpageshadow="0"
     inkscape:pageopacity="1"
     inkscape:pagecheckerboard="0"
     inkscape:deskcolor="#d1d1d1"
     inkscape:document-units="mm"
     showgrid="false"
     inkscape:zoom="0.11157934"
     inkscape:cx="-1738.6731"
     inkscape:cy="1559.4285"
     inkscape:window-width="2560"
     inkscape:window-height="1403"
     inkscape:window-x="1920"
     inkscape:window-y="0"
     inkscape:window-maximized="1"
     inkscape:current-layer="layer1" />
  <defs
     id="defs3785" />
  <g
     inkscape:label="Layer 1"
     inkscape:groupmode="layer"
     id="layer1"
     transform="translate(25.703754,-25.7315)">
    <g
       id="g3731"
       transform="translate(-26.065695,-1232.815)">
      <path
         id="path3961"
         style="fill:#000000;fill-opacity:1;stroke-width:0.17917px;-inkscape-stroke:none;stop-color:#000000"
         d="m 94.989242,1258.5465 a 144.10986,144.10986 0 0 0 -94.62730054,35.5502 v 217.1191 A 144.10986,144.10986 0 0 0 94.989242,1546.7661 144.10986,144.10986 0 0 0 239.09879,1402.6565 144.10986,144.10986 0 0 0 94.989242,1258.5465 Z" />
      <g
         id="g3997"
         transform="matrix(0.12971735,0,0,0.12971735,-56.095498,1404.303)">
        <path
           style="font-variation-settings:normal;fill:#ececec;fill-opacity:0.999549;stroke:none;stroke-width:1;stroke-linecap:round;stroke-linejoin:miter;stroke-miterlimit:4;stroke-dasharray:none;stroke-dashoffset:0;stroke-opacity:1;stop-color:#000000"
           d="m 2243.211,699.68725 c -36.3239,120.6152 -167.7706,116.086 -267.2307,153.6374 l -246.5205,63.6933 -20.2796,-0.7234 -131.1077,-59.9652 -15.929,-66.3194 105.7693,-113.9669 338.3315,-13.3258 c 81.3157,-5.1551 163.7552,-18.7534 236.9667,36.97 z"
           id="path3963"
           sodipodi:nodetypes="ccccccccc" />
        <path
           style="font-variation-settings:normal;fill:#cccccc;fill-opacity:0.999549;stroke:none;stroke-width:4;stroke-linecap:round;stroke-linejoin:miter;stroke-miterlimit:4;stroke-dasharray:none;stroke-dashoffset:0;stroke-opacity:1;stop-color:#000000"
           d="m 1578.0725,856.32935 419.9004,-7.8599 -268.5131,68.5485 -20.2796,-0.7234 z"
           id="path3965" />
        <path
           style="font-variation-settings:normal;fill:#808080;fill-opacity:0.999549;stroke:none;stroke-width:4;stroke-linecap:round;stroke-linejoin:miter;stroke-miterlimit:4;stroke-dasharray:none;stroke-dashoffset:0;stroke-opacity:1;stop-color:#000000"
           d="m 1787.9927,852.60246 328.1797,-70.91471 105.3075,-41.2553 c -13.5136,32.02891 -43.9321,49.52654 -84.5951,64.80781 -53.2776,16.56666 -105.068,39.71118 -160.0638,48.6777 z"
           id="path3967"
           sodipodi:nodetypes="cccccc" />
        <path
           style="font-variation-settings:normal;vector-effect:none;fill:#1a1a1a;fill-opacity:0.999549;stroke:none;stroke-width:0.863988;stroke-linecap:round;stroke-linejoin:miter;stroke-miterlimit:4;stroke-dasharray:none;stroke-dashoffset:0;stroke-opacity:1;-inkscape-stroke:none;stop-color:#000000"
           d="m 1441.6971,787.87925 c -18.9957,5.908 -17.6073,18.13482 -16.2791,30.31065 1.6072,14.73395 6.5151,29.21554 18.9589,30.03531 8.5255,0.92715 22.1574,-51.06669 -2.6798,-60.34596 z"
           id="path3969"
           sodipodi:nodetypes="cscc" />
        <path
           style="font-variation-settings:normal;vector-effect:none;fill:#000000;fill-opacity:0.999549;stroke:#000000;stroke-width:0.863988;stroke-linecap:round;stroke-linejoin:miter;stroke-miterlimit:4;stroke-dasharray:none;stroke-dashoffset:0;stroke-opacity:1;-inkscape-stroke:none;stop-color:#000000"
           d="m 1504.1522,797.36523 c 0,0 -63.8761,-9.72325 -62.3712,-9.23231 21.153,6.90069 11.9076,57.22603 2.7139,59.789 l 64.9683,-13.97466 c -1.0657,-13.02743 -0.7769,-27.65703 -5.311,-36.58203 z"
           id="path3971"
           sodipodi:nodetypes="csccc" />
        <path
           style="font-variation-settings:normal;vector-effect:none;fill:#333333;fill-opacity:0.999549;stroke:none;stroke-width:0.863988;stroke-linecap:round;stroke-linejoin:miter;stroke-miterlimit:4;stroke-dasharray:none;stroke-dashoffset:0;stroke-opacity:1;-inkscape-stroke:none;stop-color:#000000"
           d="m 1436.3861,751.29722 c -18.9957,5.908 -17.6073,18.13482 -16.2791,30.31065 1.6072,14.73395 6.5151,29.21554 18.9589,30.03531 8.5255,0.92715 22.1574,-51.06669 -2.6798,-60.34596 z"
           id="path3973"
           sodipodi:nodetypes="cscc" />
        <path
           style="font-variation-settings:normal;vector-effect:none;fill:#000000;fill-opacity:0.999549;stroke:#000000;stroke-width:0.863988;stroke-linecap:round;stroke-linejoin:miter;stroke-miterlimit:4;stroke-dasharray:none;stroke-dashoffset:0;stroke-opacity:1;-inkscape-stroke:none;stop-color:#000000"
           d="m 1498.8412,760.7832 c 0,0 -63.8761,-9.72325 -62.3712,-9.23231 21.153,6.90069 11.9076,57.22603 2.7139,59.789 l 64.9683,-13.97466 c -1.0657,-13.02743 -0.7769,-27.65703 -5.311,-36.58203 z"
           id="path3975"
           sodipodi:nodetypes="csccc" />
        <path
           style="font-variation-settings:normal;vector-effect:none;fill:#1a1a1a;fill-opacity:0.999549;stroke:none;stroke-width:0.863988;stroke-linecap:round;stroke-linejoin:miter;stroke-miterlimit:4;stroke-dasharray:none;stroke-dashoffset:0;stroke-opacity:1;-inkscape-stroke:none;stop-color:#000000"
           d="m 1457.8688,875.37236 c -18.9957,5.908 -17.6073,18.13482 -16.2791,30.31065 1.6072,14.73395 6.5151,29.21554 18.9589,30.03531 8.5255,0.92715 22.1574,-51.06669 -2.6798,-60.34596 z"
           id="path3977"
           sodipodi:nodetypes="cscc" />
        <path
           style="font-variation-settings:normal;vector-effect:none;fill:#000000;fill-opacity:0.999549;stroke:#000000;stroke-width:0.863988;stroke-linecap:round;stroke-linejoin:miter;stroke-miterlimit:4;stroke-dasharray:none;stroke-dashoffset:0;stroke-opacity:1;-inkscape-stroke:none;stop-color:#000000"
           d="m 1520.3239,884.85834 c 0,0 -63.8761,-9.72325 -62.3712,-9.23231 21.153,6.90069 11.9076,57.22603 2.7139,59.789 l 64.9683,-13.97466 c -1.0657,-13.02743 -0.7769,-27.65703 -5.311,-36.58203 z"
           id="path3979"
           sodipodi:nodetypes="csccc" />
        <path
           style="font-variation-settings:normal;vector-effect:none;fill:#333333;fill-opacity:0.999549;stroke:none;stroke-width:1.21222;stroke-linecap:round;stroke-linejoin:miter;stroke-miterlimit:4;stroke-dasharray:none;stroke-dashoffset:0;stroke-opacity:1;-inkscape-stroke:none;stop-color:#000000"
           d="m 1428.3611,829.11351 c -25.2691,11.85301 -20.9956,28.58075 -16.8153,45.24918 5.0584,20.17046 14.6561,39.35738 32.1086,38.11125 12.0272,-0.34573 21.0067,-75.22465 -15.2933,-83.36043 z"
           id="path3981"
           sodipodi:nodetypes="cscc" />
        <path
           style="font-variation-settings:normal;vector-effect:none;fill:#000000;fill-opacity:0.999549;stroke:#000000;stroke-width:1.21222;stroke-linecap:round;stroke-linejoin:miter;stroke-miterlimit:4;stroke-dasharray:none;stroke-dashoffset:0;stroke-opacity:1;-inkscape-stroke:none;stop-color:#000000"
           d="m 1516.9854,830.3251 c 0,0 -90.6448,-1.26895 -88.4588,-0.8751 30.723,5.53607 27.5206,77.25508 15.2337,82.57977 L 1531.38,880.1519 c -3.9786,-17.90237 -6.3818,-38.29123 -14.3946,-49.8268 z"
           id="path3983"
           sodipodi:nodetypes="csccc" />
        <path
           style="font-variation-settings:normal;vector-effect:none;fill:#333333;fill-opacity:0.999549;stroke:none;stroke-width:0.863988;stroke-linecap:round;stroke-linejoin:miter;stroke-miterlimit:4;stroke-dasharray:none;stroke-dashoffset:0;stroke-opacity:1;-inkscape-stroke:none;stop-color:#000000"
           d="m 1462.5551,918.03734 c -18.3354,7.71694 -15.7714,19.75223 -13.2722,31.74261 3.0243,14.50953 9.3094,28.44874 21.774,28.06153 8.5753,0.0985 17.1163,-52.96973 -8.5018,-59.80414 z"
           id="path3985"
           sodipodi:nodetypes="cscc" />
        <path
           style="font-variation-settings:normal;vector-effect:none;fill:#000000;fill-opacity:0.999549;stroke:#000000;stroke-width:0.863988;stroke-linecap:round;stroke-linejoin:miter;stroke-miterlimit:4;stroke-dasharray:none;stroke-dashoffset:0;stroke-opacity:1;-inkscape-stroke:none;stop-color:#000000"
           d="m 1525.6349,921.44037 c 0,0 -64.5171,-3.50179 -62.9716,-3.15864 21.721,4.82315 17.3846,55.80663 8.4818,59.24648 l 63.3128,-20.19069 c -2.3203,-12.86335 -3.4473,-27.45233 -8.823,-35.89715 z"
           id="path3987"
           sodipodi:nodetypes="csccc" />
        <path
           style="font-variation-settings:normal;vector-effect:none;fill:#1a1a1a;fill-opacity:0.999549;stroke:none;stroke-width:1;stroke-linecap:round;stroke-linejoin:miter;stroke-miterlimit:4;stroke-dasharray:none;stroke-dashoffset:0;stroke-opacity:1;-inkscape-stroke:none;stop-color:#000000"
           d="m 1471.8254,756.52836 c 27.0061,6.36323 71.5359,191.69331 47.3631,206.38875 l 40.8143,-4.28156 c 28.22,-8.86761 -6.8765,-166.48195 -49.8476,-216.6416 -18.3161,2.90223 -28.4352,8.05646 -38.3298,14.53441 z"
           id="path3989"
           sodipodi:nodetypes="ccccc" />
        <path
           style="font-variation-settings:normal;vector-effect:none;fill:#000000;fill-opacity:0.999549;stroke:none;stroke-width:1;stroke-linecap:round;stroke-linejoin:miter;stroke-miterlimit:4;stroke-dasharray:none;stroke-dashoffset:0;stroke-opacity:1;-inkscape-stroke:none;stop-color:#000000"
           d="m 2243.211,699.68725 c 40.1175,53.1174 -60.2856,115.8884 -110.0389,134.517 l -222.7198,54.2236 -214.9382,67.4745 -135.5113,2.7332 c -0.071,-95.2371 -13.5197,-171.859 -49.8476,-216.6416 l 120.4844,-64.8321 37.2732,-1.1188 -105.7693,113.9669 15.929,66.3194 131.1077,59.9652 20.2796,0.7234 268.5131,-68.5485 138.0712,-43.8225 c 37.8224,-15.3805 71.6916,-33.3098 85.4358,-64.2145 20.7062,-21.3947 14.947,-27.9782 21.7311,-40.7452 z"
           id="path3991"
           sodipodi:nodetypes="cccccccccccccccc" />
        <path
           style="font-variation-settings:normal;vector-effect:none;fill:#000000;fill-opacity:0.999549;stroke:none;stroke-width:1;stroke-linecap:round;stroke-linejoin:miter;stroke-miterlimit:4;stroke-dasharray:none;stroke-dashoffset:0;stroke-opacity:1;-inkscape-stroke:none;stop-color:#000000"
           d="m 2192.9618,673.70315 c 18.9132,20.11782 19.5068,37.03607 24.9792,58.00736 11.7471,-10.61139 19.0358,-26.73246 18.9619,-36.28056 -15.2667,-9.5534 -31.1662,-21.4667 -43.9411,-21.7268 z"
           id="path3993"
           sodipodi:nodetypes="cccc" />
        <path
           style="font-variation-settings:normal;vector-effect:none;fill:#cccccc;fill-opacity:1;stroke:none;stroke-width:1;stroke-linecap:round;stroke-linejoin:miter;stroke-miterlimit:4;stroke-dasharray:none;stroke-dashoffset:0;stroke-opacity:1;-inkscape-stroke:none;stop-color:#000000"
           d="m 1562.1435,790.00995 443.8454,-127.27898 -338.0761,13.31206 z"
           id="path3995"
           sodipodi:nodetypes="cccc" />
      </g>
    </g>
    <g
       aria-label="CAREER"
       id="text587"
       style="font-size:56.1699px;line-height:1.25;stroke-width:1.40425">
      <path
         d="m 340.17353,191.80371 c 7.4706,0 11.79568,-3.87572 13.42461,-6.51571 l -0.0562,-0.0562 c -1.85361,1.29191 -5.67316,2.30297 -9.54888,2.30297 -10.39143,0 -16.96331,-6.96507 -16.96331,-18.76075 0,-12.75056 9.54888,-20.61435 20.16499,-19.43478 -9.94207,-3.98806 -27.2424,2.30296 -27.2424,21.79392 0,13.53695 8.93102,20.67052 20.22116,20.67052 z m 10.2791,-32.01684 c 2.52764,0 4.43742,-2.07829 4.43742,-4.54976 0,-2.47148 -1.79744,-4.49359 -4.43742,-4.49359 -2.58382,0 -4.4936,2.07828 -4.4936,4.54976 0,2.47147 2.02212,4.49359 4.4936,4.49359 z"
         style="font-family:'Ariata Stencil';-inkscape-font-specification:'Ariata Stencil';text-align:end;text-anchor:end"
         id="path322" />
      <path
         d="M 393.31029,180.79441 379.0993,147.87885 h -1.90978 l -2.35913,5.61699 8.42548,20.61435 -11.12164,0.67404 v 0.11234 l 11.73951,0.73021 v -0.0562 l 2.07829,5.05529 c 2.13446,5.16763 1.96595,8.594 0.95489,10.16675 v 0.11234 h 11.85185 v -0.11234 c -1.40425,-1.51658 -3.25786,-4.88678 -5.44848,-9.99824 z m -28.98367,0.44936 1.17957,-4.88678 -0.0562,-0.0562 -2.02212,4.54976 c -2.2468,5.05529 -4.32508,8.42549 -5.84167,9.94207 v 0.11234 h 8.70633 v -0.11234 c -1.96594,-1.40424 -3.20168,-4.60593 -1.96594,-9.54888 z"
         style="font-family:'Ariata Stencil';-inkscape-font-specification:'Ariata Stencil';text-align:end;text-anchor:end"
         id="path324" />
      <path
         d="m 403.58941,191.01733 h 10.89696 v -0.11234 c -1.40425,-1.17956 -2.2468,-3.14551 -2.2468,-5.7855 v -36.22958 h -8.65016 v 0.11234 c 1.40424,1.17957 2.24679,3.14551 2.24679,5.7855 v 30.33174 c 0,2.63999 -0.84255,4.60594 -2.24679,5.7855 z m 18.47989,-22.5803 c 8.65017,-0.84254 13.19993,-3.59487 13.19993,-9.26803 0,-6.23486 -4.60593,-9.8859 -13.70545,-10.27909 v 0.11234 c 3.42636,1.23574 6.57187,4.15657 6.57187,9.66122 0,4.88678 -1.68509,8.0323 -6.06635,9.66122 z m 8.25698,22.5803 h 8.42548 v -0.11234 c -1.46041,-1.51658 -3.81955,-4.6621 -7.0774,-9.15569 l -3.08935,-4.21274 c -3.5387,-4.60593 -5.05529,-6.17869 -13.59311,-7.24592 v 0.11234 c 1.74126,1.1234 3.20168,2.86467 4.99912,5.50465 z"
         style="font-family:'Ariata Stencil';-inkscape-font-specification:'Ariata Stencil';text-align:end;text-anchor:end"
         id="path326" />
      <path
         d="m 471.0495,156.7537 h 0.11234 l -0.22468,-7.91996 v 0.0562 h -9.60506 v 0.11234 h 0.0562 c 2.8085,0.16851 7.07741,2.86466 9.66123,7.75145 z m -27.74793,-7.86379 v 0.11234 c 1.40424,1.17957 2.24679,3.14551 2.24679,5.7855 v 30.33174 c 0,2.63999 -0.84255,4.60594 -2.24679,5.7855 v 0.11234 h 8.65016 v -42.12742 z m 23.25433,25.44496 h 0.0562 l -0.16851,-5.2238 0.16851,-5.2238 h -0.0562 c -2.13445,3.25786 -5.56082,5.05529 -7.80761,5.11146 h -0.0562 v 0.11234 h 0.0562 c 2.24679,0.11234 5.67316,1.96595 7.80761,5.2238 z m 5.16763,8.65017 c -2.58381,4.99912 -6.85272,7.75144 -9.66122,7.91995 h -0.0562 v 0.11234 h 9.60505 l 0.22468,-8.03229 z"
         style="font-family:'Ariata Stencil';-inkscape-font-specification:'Ariata Stencil';text-align:end;text-anchor:end"
         id="path328" />
      <path
         d="m 506.66126,156.7537 h 0.11234 l -0.22468,-7.91996 v 0.0562 h -9.60505 v 0.11234 h 0.0562 c 2.80849,0.16851 7.0774,2.86466 9.66122,7.75145 z m -27.74793,-7.86379 v 0.11234 c 1.40425,1.17957 2.24679,3.14551 2.24679,5.7855 v 30.33174 c 0,2.63999 -0.84254,4.60594 -2.24679,5.7855 v 0.11234 h 8.65016 v -42.12742 z m 23.25434,25.44496 h 0.0562 l -0.16851,-5.2238 0.16851,-5.2238 h -0.0562 c -2.13446,3.25786 -5.56082,5.05529 -7.80762,5.11146 h -0.0562 v 0.11234 h 0.0562 c 2.2468,0.11234 5.67316,1.96595 7.80762,5.2238 z m 5.16763,8.65017 c -2.58382,4.99912 -6.85273,7.75144 -9.66123,7.91995 h -0.0562 v 0.11234 h 9.60506 l 0.22468,-8.03229 z"
         style="font-family:'Ariata Stencil';-inkscape-font-specification:'Ariata Stencil';text-align:end;text-anchor:end"
         id="path330" />
      <path
         d="m 514.52508,191.01733 h 10.89696 v -0.11234 c -1.40424,-1.17956 -2.24679,-3.14551 -2.24679,-5.7855 v -36.22958 h -8.65017 v 0.11234 c 1.40425,1.17957 2.2468,3.14551 2.2468,5.7855 v 30.33174 c 0,2.63999 -0.84255,4.60594 -2.2468,5.7855 z m 18.4799,-22.5803 c 8.65017,-0.84254 13.19993,-3.59487 13.19993,-9.26803 0,-6.23486 -4.60593,-9.8859 -13.70546,-10.27909 v 0.11234 c 3.42637,1.23574 6.57188,4.15657 6.57188,9.66122 0,4.88678 -1.6851,8.0323 -6.06635,9.66122 z m 8.25698,22.5803 h 8.42548 v -0.11234 c -1.46042,-1.51658 -3.81955,-4.6621 -7.07741,-9.15569 l -3.08934,-4.21274 c -3.5387,-4.60593 -5.05529,-6.17869 -13.59312,-7.24592 v 0.11234 c 1.74127,1.1234 3.20169,2.86467 4.99912,5.50465 z"
         style="font-family:'Ariata Stencil';-inkscape-font-specification:'Ariata Stencil';text-align:end;text-anchor:end"
         id="path332" />
    </g>
  </g>
</svg>
