<?xml version="1.0" encoding="UTF-8" standalone="no"?>
<!-- Created with Inkscape (http://www.inkscape.org/) -->

<svg
   width="311.99222"
   height="90.707779"
   viewBox="0 0 82.547939 23.999766"
   version="1.1"
   id="svg5"
   xml:space="preserve"
   sodipodi:docname="cruise.svg"
   inkscape:version="1.2.2 (b0a8486541, 2022-12-01)"
   xmlns:inkscape="http://www.inkscape.org/namespaces/inkscape"
   xmlns:sodipodi="http://sodipodi.sourceforge.net/DTD/sodipodi-0.dtd"
   xmlns="http://www.w3.org/2000/svg"
   xmlns:svg="http://www.w3.org/2000/svg"><sodipodi:namedview
     id="namedview5249"
     pagecolor="#ffffff"
     bordercolor="#cccccc"
     borderopacity="1"
     inkscape:showpageshadow="0"
     inkscape:pageopacity="1"
     inkscape:pagecheckerboard="0"
     inkscape:deskcolor="#d1d1d1"
     showgrid="false"
     inkscape:zoom="4.1988227"
     inkscape:cx="98.599067"
     inkscape:cy="45.25078"
     inkscape:window-width="2560"
     inkscape:window-height="1403"
     inkscape:window-x="1920"
     inkscape:window-y="0"
     inkscape:window-maximized="1"
     inkscape:current-layer="svg5" /><defs
     id="defs2" /><g
     id="layer1"
     transform="translate(-62.342942,-1764.8734)"
     style="fill:#ffffff"><path
       style="fill:#ffffff;stroke-width:0.0807959"
       d="m 69.064227,1788.7589 c -3.144914,-0.5973 -5.532276,-2.7941 -6.496586,-5.9779 -0.204642,-0.6758 -0.220542,-0.8331 -0.224546,-2.222 -0.0051,-1.7916 0.114204,-2.3515 0.803087,-3.7672 1.062332,-2.183 2.797303,-3.6471 5.171497,-4.3639 0.667117,-0.2015 0.840582,-0.2197 2.100692,-0.2208 1.164496,0 1.469791,0.026 2.006045,0.1743 1.653492,0.4588 3.205233,1.449 4.225906,2.6965 0.463776,0.5669 0.464632,0.5689 0.293727,0.702 -0.09427,0.073 -0.665005,0.5087 -1.268293,0.9674 l -1.096887,0.8341 -0.218831,-0.2684 c -1.260177,-1.5462 -3.259467,-2.2417 -5.103626,-1.7754 -0.914556,0.2313 -1.627798,0.6448 -2.322966,1.3468 -1.355768,1.369 -1.823485,3.4042 -1.205448,5.2452 0.279328,0.8322 0.536559,1.257 1.163278,1.9213 0.958138,1.0158 2.13749,1.537 3.486697,1.541 1.462877,0 2.490034,-0.4177 3.549409,-1.4585 l 0.681153,-0.6692 0.651978,0.5031 c 0.358587,0.2766 0.915879,0.7101 1.238425,0.9632 l 0.586448,0.46 -0.312572,0.392 c -1.092606,1.3698 -2.595814,2.352 -4.318417,2.8217 -0.956709,0.2608 -2.468197,0.3297 -3.39017,0.1547 z m 50.707013,0.01 c -1.47152,-0.2806 -2.87411,-0.9735 -3.98113,-1.9667 l -0.43951,-0.3944 0.6955,-0.964 c 0.38252,-0.5302 0.74707,-1.0326 0.8101,-1.1165 0.10928,-0.1453 0.14426,-0.1317 0.75396,0.2934 1.93074,1.346 3.76136,1.6751 5.25995,0.9456 0.61647,-0.3001 0.85117,-0.6371 0.8984,-1.2901 0.0744,-1.0276 -0.52315,-1.5557 -2.36796,-2.0929 -1.72404,-0.502 -2.42573,-0.7525 -3.26209,-1.165 -1.38408,-0.6825 -2.03053,-1.4173 -2.35173,-2.6732 -0.45887,-1.7941 0.12614,-3.7354 1.49277,-4.9534 0.55246,-0.4925 1.09308,-0.7721 1.93957,-1.0032 0.53901,-0.1472 0.86108,-0.1765 1.9391,-0.1765 1.42208,0 1.95651,0.1008 3.13362,0.5907 0.77637,0.3233 1.87904,1.0485 1.8657,1.2271 -0.0146,0.1962 -1.47609,2.2492 -1.60114,2.2492 -0.0583,0 -0.14606,-0.048 -0.19482,-0.1068 -0.17292,-0.2084 -1.51576,-0.7752 -2.12941,-0.8988 -1.76205,-0.3551 -3.03758,0.091 -3.29181,1.1504 -0.13429,0.5598 -0.0166,0.9433 0.41823,1.3632 0.46631,0.4503 0.75176,0.5809 2.61852,1.1977 2.53944,0.8391 3.62962,1.4632 4.29389,2.4579 0.47627,0.7132 0.67113,1.295 0.71964,2.1484 0.13947,2.4535 -1.35898,4.4511 -3.7931,5.0566 -0.86518,0.2154 -2.6095,0.2771 -3.42625,0.1213 z m 16.2501,0 c -3.51399,-0.5461 -6.28023,-3.347 -6.86666,-6.9526 -0.61064,-3.7545 1.43674,-7.5337 4.88273,-9.0126 1.17523,-0.5045 1.67157,-0.603 2.99715,-0.5952 0.999,0.01 1.29053,0.038 1.97949,0.2223 3.92947,1.0474 6.02938,4.2253 5.8682,8.8805 l -0.0105,0.303 h -6.38287 c -6.36205,0 -6.38288,6e-4 -6.38288,0.1641 0,0.2659 0.31697,1.1344 0.58687,1.6083 0.33367,0.5858 1.23109,1.5169 1.78213,1.849 0.24486,0.1475 0.71185,0.3632 1.0378,0.4792 0.51346,0.1829 0.72747,0.2118 1.60254,0.2165 0.90685,0.01 1.08361,-0.018 1.73151,-0.231 0.86019,-0.2819 1.74424,-0.8458 2.28155,-1.4552 l 0.37677,-0.4273 1.12027,0.8087 c 0.61616,0.4449 1.13769,0.837 1.15895,0.8714 0.0673,0.1088 -1.19328,1.3098 -1.84476,1.7576 -1.21924,0.838 -2.61041,1.3738 -4.01421,1.5463 -0.82761,0.1016 -1.06496,0.098 -1.90408,-0.033 z m 5.73173,-10.043 c -0.29578,-1.2755 -1.24338,-2.4879 -2.43303,-3.1131 -0.75842,-0.3985 -1.36239,-0.5429 -2.2706,-0.5429 -1.99506,0 -3.48359,0.9456 -4.41258,2.8034 -0.15996,0.3199 -0.31302,0.6925 -0.34014,0.8282 l -0.0493,0.2465 h 4.77859 4.7786 z m -44.59127,9.8653 c -1.304826,-0.2767 -2.59982,-0.9842 -3.584243,-1.9583 -0.939326,-0.9295 -1.571594,-2.0407 -1.971423,-3.4646 -0.170067,-0.6057 -0.176264,-0.7801 -0.202276,-5.6947 l -0.02684,-5.07 h 1.575378 1.575378 l 0.02428,4.8679 c 0.0242,4.8532 0.02484,4.8696 0.211246,5.3932 1.0191,2.8625 4.459164,3.7462 6.59582,1.6945 0.55032,-0.5284 0.91211,-1.1261 1.14823,-1.8965 0.13859,-0.4522 0.14663,-0.8063 0.11974,-5.272 l -0.0288,-4.7871 h 1.62454 1.62454 l -2.4e-4,4.5448 c -2.4e-4,4.9326 -0.0391,5.5695 -0.41003,6.7262 -0.37513,1.1697 -0.87707,1.976 -1.81074,2.9087 -1.0998,1.0986 -2.24264,1.7357 -3.61309,2.0144 -0.77022,0.1566 -2.096556,0.1536 -2.851465,-0.01 z m -17.007528,-8.108 v -8.0796 h 1.613091 1.61309 l 0.02303,0.806 0.02302,0.8061 0.525173,-0.3686 c 1.029774,-0.7224 2.26229,-1.2389 3.451509,-1.4464 0.379635,-0.066 0.740021,-0.1203 0.800857,-0.1203 0.09032,0 0.11061,0.3313 0.11061,1.8063 v 1.8063 l -0.626168,0.053 c -2.290419,0.195 -3.71476,1.222 -4.181858,3.0153 -0.100102,0.3843 -0.120521,1.2538 -0.120521,5.1319 v 4.6692 H 81.77019 80.154273 Z m 28.924918,0 v -8.0796 h 1.61592 1.61592 v 8.0796 8.0796 h -1.61592 -1.61592 z m 0.96221,-11.1898 c -0.49788,-0.1597 -1.10274,-0.707 -1.33665,-1.2093 -0.22701,-0.4875 -0.25376,-1.2045 -0.0656,-1.7567 0.28505,-0.8367 1.15099,-1.454 2.03948,-1.454 1.98163,0 2.99202,2.4485 1.58925,3.8513 -0.57528,0.5752 -1.48318,0.8072 -2.22653,0.5687 z"
       id="path799" /></g></svg>
