<?xml version="1.0" encoding="UTF-8" standalone="no"?>
<!-- Created with Inkscape (http://www.inkscape.org/) -->

<svg
   width="90.707352"
   height="90.708282"
   viewBox="0 0 23.999653 23.9999"
   version="1.1"
   id="svg5"
   xml:space="preserve"
   sodipodi:docname="hp.svg"
   inkscape:version="1.2.2 (b0a8486541, 2022-12-01)"
   xmlns:inkscape="http://www.inkscape.org/namespaces/inkscape"
   xmlns:sodipodi="http://sodipodi.sourceforge.net/DTD/sodipodi-0.dtd"
   xmlns="http://www.w3.org/2000/svg"
   xmlns:svg="http://www.w3.org/2000/svg"><sodipodi:namedview
     id="namedview5372"
     pagecolor="#ffffff"
     bordercolor="#cccccc"
     borderopacity="1"
     inkscape:showpageshadow="0"
     inkscape:pageopacity="1"
     inkscape:pagecheckerboard="0"
     inkscape:deskcolor="#d1d1d1"
     showgrid="false"
     inkscape:zoom="11.0464"
     inkscape:cx="23.537079"
     inkscape:cy="45.354141"
     inkscape:window-width="2560"
     inkscape:window-height="1403"
     inkscape:window-x="1920"
     inkscape:window-y="0"
     inkscape:window-maximized="1"
     inkscape:current-layer="svg5" /><defs
     id="defs2" /><g
     id="layer1"
     transform="translate(-91.568686,-1867.1586)"
     style="fill:#ffffff"><path
       d="m 103.60197,1867.1586 -2.58189,7.2387 1.75513,6e-4 c 1.2643,4e-4 1.80233,0.9972 1.40419,2.1136 l -2.56725,7.1977 h -2.583337 l 2.824527,-7.9199 h -1.3301 l -2.824299,7.9199 H 95.09328 l 5.79547,-16.2504 c -5.33707,1.2175 -9.320064,5.993 -9.320064,11.699 0,5.6171 3.859636,10.332 9.071424,11.6393 l 5.85522,-16.4401 h 4.24052 c 0.87706,0 1.98016,0.5914 1.50348,1.9373 l -2.38084,6.7226 c -0.30413,0.8588 -1.02702,1.0327 -1.60292,1.0327 h -2.60686 l -2.52837,7.0989 c 0.14887,0.01 0.29803,0.01 0.44813,0.01 6.62729,0 11.99987,-5.3723 11.99987,-11.9998 -2e-5,-6.6164 -5.35458,-11.9814 -11.96675,-11.9995 z m 4.99554,8.6113 -2.45925,6.9034 h 1.3096 l 2.45974,-6.9034 z"
       fill="#015294"
       id="path689"
       style="fill:#ffffff;stroke-width:0.0239998" /></g></svg>
