<?xml version="1.0" encoding="UTF-8" standalone="no"?>
<!-- Created with Inkscape (http://www.inkscape.org/) -->

<svg
   width="183.33299"
   height="90.708908"
   viewBox="0 0 48.506853 24.000065"
   version="1.1"
   id="svg5"
   xml:space="preserve"
   sodipodi:docname="sap.svg"
   inkscape:version="1.2.2 (b0a8486541, 2022-12-01)"
   xmlns:inkscape="http://www.inkscape.org/namespaces/inkscape"
   xmlns:sodipodi="http://sodipodi.sourceforge.net/DTD/sodipodi-0.dtd"
   xmlns="http://www.w3.org/2000/svg"
   xmlns:svg="http://www.w3.org/2000/svg"><sodipodi:namedview
     id="namedview5495"
     pagecolor="#ffffff"
     bordercolor="#cccccc"
     borderopacity="1"
     inkscape:showpageshadow="0"
     inkscape:pageopacity="1"
     inkscape:pagecheckerboard="0"
     inkscape:deskcolor="#d1d1d1"
     showgrid="false"
     inkscape:zoom="7.1454678"
     inkscape:cx="57.938824"
     inkscape:cy="45.343427"
     inkscape:window-width="2560"
     inkscape:window-height="1403"
     inkscape:window-x="1920"
     inkscape:window-y="0"
     inkscape:window-maximized="1"
     inkscape:current-layer="svg5" /><defs
     id="defs2" /><g
     id="layer1"
     transform="translate(-79.363477,-1816.0153)"
     style="fill:#ffffff"><path
       style="fill:#ffffff;stroke-width:0.00999622"
       d="m 110.78673,1840.0017 c -0.52123,-0.083 -0.97265,-0.4169 -1.19022,-0.8799 -0.20523,-0.4369 -0.20053,-0.9337 0.0128,-1.359 0.21198,-0.4224 0.61089,-0.7264 1.08239,-0.8248 0.37751,-0.079 0.72755,-0.032 1.06663,0.1445 0.14836,0.077 0.25727,0.1579 0.38282,0.2846 0.21054,0.2122 0.34358,0.4646 0.41125,0.7799 0.0192,0.09 0.0226,0.1352 0.0226,0.305 0,0.1689 -0.004,0.2157 -0.0221,0.3025 -0.0633,0.2926 -0.17457,0.5227 -0.35498,0.7336 -0.23309,0.2723 -0.58193,0.4617 -0.95317,0.5175 -0.0952,0.014 -0.35768,0.012 -0.45791,0 z m 0.48427,-0.2714 c 0.11076,-0.019 0.21309,-0.055 0.33345,-0.1161 0.22641,-0.1154 0.40802,-0.2973 0.52524,-0.5254 0.11092,-0.2159 0.15719,-0.4287 0.14831,-0.6817 -0.003,-0.086 -0.0128,-0.1884 -0.022,-0.23 -0.104,-0.47 -0.39257,-0.8084 -0.81676,-0.9582 -0.13307,-0.047 -0.24302,-0.064 -0.4026,-0.065 -0.20579,0 -0.33557,0.025 -0.51481,0.1011 -0.21624,0.092 -0.39954,0.2396 -0.54209,0.4375 -0.16764,0.2327 -0.25553,0.5708 -0.22753,0.8752 0.0302,0.3275 0.14384,0.5797 0.36403,0.8071 0.29167,0.3015 0.71293,0.4311 1.15478,0.3552 z m -0.84913,-1.2793 v -0.8955 h 0.42733 c 0.33809,0 0.44091,0.01 0.49231,0.02 0.27117,0.064 0.39013,0.2091 0.39222,0.4772 9.1e-4,0.1639 -0.0351,0.2618 -0.13455,0.3611 -0.0645,0.064 -0.2143,0.1384 -0.28172,0.1388 -0.0114,0 -0.0273,0 -0.0353,0.01 -0.0154,0.01 -0.0264,-0.01 0.33843,0.5345 0.0884,0.1313 0.16076,0.2405 0.16076,0.2424 0,0 -0.067,0 -0.14887,0 -0.11675,0 -0.15,0 -0.15411,-0.014 -0.003,-0.01 -0.11196,-0.183 -0.24236,-0.3898 l -0.23711,-0.3763 h -0.15356 -0.15355 v 0.3899 0.3898 h -0.13495 -0.13495 z m 0.80171,-0.1151 c 0.15513,-0.033 0.2279,-0.1216 0.2279,-0.2776 0,-0.083 -0.0134,-0.1259 -0.0539,-0.1698 -0.0726,-0.079 -0.18503,-0.1007 -0.51347,-0.101 h -0.19244 v 0.2798 0.2799 h 0.23942 c 0.13903,0 0.26163,0 0.29238,-0.012 z M 79.363477,1828.011 v -11.9957 h 24.253433 24.25342 l -11.99551,11.9957 -11.9955,11.9954 H 91.621397 79.363477 Z m 6.622524,7.5969 c 1.453349,-0.078 2.653698,-0.4869 3.671165,-1.2514 0.08113,-0.06 0.182745,-0.1419 0.225916,-0.1799 0.04317,-0.038 0.08012,-0.067 0.08223,-0.065 0.0018,0 -0.03485,0.1068 -0.08177,0.233 -0.04701,0.1261 -0.116297,0.3127 -0.153971,0.4143 -0.03777,0.1017 -0.104215,0.2805 -0.147852,0.3973 l -0.07939,0.2125 h 2.172486 2.172496 l 0.05012,-0.1547 c 0.09873,-0.3048 0.673058,-2.0495 0.67572,-2.0525 0.0018,0 0.06732,0.017 0.146169,0.042 1.188496,0.3731 2.565517,0.4556 3.858191,0.2308 0.283932,-0.049 0.632493,-0.1321 0.878898,-0.2086 0.07948,-0.025 0.147477,-0.041 0.151072,-0.037 0.0037,0 0.03439,0.095 0.06832,0.202 0.03412,0.1072 0.117322,0.3681 0.185097,0.5797 0.104726,0.3271 0.403862,1.2648 0.436112,1.367 l 0.0102,0.033 h 3.5429 3.5429 v -2.2942 -2.2941 h 0.93715 c 0.51543,0 1.02035,0 1.12208,-0.01 1.27362,-0.07 2.27113,-0.3374 3.15947,-0.8467 0.23959,-0.1373 0.57126,-0.3774 0.76405,-0.5531 0.99624,-0.9079 1.49467,-2.1382 1.49422,-3.6882 -5.1e-4,-1.5462 -0.41222,-2.7181 -1.25032,-3.558 -0.39587,-0.3969 -0.89491,-0.7213 -1.48843,-0.9677 -0.78074,-0.3242 -1.7036,-0.5176 -2.84893,-0.5968 -0.54964,-0.038 -0.7339,-0.04 -3.34788,-0.04 l -2.55318,-10e-5 9.1e-4,5.6729 c 9.2e-4,4.766 -8.2e-4,5.6673 -0.0122,5.6378 -0.007,-0.019 -0.12925,-0.3498 -0.27074,-0.7346 -0.14148,-0.385 -0.29541,-0.8033 -0.34204,-0.9298 -0.0466,-0.1264 -0.10188,-0.2771 -0.12278,-0.3348 -0.0209,-0.058 -0.0538,-0.1476 -0.073,-0.1999 -0.0192,-0.052 -0.12576,-0.3424 -0.23673,-0.6448 -0.11096,-0.3024 -0.21683,-0.5903 -0.23524,-0.6397 -0.0185,-0.05 -0.0994,-0.27 -0.18002,-0.4899 -0.0807,-0.2199 -0.17727,-0.4831 -0.21484,-0.5848 -0.0376,-0.1017 -0.11182,-0.3038 -0.16497,-0.4493 -0.0531,-0.1453 -0.10278,-0.2804 -0.11032,-0.2999 -0.007,-0.019 -0.10351,-0.2809 -0.2133,-0.5808 -0.10979,-0.2998 -0.20637,-0.5629 -0.2146,-0.5846 -0.007,-0.022 -0.0562,-0.152 -0.10643,-0.2895 -0.0503,-0.1374 -0.0999,-0.2725 -0.1103,-0.2999 -0.0102,-0.027 -0.0509,-0.1378 -0.0899,-0.245 -0.0392,-0.1072 -0.086,-0.2354 -0.10423,-0.2848 -0.12522,-0.3402 -0.3266,-0.8885 -0.750754,-2.0442 -0.574532,-1.5656 -0.580651,-1.5822 -0.601039,-1.637 l -0.01591,-0.042 h -2.067513 c -1.958854,0 -2.068025,8e-4 -2.07687,0.017 -0.0046,0.01 -0.279332,0.7372 -0.609317,1.6169 -0.329994,0.8796 -0.925819,2.4675 -1.324064,3.5287 -0.398244,1.0611 -0.92602,2.4677 -1.172855,3.1258 l -0.448788,1.1964 -0.01281,-0.061 c -0.07985,-0.3881 -0.162486,-0.6382 -0.308115,-0.9323 -0.263939,-0.5328 -0.673689,-0.9956 -1.253573,-1.4156 -0.371866,-0.2692 -0.929697,-0.5704 -1.465257,-0.791 -0.508724,-0.2096 -0.86431,-0.3363 -1.703549,-0.6066 -0.657958,-0.2121 -1.129017,-0.3951 -1.554417,-0.6044 -0.256969,-0.1263 -0.353317,-0.1811 -0.554795,-0.3152 -0.282277,-0.1879 -0.488501,-0.4105 -0.558188,-0.6026 -0.02287,-0.063 -0.02607,-0.087 -0.02552,-0.1872 5.48e-4,-0.097 0.0046,-0.1263 0.02652,-0.188 0.07994,-0.2261 0.284198,-0.427 0.571615,-0.5623 0.483544,-0.2275 1.095523,-0.2842 2.094843,-0.1938 0.923304,0.083 1.706951,0.3183 2.83841,0.8508 0.08643,0.04 0.11637,0.051 0.12237,0.041 0.0046,-0.01 0.130858,-0.2264 0.281061,-0.4876 0.15022,-0.2612 0.34299,-0.5963 0.428391,-0.7448 0.142684,-0.248 0.275225,-0.4787 0.769863,-1.3394 l 0.178054,-0.3099 -0.152389,-0.076 c -1.516569,-0.7509 -3.700653,-1.2366 -5.420409,-1.206 -0.351205,0.01 -0.479172,0.014 -0.794751,0.048 -1.635692,0.1709 -3.062041,0.8258 -3.940601,1.8093 -0.575228,0.6438 -0.906822,1.3821 -1.014658,2.2591 -0.02552,0.2077 -0.02497,0.861 8.96e-4,1.0646 0.0675,0.5302 0.177239,0.9015 0.38758,1.3107 0.140324,0.2731 0.343878,0.5603 0.558115,0.7878 0.455848,0.4839 1.033354,0.889 1.804534,1.2657 0.587027,0.2868 1.1966,0.5223 2.059227,0.7953 0.893624,0.2828 1.072034,0.3442 1.394482,0.481 0.62246,0.2639 0.944771,0.5358 1.029933,0.8686 0.03595,0.1406 0.02186,0.3389 -0.03677,0.5186 -0.0857,0.263 -0.309433,0.5142 -0.589478,0.6622 -0.384708,0.2034 -1.020933,0.2762 -1.938128,0.2216 -1.02461,-0.06 -1.911539,-0.3599 -3.101983,-1.0462 -0.06311,-0.037 -0.116635,-0.061 -0.121117,-0.057 -0.0046,0.01 -0.229602,0.4497 -0.500428,0.9884 -0.270826,0.5389 -0.599813,1.1916 -0.731065,1.4507 -0.13126,0.2591 -0.238657,0.4749 -0.238648,0.4799 9e-6,0.014 0.345982,0.199 0.619752,0.3323 1.210091,0.589 2.516484,0.9518 3.858566,1.0717 0.405571,0.037 1.079626,0.049 1.464453,0.029 z m 10.853011,-5.3778 c -0.276259,-0.019 -0.553907,-0.062 -0.801766,-0.125 -0.138038,-0.035 -0.403934,-0.1178 -0.428538,-0.1336 -0.01107,-0.01 0.0064,-0.074 0.09379,-0.3475 0.05918,-0.1863 0.122242,-0.3858 0.140223,-0.4435 0.01802,-0.058 0.08067,-0.2556 0.139191,-0.4398 0.05854,-0.1843 0.131342,-0.4136 0.161727,-0.5099 0.03037,-0.096 0.07491,-0.2356 0.09885,-0.3098 0.02396,-0.074 0.144679,-0.4544 0.268228,-0.8447 0.245719,-0.7764 0.469102,-1.481 0.547487,-1.7269 0.04875,-0.1528 0.0696,-0.1874 0.08131,-0.1351 0.0027,0.012 0.02533,0.087 0.05021,0.1676 0.02488,0.08 0.113415,0.3653 0.196712,0.6347 0.08332,0.2693 0.20252,0.654 0.264926,0.8546 0.06238,0.2008 0.18163,0.5854 0.264945,0.8547 0.08332,0.2695 0.171129,0.5529 0.195184,0.6299 0.02396,0.077 0.143124,0.4615 0.264652,0.8546 0.12152,0.3931 0.225085,0.7272 0.230152,0.7426 0.01107,0.034 0.01948,0.028 -0.189962,0.092 -0.293784,0.089 -0.585052,0.1457 -0.889655,0.175 -0.149416,0.014 -0.542804,0.02 -0.687692,0.01 z m 10.553988,-4.6582 v -1.9193 h 0.64725 c 0.75473,1e-4 0.94316,0.01 1.26408,0.07 0.93578,0.172 1.4834,0.6499 1.61602,1.4099 0.0347,0.1986 0.042,0.5117 0.0169,0.7198 -0.0943,0.7804 -0.55697,1.2859 -1.37777,1.5053 -0.39973,0.1069 -0.72825,0.1339 -1.6291,0.1341 l -0.53729,10e-5 v -1.9192 z"
       id="path718" /></g></svg>
