<?xml version="1.0" encoding="UTF-8" standalone="no"?>
<!-- Created with Inkscape (http://www.inkscape.org/) -->

<svg
   width="200"
   height="99.99987"
   viewBox="0 0 52.916666 26.458299"
   version="1.1"
   id="svg5"
   xml:space="preserve"
   xmlns="http://www.w3.org/2000/svg"
   xmlns:svg="http://www.w3.org/2000/svg"><defs
     id="defs2" /><g
     id="layer1"
     transform="translate(-48.295082,-2367.8411)"><path
       style="fill:#000000;stroke-width:0.264583"
       d="m 48.295082,2381.0703 v -13.2292 h 26.458334 26.458334 v 13.2292 13.2291 H 74.753416 48.295082 Z m 27.591312,11.0143 c 1.296368,-0.5524 2.085924,-1.5653 2.23076,-2.8619 0.169534,-1.5177 -0.494366,-2.3437 -2.828534,-3.5192 -0.985109,-0.4961 -1.865718,-1.0964 -1.956906,-1.334 -0.348468,-0.9081 -0.159876,-1.7034 0.507653,-2.1408 0.658846,-0.4317 1.358176,-0.3592 3.14342,0.3259 0.177213,0.068 0.461754,-0.1827 0.632309,-0.557 0.400101,-0.8781 0.02006,-1.0454 -2.392891,-1.0536 -1.661269,-0.01 -1.837993,0.052 -2.645835,0.859 -0.738808,0.7382 -0.865662,1.0521 -0.865662,2.1421 0,1.5709 0.317313,1.973 2.365419,2.9973 0.881833,0.441 1.81169,0.9855 2.066352,1.21 0.675931,0.5959 0.60498,2.0488 -0.125019,2.5602 -0.80695,0.5652 -2.546365,0.5153 -3.558911,-0.1021 l -0.839659,-0.512 -0.286014,0.8205 c -0.336924,0.9665 -0.389749,0.8835 0.774707,1.2161 1.344562,0.3841 2.80471,0.3645 3.778811,-0.05 z m 20.654537,-0.3644 c 1.507289,-0.8698 1.759529,-1.7989 1.759992,-6.4827 l 4.1e-4,-4.1672 h -0.740825 -0.740826 l 0.01323,4.2044 c 0.01453,4.6239 -0.07312,4.9086 -1.722052,5.5916 -0.977516,0.4049 -2.807414,0.1417 -3.688686,-0.5306 -0.658603,-0.5023 -0.661458,-0.5234 -0.661458,-4.8851 v -4.3806 l -0.859896,10e-5 -0.859904,2e-4 v 4.4622 c 0,4.1171 0.04251,4.5163 0.549685,5.161 0.302329,0.3844 0.808345,0.8392 1.12448,1.0108 1.533668,0.8322 4.397687,0.84 5.82585,0.016 z m -14.596949,-2.051 -0.109935,-2.5135 h 2.015935 2.015934 v -0.7938 -0.7937 h -1.984375 -1.984375 v -1.5875 -1.5875 h 2.182813 c 2.151943,0 2.182812,-0.01 2.182812,-0.6615 v -0.6614 h -2.976562 -2.976563 v 5.1377 c 0,2.8258 -0.07227,5.3261 -0.160599,5.5563 -0.12954,0.3375 0.03912,0.4185 0.872125,0.4185 h 1.032724 z"
       id="path728" /></g></svg>
