<?xml version="1.0" encoding="UTF-8" standalone="no"?>
<!-- Created with Inkscape (http://www.inkscape.org/) -->

<svg
   width="422.27396"
   height="111.4973"
   viewBox="0 0 111.72665 29.500327"
   version="1.1"
   id="svg5"
   xml:space="preserve"
   xmlns="http://www.w3.org/2000/svg"
   xmlns:svg="http://www.w3.org/2000/svg"><defs
     id="defs2" /><g
     id="layer1"
     transform="translate(-198.13667,-3841.0381)"><g
       id="g131547"
       transform="matrix(0.09110123,0.3399944,-0.3399944,0.09110123,239.81942,3695.3146)"><path
         style="font-variation-settings:normal;opacity:1;vector-effect:none;fill:#000000;fill-opacity:0.999549;stroke:none;stroke-width:1;stroke-linecap:round;stroke-linejoin:miter;stroke-miterlimit:4;stroke-dasharray:none;stroke-dashoffset:0;stroke-opacity:1;-inkscape-stroke:none;stop-color:#000000;stop-opacity:1"
         d="m 405.3931,166.27142 -8.80534,9.13473 -7.73759,44.28285 10.47151,2.16067 11.37334,-59.37671 z"
         id="path131049" /><path
         style="font-variation-settings:normal;opacity:1;vector-effect:none;fill:#000000;fill-opacity:0.999549;stroke:none;stroke-width:1;stroke-linecap:round;stroke-linejoin:miter;stroke-miterlimit:4;stroke-dasharray:none;stroke-dashoffset:0;stroke-opacity:1;-inkscape-stroke:none;stop-color:#000000;stop-opacity:1"
         d="m 438.50647,-20.635397 -5.76564,5.202144 -0.89442,20.4477752 3.44031,0.2560449 z"
         id="path131051" /><path
         style="font-variation-settings:normal;vector-effect:none;fill:#000000;fill-opacity:0.999549;stroke:none;stroke-width:0.365534;stroke-linecap:round;stroke-linejoin:miter;stroke-miterlimit:4;stroke-dasharray:none;stroke-dashoffset:0;stroke-opacity:1;-inkscape-stroke:none;stop-color:#000000"
         d="m 404.51856,213.40425 c -0.81722,0.066 -6.69572,13.4943 -6.42225,13.64282 5.83428,4.46221 11.61822,4.20392 17.38952,2.75855 0.11058,-4.24267 0.10293,-8.48697 -1.4178,-12.75177 z"
         id="path131033" /><path
         style="font-variation-settings:normal;vector-effect:none;fill:#000000;fill-opacity:0.999549;stroke:none;stroke-width:0.365534;stroke-linecap:round;stroke-linejoin:miter;stroke-miterlimit:4;stroke-dasharray:none;stroke-dashoffset:0;stroke-opacity:1;-inkscape-stroke:none;stop-color:#000000"
         d="m 419.4704,217.49076 c -2.85498,4.07094 -4.48966,8.65883 -6.09122,13.26073 3.10274,4.42197 10.6806,6.5885 18.3968,3.77771 0.0959,-5.04145 0.10163,-10.06873 -0.79576,-14.95424 z"
         id="path131035" /><path
         style="font-variation-settings:normal;vector-effect:none;fill:#000000;fill-opacity:0.999549;stroke:none;stroke-width:0.365534;stroke-linecap:round;stroke-linejoin:miter;stroke-miterlimit:4;stroke-dasharray:none;stroke-dashoffset:0;stroke-opacity:1;-inkscape-stroke:none;stop-color:#000000"
         d="m 445.90099,218.95707 c 0.7603,0.30683 2.36523,14.87731 2.05991,14.93749 -6.89979,2.51855 -12.34331,0.54657 -17.42064,-2.55468 1.16012,-4.08247 2.43358,-8.13123 5.15734,-11.74818 z"
         id="path131037" /><path
         style="font-variation-settings:normal;opacity:1;vector-effect:none;fill:#ececec;fill-opacity:0.999549;stroke:none;stroke-width:1;stroke-linecap:round;stroke-linejoin:miter;stroke-miterlimit:4;stroke-dasharray:none;stroke-dashoffset:0;stroke-opacity:1;-inkscape-stroke:none;stop-color:#000000;stop-opacity:1"
         d="m 471.2392,-76.004141 c 3.20508,7.173893 3.24216,19.358167 4.68381,29.321029 L 474.57004,-3.0426244 437.05205,222.58637 c -26.43355,-5.40894 -39.15525,-3.81893 -40.2926,-3.90085 L 434.94927,-3.6115754 c 1.84742,-11.3787766 5.66851,-22.5405376 9.84021,-33.6637466 7.23519,-13.478453 15.02463,-26.757534 26.44972,-38.728819 z"
         id="path131039" /><path
         style="font-variation-settings:normal;opacity:1;vector-effect:none;fill:#000000;fill-opacity:0.999549;stroke:none;stroke-width:1;stroke-linecap:round;stroke-linejoin:miter;stroke-miterlimit:4;stroke-dasharray:none;stroke-dashoffset:0;stroke-opacity:1;-inkscape-stroke:none;stop-color:#000000;stop-opacity:1"
         d="m 466.3877,-69.681674 c 0.35566,7.550506 1.73432,16.277623 -0.66729,20.656838 -0.1762,1.748864 -10.88231,3.971584 -17.2251,5.997951 5.25109,-9.178358 10.95537,-18.17022 17.89239,-26.654789 z"
         id="path131041" /><path
         style="font-variation-settings:normal;opacity:1;vector-effect:none;fill:#000000;fill-opacity:0.999549;stroke:none;stroke-width:1;stroke-linecap:round;stroke-linejoin:miter;stroke-miterlimit:4;stroke-dasharray:none;stroke-dashoffset:0;stroke-opacity:1;-inkscape-stroke:none;stop-color:#000000;stop-opacity:1"
         d="m 471.2392,-76.004141 c 14.33111,-17.171496 23.67626,58.929477 20.34366,74.0065239 L 454.26402,228.06031 c -5.5127,-1.93296 -9.86443,-4.09177 -17.21197,-5.47394 l 37.51799,-225.6289944 1.35297,-43.6404876 z"
         id="path131043" /><path
         style="font-variation-settings:normal;opacity:1;vector-effect:none;fill:#000000;fill-opacity:0.999549;stroke:none;stroke-width:1;stroke-linecap:round;stroke-linejoin:miter;stroke-miterlimit:4;stroke-dasharray:none;stroke-dashoffset:0;stroke-opacity:1;-inkscape-stroke:none;stop-color:#000000;stop-opacity:1"
         d="m 451.61788,136.94905 -28.66827,31.29056 -7.59622,47.83683 24.78175,5.22119 14.41603,-83.49033 z"
         id="path131047" /><path
         style="font-variation-settings:normal;opacity:1;vector-effect:none;fill:#000000;fill-opacity:0.999549;stroke:none;stroke-width:1;stroke-linecap:round;stroke-linejoin:miter;stroke-miterlimit:4;stroke-dasharray:none;stroke-dashoffset:0;stroke-opacity:1;-inkscape-stroke:none;stop-color:#000000;stop-opacity:1"
         d="m 479.52177,-50.8797 -16.71518,16.190775 0.099,21.416283 16.15899,4.1467304 3.39891,-41.3787914 z"
         id="path131045" /></g></g></svg>
