<?xml version="1.0" encoding="UTF-8" standalone="no"?>
<!-- Created with Inkscape (http://www.inkscape.org/) -->

<svg
   width="311.99222"
   height="40.542614"
   viewBox="0 0 82.547939 10.7269"
   version="1.1"
   id="svg5"
   xml:space="preserve"
   sodipodi:docname="tesla.svg"
   inkscape:version="1.2.2 (b0a8486541, 2022-12-01)"
   xmlns:inkscape="http://www.inkscape.org/namespaces/inkscape"
   xmlns:sodipodi="http://sodipodi.sourceforge.net/DTD/sodipodi-0.dtd"
   xmlns="http://www.w3.org/2000/svg"
   xmlns:svg="http://www.w3.org/2000/svg"><sodipodi:namedview
     id="namedview5618"
     pagecolor="#ffffff"
     bordercolor="#cccccc"
     borderopacity="1"
     inkscape:showpageshadow="0"
     inkscape:pageopacity="1"
     inkscape:pagecheckerboard="0"
     inkscape:deskcolor="#d1d1d1"
     showgrid="false"
     inkscape:zoom="2.0994113"
     inkscape:cx="161.95016"
     inkscape:cy="-45.25078"
     inkscape:window-width="2560"
     inkscape:window-height="1403"
     inkscape:window-x="1920"
     inkscape:window-y="0"
     inkscape:window-maximized="1"
     inkscape:current-layer="svg5" /><defs
     id="defs2" /><g
     id="layer1"
     transform="translate(-62.004133,-1568.9466)"
     style="fill:#ffffff"><path
       style="fill:#ffffff;stroke-width:0.126194"
       d="m 67.682866,1575.3826 v -4.2907 h -1.834842 c -1.885499,0 -2.243458,-0.08 -2.975873,-0.6617 -0.28747,-0.2284 -0.868018,-1.1059 -0.868018,-1.3119 0,-0.1426 1.132179,-0.1717 6.688283,-0.1717 4.996831,0 6.688287,0.037 6.688287,0.1467 0,0.4131 -0.685482,1.2676 -1.299236,1.6196 -0.647214,0.3712 -0.683858,0.3767 -2.518133,0.3779 h -1.861365 v 4.2906 4.2906 h -1.009553 -1.00955 z m 14.374426,3.9994 c -0.522273,-0.2734 -1.376438,-1.2958 -1.376438,-1.6476 0,-0.1052 1.632674,-0.1435 6.120415,-0.1435 3.366228,0 6.120419,0.016 6.120419,0.037 0,0.02 -0.110238,0.2526 -0.244958,0.5166 -0.271509,0.5323 -1.003381,1.2297 -1.480902,1.4112 -0.170327,0.065 -2.171033,0.1178 -4.446023,0.1178 -4.07497,0 -4.144593,-0.01 -4.692513,-0.2912 z m 16.416929,0.1827 c 0,-0.2551 1.036899,-1.255 1.658769,-1.5995 l 0.67583,-0.3743 3.91201,-0.031 3.91202,-0.031 v -1.105 -1.1049 l -4.82693,-0.033 -4.826916,-0.033 2.46e-4,-3.1219 2.53e-4,-3.1218 5.853537,-0.023 c 5.58129,-0.022 5.85077,-0.012 5.79411,0.2048 -0.1017,0.389 -0.78929,1.1283 -1.36083,1.4632 l -0.54675,0.3204 -3.8292,0.027 -3.82917,0.026 -0.0364,1.1042 -0.0364,1.1043 h 4.80029 4.80029 v 3.2178 3.218 h -6.05732 c -3.33152,0 -6.057315,-0.048 -6.057315,-0.1083 z m 18.171949,-5.2548 v -5.3633 h 1.00955 1.00956 v 4.3538 4.3537 h 4.67768 4.67769 l -0.0841,0.2839 c -0.12044,0.4065 -0.70733,1.1201 -1.19366,1.4512 -0.41463,0.2823 -0.44554,0.2839 -5.25689,0.2839 h -4.83982 z m 15.90046,2.1453 v -3.2179 h 5.86802 5.86803 v 3.2179 3.2179 h -1.00956 -1.00955 v -2.1452 -2.1453 h -3.84892 -3.84891 v 2.1453 2.1452 h -1.00956 -1.00955 z m -50.414258,-1.3977 c -0.651106,-0.3395 -1.19762,-0.9478 -1.380362,-1.5363 l -0.08816,-0.2839 h 6.125791 6.125798 l -0.131728,0.3464 c -0.218021,0.5734 -0.730621,1.1551 -1.252444,1.4214 -0.463015,0.2362 -0.747206,0.2512 -4.756515,0.2504 -3.620245,0 -4.321199,-0.031 -4.642378,-0.198 z m 0.189005,-4.1665 c -0.720238,-0.3114 -1.640523,-1.3279 -1.640523,-1.8119 0,-0.091 1.931233,-0.1325 6.120415,-0.1325 3.366228,0 6.120419,0.031 6.120419,0.068 0,0.2022 -0.529933,1.0503 -0.840258,1.3449 -0.743671,0.7058 -0.940177,0.7327 -5.307653,0.7274 -3.294487,-0.01 -4.089593,-0.039 -4.4524,-0.196 z m 51.549203,-0.034 c -0.68217,-0.3099 -1.57634,-1.3622 -1.57634,-1.8551 0,-0.03 2.75801,-0.055 6.12892,-0.055 h 6.12891 l -0.0882,0.2839 c -0.20241,0.652 -0.89233,1.371 -1.5986,1.6661 -0.38917,0.1627 -1.13907,0.1949 -4.47816,0.1925 -3.60636,-0.01 -4.06172,-0.026 -4.51658,-0.2325 z"
       id="path1116" /></g></svg>
