<?xml version="1.0" encoding="UTF-8" standalone="no"?>
<!-- Created with Inkscape (http://www.inkscape.org/) -->

<svg
   width="300.9986"
   height="70.109619"
   viewBox="0 0 79.63921 18.549837"
   version="1.1"
   id="svg5"
   xml:space="preserve"
   sodipodi:docname="visier.svg"
   inkscape:version="1.2.2 (b0a8486541, 2022-12-01)"
   xmlns:inkscape="http://www.inkscape.org/namespaces/inkscape"
   xmlns:sodipodi="http://sodipodi.sourceforge.net/DTD/sodipodi-0.dtd"
   xmlns="http://www.w3.org/2000/svg"
   xmlns:svg="http://www.w3.org/2000/svg"><sodipodi:namedview
     id="namedview5741"
     pagecolor="#ffffff"
     bordercolor="#cccccc"
     borderopacity="1"
     inkscape:showpageshadow="0"
     inkscape:pageopacity="1"
     inkscape:pagecheckerboard="0"
     inkscape:deskcolor="#d1d1d1"
     showgrid="false"
     inkscape:zoom="4.3521798"
     inkscape:cx="150.4993"
     inkscape:cy="35.154798"
     inkscape:window-width="1920"
     inkscape:window-height="1043"
     inkscape:window-x="0"
     inkscape:window-y="360"
     inkscape:window-maximized="1"
     inkscape:current-layer="svg5" /><defs
     id="defs2" /><g
     id="layer1"
     transform="translate(-63.797335,-1665.3106)"
     style="fill:#ffffff"><path
       style="fill:#ffffff;stroke-width:0.106185"
       d="m 95.527821,1683.7174 c -1.701191,-0.2863 -2.969128,-0.8853 -3.984078,-1.8822 -0.861834,-0.8466 -1.346445,-1.9171 -1.563533,-3.4539 l -0.06375,-0.4513 h 2.325521 2.325516 l 0.07377,0.3933 c 0.151062,0.8052 0.600472,1.4184 1.297612,1.7707 0.775805,0.3919 2.55981,0.4122 3.430594,0.039 0.20441,-0.088 0.512789,-0.3094 0.685297,-0.4928 0.26605,-0.2829 0.32029,-0.4379 0.35748,-1.0219 0.0433,-0.6806 0.0392,-0.6932 -0.36673,-1.0969 -0.530055,-0.5271 -1.254385,-0.7904 -2.964152,-1.0775 -3.254136,-0.5464 -4.666136,-1.0928 -5.673898,-2.1954 -0.751789,-0.8226 -0.984172,-1.4999 -1.040338,-3.0322 -0.03861,-1.053 -0.01087,-1.3597 0.179837,-1.9875 0.768901,-2.5315 3.658308,-4.0577 7.389002,-3.9031 2.289059,0.095 3.838809,0.6217 5.005479,1.7018 0.73054,0.6763 1.30291,1.6571 1.56898,2.6884 0.30997,1.2015 0.5038,1.0997 -2.09264,1.0997 h -2.26097 l -0.13421,-0.5018 c -0.09385,-0.3509 -0.272358,-0.6342 -0.593783,-0.9421 -0.563325,-0.5398 -1.232397,-0.7278 -2.33704,-0.6569 -1.363064,0.088 -2.182105,0.7628 -2.182105,1.7995 0,0.436 0.05391,0.5748 0.345105,0.8881 0.450505,0.485 1.11517,0.7062 3.159017,1.0512 2.116456,0.3575 3.149636,0.6255 4.081056,1.0586 1.82214,0.8474 2.71482,2.3349 2.71482,4.5241 0,1.3413 -0.41433,2.6419 -1.13442,3.5607 -0.80035,1.0213 -2.39381,1.826 -4.1935,2.118 -1.181358,0.1916 -3.223161,0.1927 -4.353944,0.01 z m 25.096499,-0.01 c -1.08273,-0.1978 -1.72379,-0.4211 -2.83166,-0.9862 -0.75774,-0.3865 -1.14259,-0.6751 -1.85825,-1.3936 -1.84204,-1.8494 -2.49908,-3.6147 -2.49103,-6.6932 0.005,-1.9803 0.22837,-3.0425 0.9482,-4.5129 0.84705,-1.7303 2.07982,-2.9641 3.82583,-3.8292 1.26851,-0.6285 2.35938,-0.8976 3.92886,-0.9696 3.64745,-0.1672 6.63992,1.4 8.04744,4.2148 0.73432,1.4684 0.93678,2.3627 1.00342,4.4323 l 0.0555,1.7247 -6.41106,0.027 -6.41108,0.027 0.0316,0.4248 c 0.0438,0.5878 0.30851,1.4861 0.61769,2.0962 0.72932,1.4392 2.33604,2.2224 4.23089,2.0622 1.70272,-0.1439 2.64449,-0.78 3.13057,-2.1144 l 0.10637,-0.292 h 2.34073 2.34074 l -0.0645,0.292 c -0.40536,1.8341 -1.36404,3.2929 -2.78484,4.2378 -0.81715,0.5435 -2.22787,1.0588 -3.43432,1.2546 -1.19528,0.1938 -3.25069,0.1923 -4.32117,-0.01 z m 5.82063,-11.1702 c -0.008,-0.3714 -0.35233,-1.5905 -0.56898,-2.018 -0.72235,-1.4255 -2.53938,-2.1335 -4.31418,-1.681 -1.37089,0.3495 -2.43169,1.4076 -2.82508,2.818 -0.0904,0.324 -0.18765,0.6725 -0.21622,0.7749 -0.0487,0.1745 0.18903,0.1858 3.93718,0.1858 2.19401,0 3.98828,-0.036 3.98728,-0.08 z m -56.220512,10.8327 c -0.04085,-0.1032 -1.069271,-2.9113 -2.285388,-6.2402 -1.216114,-3.3288 -2.645502,-7.2389 -3.176415,-8.6891 -0.530917,-1.4501 -0.9653,-2.6566 -0.9653,-2.6812 0,-0.025 1.190262,-0.045 2.645023,-0.045 h 2.645024 l 2.041033,6.1322 c 1.122567,3.3728 2.079353,6.2039 2.126184,6.2916 0.07569,0.1416 0.09141,0.1416 0.14147,0 0.03099,-0.088 0.968463,-2.9188 2.083308,-6.2916 l 2.026991,-6.1322 h 2.383622 c 1.310992,0 2.381048,0.036 2.377902,0.08 -0.0032,0.044 -1.449146,4.0456 -3.213337,8.893 l -3.207622,8.8134 -2.774113,0.028 c -2.568234,0.026 -2.779622,0.014 -2.848382,-0.1593 z m 13.323403,-8.7355 v -8.9196 h 2.442264 2.442267 v 8.9196 8.9196 h -2.442267 -2.442264 z m 23.254629,0 v -8.9196 h 2.44226 2.44227 v 8.9196 8.9196 h -2.44227 -2.44226 z m 25.98005,8.8488 c -0.039,-0.039 -0.0708,-4.0528 -0.0708,-8.9196 v -8.8488 h 2.4926 2.4926 l 0.0294,1.6193 0.0293,1.6193 0.33267,-0.5841 c 0.96518,-1.6942 2.59235,-2.717 4.63151,-2.9108 l 0.71675,-0.069 v 2.3391 2.339 h -0.68086 c -2.096,0 -3.86032,0.8263 -4.51829,2.116 -0.49133,0.9632 -0.53163,1.4592 -0.5333,6.5647 l -0.002,4.8049 h -2.42457 c -1.33352,0 -2.45643,-0.032 -2.49536,-0.07 z"
       id="path969" /></g></svg>
