<?xml version="1.0" encoding="UTF-8" standalone="no"?>
<!-- Created with Inkscape (http://www.inkscape.org/) -->

<svg
   width="159.12035mm"
   height="159.12035mm"
   viewBox="0 0 159.12035 159.12035"
   version="1.1"
   id="svg14802"
   inkscape:version="1.1.1 (1:1.1+202109281949+c3084ef5ed)"
   sodipodi:docname="art.svg"
   xmlns:inkscape="http://www.inkscape.org/namespaces/inkscape"
   xmlns:sodipodi="http://sodipodi.sourceforge.net/DTD/sodipodi-0.dtd"
   xmlns="http://www.w3.org/2000/svg"
   xmlns:svg="http://www.w3.org/2000/svg">
  <sodipodi:namedview
     id="namedview14804"
     pagecolor="#ffffff"
     bordercolor="#666666"
     borderopacity="1.0"
     inkscape:pageshadow="2"
     inkscape:pageopacity="0.0"
     inkscape:pagecheckerboard="0"
     inkscape:document-units="mm"
     showgrid="false"
     inkscape:zoom="0.66368547"
     inkscape:cx="395.51868"
     inkscape:cy="589.13449"
     inkscape:window-width="1920"
     inkscape:window-height="1043"
     inkscape:window-x="0"
     inkscape:window-y="0"
     inkscape:window-maximized="1"
     inkscape:current-layer="layer1" />
  <defs
     id="defs14799" />
  <g
     inkscape:label="Layer 1"
     inkscape:groupmode="layer"
     id="layer1"
     transform="translate(-0.57002659,7.4031355)">
    <g
       id="g14520"
       transform="translate(-812.49242,-2502.3039)">
      <path
         style="fill:none;stroke:#000000;stroke-width:3;stroke-miterlimit:4;stroke-dasharray:none;stop-color:#000000"
         d="m 943.94291,2600.0014 a 25.542397,25.542397 0 0 1 -24.90183,-26.1674 25.542397,25.542397 0 0 1 26.16746,-24.9018 25.542397,25.542397 0 0 1 24.90184,26.1674 25.542397,25.542397 0 0 1 -26.16747,24.9018 z"
         id="path14158" />
      <path
         style="fill:none;stroke:#000000;stroke-width:3;stroke-miterlimit:4;stroke-dasharray:none;stop-color:#000000"
         d="m 896.35708,2632.017 a 25.542454,25.542454 0 0 1 9.65908,-34.8072 25.542454,25.542454 0 0 1 34.80717,9.6592 25.542454,25.542454 0 0 1 -9.6591,34.8073 25.542454,25.542454 0 0 1 -34.80715,-9.6593 z"
         id="path14160" />
      <path
         style="fill:none;stroke:#000000;stroke-width:3;stroke-miterlimit:4;stroke-dasharray:none;stop-color:#000000"
         d="m 844.41416,2606.8676 a 25.542463,25.542463 0 0 1 34.80715,-9.6593 25.542463,25.542463 0 0 1 9.65915,34.8072 25.542463,25.542463 0 0 1 -34.80717,9.6592 25.542463,25.542463 0 0 1 -9.65913,-34.8071 z"
         id="path14162" />
      <path
         style="fill:none;stroke:#000000;stroke-width:3;stroke-miterlimit:4;stroke-dasharray:none;stop-color:#000000"
         d="m 841.30227,2548.9228 a 25.542397,25.542397 0 0 1 24.90183,26.1674 25.542397,25.542397 0 0 1 -26.16746,24.9018 25.542397,25.542397 0 0 1 -24.90184,-26.1674 25.542397,25.542397 0 0 1 26.16747,-24.9018 z"
         id="path14164" />
      <path
         style="fill:none;stroke:#000000;stroke-width:3;stroke-miterlimit:4;stroke-dasharray:none;stop-color:#000000"
         d="m 888.87617,2516.9063 a 25.542463,25.542463 0 0 1 -9.65913,34.8072 25.542463,25.542463 0 0 1 -34.80717,-9.6593 25.542463,25.542463 0 0 1 9.65914,-34.8072 25.542463,25.542463 0 0 1 34.80716,9.6593 z"
         id="path14166" />
      <path
         style="fill:none;stroke:#000000;stroke-width:3;stroke-miterlimit:4;stroke-dasharray:none;stop-color:#000000"
         d="m 940.82488,2542.0529 a 25.542454,25.542454 0 0 1 -34.80716,9.6592 25.542454,25.542454 0 0 1 -9.65909,-34.8072 25.542454,25.542454 0 0 1 34.80717,-9.6592 25.542454,25.542454 0 0 1 9.65908,34.8072 z"
         id="path14168" />
      <path
         style="fill:none;stroke:#000000;stroke-width:3;stroke-miterlimit:4;stroke-dasharray:none;stop-color:#000000"
         d="m 943.94291,2600.0014 a 25.542397,25.542397 0 0 1 -24.90183,-26.1674 25.542397,25.542397 0 0 1 26.16746,-24.9018 25.542397,25.542397 0 0 1 24.90184,26.1674 25.542397,25.542397 0 0 1 -26.16747,24.9018 z"
         id="path14170" />
      <circle
         style="fill:none;fill-opacity:1;stroke:#000000;stroke-width:3;stroke-miterlimit:4;stroke-dasharray:none;stop-color:#000000"
         id="circle14174"
         cx="2074.6074"
         cy="1783.1267"
         r="11.795868"
         transform="rotate(30)" />
      <circle
         style="fill:none;fill-opacity:1;stroke:#000000;stroke-width:3;stroke-miterlimit:4;stroke-dasharray:none;stop-color:#000000"
         id="circle14176"
         cx="2074.6074"
         cy="1783.1267"
         r="6.2478456"
         transform="rotate(30)" />
      <circle
         style="fill:none;fill-opacity:1;stroke:#000000;stroke-width:3;stroke-miterlimit:4;stroke-dasharray:none;stop-color:#000000"
         id="circle14180"
         cx="-2548.6145"
         cy="925.729"
         r="11.795868"
         transform="rotate(-89.26221)" />
      <circle
         style="fill:none;fill-opacity:1;stroke:#000000;stroke-width:3;stroke-miterlimit:4;stroke-dasharray:none;stop-color:#000000"
         id="circle14182"
         cx="-2548.6145"
         cy="925.729"
         r="6.2478456"
         transform="rotate(-89.26221)" />
      <circle
         style="fill:none;fill-opacity:1;stroke:#000000;stroke-width:3;stroke-miterlimit:4;stroke-dasharray:none;stop-color:#000000"
         id="circle14186"
         cx="506.44864"
         cy="-2680.1323"
         r="11.795868"
         transform="rotate(150.46653)" />
      <circle
         style="fill:none;fill-opacity:1;stroke:#000000;stroke-width:3;stroke-miterlimit:4;stroke-dasharray:none;stop-color:#000000"
         id="circle14188"
         cx="506.44864"
         cy="-2680.1323"
         r="6.2478456"
         transform="rotate(150.46653)" />
      <circle
         style="fill:none;fill-opacity:1;stroke:#000000;stroke-width:3;stroke-miterlimit:4;stroke-dasharray:none;stop-color:#000000"
         id="circle14194"
         cx="892.62262"
         cy="2574.4609"
         r="78.060173" />
    </g>
  </g>
</svg>
