<?xml version="1.0" encoding="UTF-8" standalone="no"?>
<!-- Created with Inkscape (http://www.inkscape.org/) -->

<svg
   width="187.2164mm"
   height="275.56271mm"
   viewBox="0 0 187.2164 275.56271"
   version="1.1"
   id="svg12382"
   inkscape:version="1.1.1 (1:1.1+202109281949+c3084ef5ed)"
   sodipodi:docname="cygnus.svg"
   xmlns:inkscape="http://www.inkscape.org/namespaces/inkscape"
   xmlns:sodipodi="http://sodipodi.sourceforge.net/DTD/sodipodi-0.dtd"
   xmlns="http://www.w3.org/2000/svg"
   xmlns:svg="http://www.w3.org/2000/svg">
  <sodipodi:namedview
     id="namedview12384"
     pagecolor="#ffffff"
     bordercolor="#666666"
     borderopacity="1.0"
     inkscape:pageshadow="2"
     inkscape:pageopacity="0.0"
     inkscape:pagecheckerboard="0"
     inkscape:document-units="mm"
     showgrid="false"
     inkscape:zoom="0.68684765"
     inkscape:cx="181.2629"
     inkscape:cy="652.25527"
     inkscape:window-width="1920"
     inkscape:window-height="1043"
     inkscape:window-x="0"
     inkscape:window-y="0"
     inkscape:window-maximized="1"
     inkscape:current-layer="layer1" />
  <defs
     id="defs12379" />
  <g
     inkscape:label="Layer 1"
     inkscape:groupmode="layer"
     id="layer1"
     transform="translate(1.1568,-18.6155)">
    <g
       id="g12323"
       transform="matrix(-1,0,0,1,-1744.6792,-1353.659)">
      <path
         style="font-variation-settings:normal;opacity:1;vector-effect:none;fill:#000000;fill-opacity:0.999549;stroke:none;stroke-width:1;stroke-linecap:round;stroke-linejoin:miter;stroke-miterlimit:4;stroke-dasharray:none;stroke-dashoffset:0;stroke-opacity:1;-inkscape-stroke:none;stop-color:#000000;stop-opacity:1"
         d="m -1855.2566,1603.7713 -5.0544,1.2981 -8.2563,-10.9888 -19.9503,-9.7171 -21.8817,-0.7096 -16.6481,10.398 -3.4899,19.0716 38.9934,-1.0878 0.084,1.4675 -39.2789,1.3993 12.8559,20.7648 25.0087,12.1699 24.2699,-3.1108 13.7377,-14.0082 -0.653,-18.5655 2.4715,-5.0038 z"
         id="path5798"
         sodipodi:nodetypes="ccccccccccccccccc" />
      <path
         style="font-variation-settings:normal;opacity:1;vector-effect:none;fill:#e6e6e6;fill-opacity:0.999549;stroke:none;stroke-width:1;stroke-linecap:round;stroke-linejoin:miter;stroke-miterlimit:4;stroke-dasharray:none;stroke-dashoffset:0;stroke-opacity:1;-inkscape-stroke:none;stop-color:#000000;stop-opacity:1"
         d="m -1855.2566,1603.7713 2.2082,3.3776 2.4485,-0.6798 c 1.1809,4.1958 3.7347,8.2335 6.9637,12.1935 17.6629,12.3087 32.3991,14.7227 41.9003,-0.5622 l 16.3839,-18.4668 26.3258,-39.4918 15.5038,-23.0438 c -12.8141,13.0328 -57.114,-10.528 -62.3107,-34.8012 l -47.0702,93.5134 -4.0343,2.3378 z"
         id="path5802"
         sodipodi:nodetypes="cccccccccccc" />
      <path
         style="font-variation-settings:normal;opacity:1;vector-effect:none;fill:#000000;fill-opacity:0.999549;stroke:none;stroke-width:1;stroke-linecap:round;stroke-linejoin:miter;stroke-miterlimit:4;stroke-dasharray:none;stroke-dashoffset:0;stroke-opacity:1;-inkscape-stroke:none;stop-color:#000000;stop-opacity:1"
         d="m -1798.2904,1619.3255 5.3765,5.7956 19.1595,8.7317 14.3922,-1.4534 5.7053,-10.8768 -4.9284,-14.6144 -21.5602,1.3565 v -1.2761 l 20.9691,-1.1802 -12.4075,-13.0777 -6.8758,-3.2557 -6.8933,10.1586 -12.8058,15.1578 z"
         id="path5804" />
      <path
         style="font-variation-settings:normal;opacity:1;vector-effect:none;fill:#999999;fill-opacity:0.999549;stroke:none;stroke-width:1;stroke-linecap:round;stroke-linejoin:miter;stroke-miterlimit:4;stroke-dasharray:none;stroke-dashoffset:0;stroke-opacity:1;-inkscape-stroke:none;stop-color:#000000;stop-opacity:1"
         d="m -1791.6772,1524.3775 -55.0655,89.7602 9.1271,7.5965 15.0284,6.632 11.2657,-1.1106 9.8258,-7.9968 c 19.196,-21.7222 38.5285,-52.8956 57.8299,-81.9164 -11.8656,6.5771 -27.5136,2.2065 -48.0114,-12.9649 z"
         id="path6121"
         sodipodi:nodetypes="cccccccc" />
      <path
         id="path5806"
         style="font-variation-settings:normal;opacity:1;vector-effect:none;fill:#333333;fill-opacity:0.999549;stroke:none;stroke-width:1;stroke-linecap:round;stroke-linejoin:miter;stroke-miterlimit:4;stroke-dasharray:none;stroke-dashoffset:0;stroke-opacity:1;-inkscape-stroke:none;stop-color:#000000;stop-opacity:1"
         d="m -1843.0872,1576.3089 -9.8159,19.5011 -4.0344,2.3379 1.681,5.6234 2.2082,3.3776 2.4484,-0.6801 c 1.1809,4.1958 3.7349,8.2336 6.9639,12.1936 17.6629,12.3087 31.7782,14.8603 42.1403,0.5964 4.0339,-4.3182 7.4939,-9.0527 11.2158,-13.5974 -21.851,3.893 -41.0443,-1.6418 -52.8073,-29.3525 z"
         sodipodi:nodetypes="cccccccccc" />
      <path
         style="font-variation-settings:normal;opacity:1;vector-effect:none;fill:#cccccc;fill-opacity:0.999549;stroke:none;stroke-width:1;stroke-linecap:round;stroke-linejoin:miter;stroke-miterlimit:4;stroke-dasharray:none;stroke-dashoffset:0;stroke-opacity:1;-inkscape-stroke:none;stop-color:#000000;stop-opacity:1"
         d="m -1787.9083,1496.9896 -2.9873,1.3454 c -12.788,20.3686 32.6783,35.1286 43.7701,28.0616 l -1.4776,-4.8183 c -19.8277,0.1602 -32.979,-7.9744 -39.3052,-24.5887 z"
         id="path5810"
         sodipodi:nodetypes="ccccc" />
      <path
         style="font-variation-settings:normal;opacity:1;vector-effect:none;fill:#ececec;fill-opacity:0.999549;stroke:none;stroke-width:1;stroke-linecap:round;stroke-linejoin:miter;stroke-miterlimit:4;stroke-dasharray:none;stroke-dashoffset:0;stroke-opacity:1;-inkscape-stroke:none;stop-color:#000000;stop-opacity:1"
         d="m -1790.8956,1498.335 -7.9848,-0.1861 -7.1129,3.0777 c 2.4007,30.5648 48.2169,47.6351 62.3275,36.1158 l -0.9748,-7.4491 -2.4849,-3.4967 c -14.2074,5.995 -53.9528,-11.4079 -43.7701,-28.0616 z"
         id="path5812"
         sodipodi:nodetypes="ccccccc" />
      <path
         style="font-variation-settings:normal;opacity:1;vector-effect:none;fill:#999999;fill-opacity:0.999549;stroke:none;stroke-width:1;stroke-linecap:round;stroke-linejoin:miter;stroke-miterlimit:4;stroke-dasharray:none;stroke-dashoffset:0;stroke-opacity:1;-inkscape-stroke:none;stop-color:#000000;stop-opacity:1"
         d="m -1842.7227,1576.1792 -16.8331,-100.3363 -8.1913,2.1008 20.9053,105.8245 z"
         id="path5820" />
      <path
         style="font-variation-settings:normal;opacity:1;vector-effect:none;fill:#b3b3b3;fill-opacity:0.999549;stroke:none;stroke-width:1;stroke-linecap:round;stroke-linejoin:miter;stroke-miterlimit:4;stroke-dasharray:none;stroke-dashoffset:0;stroke-opacity:1;-inkscape-stroke:none;stop-color:#000000;stop-opacity:1"
         d="m -1870.2589,1471.23 1.902,4.7905 0.6098,1.9232 8.1913,-2.1008 -1.2949,-7.7541 -1.5164,-0.2203 -0.7809,-1.1306 -4.7111,0.942 0.4738,1.0654 -1.739,0.1058 z"
         id="path5822"
         sodipodi:nodetypes="ccccccccccc" />
      <path
         style="font-variation-settings:normal;opacity:1;vector-effect:none;fill:#999999;fill-opacity:0.999549;stroke:none;stroke-width:1;stroke-linecap:round;stroke-linejoin:miter;stroke-miterlimit:4;stroke-dasharray:none;stroke-dashoffset:0;stroke-opacity:1;-inkscape-stroke:none;stop-color:#000000;stop-opacity:1"
         d="m -1860.8507,1468.0888 1.2949,7.7541 6.5028,-3.2311 54.6486,-56.3042 c -4.6674,1.0372 -9.5177,0.1681 -11.4762,-5.4481 l -47.8343,56.7778 z"
         id="path5824"
         sodipodi:nodetypes="ccccccc" />
      <path
         style="font-variation-settings:normal;opacity:1;vector-effect:none;fill:#e6e6e6;fill-opacity:0.999549;stroke:none;stroke-width:1;stroke-linecap:round;stroke-linejoin:miter;stroke-miterlimit:4;stroke-dasharray:none;stroke-dashoffset:0;stroke-opacity:1;-inkscape-stroke:none;stop-color:#000000;stop-opacity:1"
         d="m -1868.7253,1469.8049 0.794,0.6532 2.1186,-0.5082 1.4587,1.1012 3.8419,-0.6417 -0.3452,-2.3441 -2.2907,-1.3274 -4.7111,0.942 0.4738,1.0654 -1.739,0.1058 z"
         id="path5826"
         sodipodi:nodetypes="ccccccccccc" />
      <path
         style="font-variation-settings:normal;opacity:1;vector-effect:none;fill:#000000;fill-opacity:0.999549;stroke:none;stroke-width:1;stroke-linecap:round;stroke-linejoin:miter;stroke-miterlimit:4;stroke-dasharray:none;stroke-dashoffset:0;stroke-opacity:1;-inkscape-stroke:none;stop-color:#000000;stop-opacity:1"
         d="m -1817.9611,1420.5419 c 0.4241,5.9227 4.8181,7.6515 8.4173,7.1817 l 3.1023,-2.9848 c -3.3745,-0.3872 -8.2422,-1.9812 -8.3118,-8.0308 z"
         id="path5828"
         sodipodi:nodetypes="ccccc" />
      <path
         style="font-variation-settings:normal;opacity:1;vector-effect:none;fill:#666666;fill-opacity:0.999549;stroke:none;stroke-width:1;stroke-linecap:round;stroke-linejoin:miter;stroke-miterlimit:4;stroke-dasharray:none;stroke-dashoffset:0;stroke-opacity:1;-inkscape-stroke:none;stop-color:#000000;stop-opacity:1"
         d="m -1807.6059,1403.5515 -2.2747,7.308 c 1.815,4.6285 5.1161,7.1781 11.4762,5.4481 l 5.9436,-3.0158 0.4853,-8.8417 -5.5609,-5.47 -6.8927,1.4999 z"
         id="path5830"
         sodipodi:nodetypes="cccccccc" />
      <path
         style="font-variation-settings:normal;opacity:1;vector-effect:none;fill:#333333;fill-opacity:0.999549;stroke:none;stroke-width:1;stroke-linecap:round;stroke-linejoin:miter;stroke-miterlimit:4;stroke-dasharray:none;stroke-dashoffset:0;stroke-opacity:1;-inkscape-stroke:none;stop-color:#000000;stop-opacity:1"
         d="m -1797.5364,1398.9801 9.543,0.499 1.3858,-0.055 5.3792,0.9532 3.5032,4.9852 -0.9769,4.6293 -1.8983,3.8828 -9.1811,0.8377 -3.0276,-1.3345 0.8336,-8.9276 z"
         id="path5832"
         sodipodi:nodetypes="ccccccccccc" />
      <path
         style="font-variation-settings:normal;opacity:1;vector-effect:none;fill:#666666;fill-opacity:0.999549;stroke:none;stroke-width:1;stroke-linecap:round;stroke-linejoin:miter;stroke-miterlimit:4;stroke-dasharray:none;stroke-dashoffset:0;stroke-opacity:1;-inkscape-stroke:none;stop-color:#000000;stop-opacity:1"
         d="m -1799.5943,1402.8092 0.5648,-7.7577 12.3621,0.8124 -1.326,3.6152 1.6379,3.8176 z"
         id="path5834"
         sodipodi:nodetypes="cccccc" />
      <path
         style="font-variation-settings:normal;opacity:1;vector-effect:none;fill:#333333;fill-opacity:0.999549;stroke:none;stroke-width:1;stroke-linecap:round;stroke-linejoin:miter;stroke-miterlimit:4;stroke-dasharray:none;stroke-dashoffset:0;stroke-opacity:1;-inkscape-stroke:none;stop-color:#000000;stop-opacity:1"
         d="m -1800.8441,1395.0531 c 0.402,-0.01 17.9334,1.1196 17.9334,1.1196 l 2.6497,-22.6925 -20.4873,-1.2057 0.7397,8.6405 -3.4851,-0.2544 -0.8654,5.1883 1.9233,3.1601 2.2176,1.605 z"
         id="path5836"
         sodipodi:nodetypes="cccccccccc" />
      <path
         style="font-variation-settings:normal;opacity:1;vector-effect:none;fill:#1a1a1a;fill-opacity:0.999549;stroke:none;stroke-width:1;stroke-linecap:round;stroke-linejoin:miter;stroke-miterlimit:4;stroke-dasharray:none;stroke-dashoffset:0;stroke-opacity:1;-inkscape-stroke:none;stop-color:#000000;stop-opacity:1"
         d="m -1787.9083,1496.9896 c 1.9499,15.9834 21.7446,25.3936 39.3052,24.5887 -3.3842,-15.7564 -24.1703,-27.5827 -39.3052,-24.5887 z"
         id="path5808"
         sodipodi:nodetypes="ccc" />
    </g>
  </g>
</svg>
