<?xml version="1.0" encoding="UTF-8" standalone="no"?>
<!-- Created with Inkscape (http://www.inkscape.org/) -->

<svg
   width="129.53378mm"
   height="84.997452mm"
   viewBox="0 0 129.53378 84.997452"
   version="1.1"
   id="svg136199"
   inkscape:version="1.1.1 (1:1.1+202109281949+c3084ef5ed)"
   sodipodi:docname="depart.svg"
   xmlns:inkscape="http://www.inkscape.org/namespaces/inkscape"
   xmlns:sodipodi="http://sodipodi.sourceforge.net/DTD/sodipodi-0.dtd"
   xmlns="http://www.w3.org/2000/svg"
   xmlns:svg="http://www.w3.org/2000/svg">
  <sodipodi:namedview
     id="namedview136201"
     pagecolor="#ffffff"
     bordercolor="#666666"
     borderopacity="1.0"
     inkscape:pageshadow="2"
     inkscape:pageopacity="0.0"
     inkscape:pagecheckerboard="0"
     inkscape:document-units="mm"
     showgrid="false"
     inkscape:zoom="0.68684764"
     inkscape:cx="48.773553"
     inkscape:cy="136.85713"
     inkscape:window-width="1920"
     inkscape:window-height="1043"
     inkscape:window-x="0"
     inkscape:window-y="0"
     inkscape:window-maximized="1"
     inkscape:current-layer="layer1" />
  <defs
     id="defs136196" />
  <g
     inkscape:label="Layer 1"
     inkscape:groupmode="layer"
     id="layer1"
     transform="translate(-92.015211,-111.9721)">
    <g
       id="g93857"
       transform="matrix(0.26197826,0,0,0.26197826,-384.63076,-477.9478)">
      <path
         style="font-variation-settings:normal;opacity:1;vector-effect:none;fill:#000000;fill-opacity:0.999549;stroke:none;stroke-width:1;stroke-linecap:round;stroke-linejoin:miter;stroke-miterlimit:4;stroke-dasharray:none;stroke-dashoffset:0;stroke-opacity:1;-inkscape-stroke:none;stop-color:#000000;stop-opacity:1"
         d="m 2099.7912,2408.6025 159.0075,-156.813 c 31.843,29.7187 49.1075,65.0574 55.0565,104.7582 l -202.7872,65.898 z"
         id="path90594"
         sodipodi:nodetypes="ccccc" />
      <path
         style="font-variation-settings:normal;opacity:1;vector-effect:none;fill:#000000;fill-opacity:0.999549;stroke:none;stroke-width:1;stroke-linecap:round;stroke-linejoin:miter;stroke-miterlimit:4;stroke-dasharray:none;stroke-dashoffset:0;stroke-opacity:1;-inkscape-stroke:none;stop-color:#000000;stop-opacity:1"
         d="m 2049.0035,2416.4611 -184.7962,-128.6413 c -28.7305,37.6141 -40.8712,79.146 -44.7969,122.6181 l 222.4612,20.0401 c 0.7913,-5.1401 2.2508,-10.0832 7.1319,-14.0169 z"
         id="path90426"
         sodipodi:nodetypes="ccccc" />
      <path
         style="font-variation-settings:normal;opacity:1;vector-effect:none;fill:#333333;fill-opacity:0.999549;stroke:none;stroke-width:1;stroke-linecap:round;stroke-linejoin:miter;stroke-miterlimit:4;stroke-dasharray:none;stroke-dashoffset:0;stroke-opacity:1;-inkscape-stroke:none;stop-color:#000000;stop-opacity:1"
         d="m 2098.024,2571.2606 c -1.2104,0.3579 14.7107,5.9349 29.1803,4.8286 6.8189,-0.5214 10.9077,-6.3201 16.2461,-8.6692 l -37.9468,-3.6893 z"
         id="path88579"
         sodipodi:nodetypes="csccc" />
      <path
         style="font-variation-settings:normal;opacity:1;vector-effect:none;fill:#000000;fill-opacity:0.999549;stroke:#000000;stroke-width:1;stroke-linecap:round;stroke-linejoin:miter;stroke-miterlimit:4;stroke-dasharray:none;stroke-dashoffset:0;stroke-opacity:1;-inkscape-stroke:none;stop-color:#000000;stop-opacity:1"
         d="m 2054.4669,2408.3287 c -0.2113,-0.4223 -2.0557,-3.8084 -2.0557,-3.8084 2.5682,-6.1867 7.5009,-6.2401 13.425,-3.7222 l 0.1197,2.7649 z"
         id="path90984"
         sodipodi:nodetypes="ccccc" />
      <path
         style="font-variation-settings:normal;opacity:1;vector-effect:none;fill:#000000;fill-opacity:0.999549;stroke:#000000;stroke-width:1;stroke-linecap:round;stroke-linejoin:miter;stroke-miterlimit:4;stroke-dasharray:none;stroke-dashoffset:0;stroke-opacity:1;-inkscape-stroke:none;stop-color:#000000;stop-opacity:1"
         d="m 2084.3476,2402.9985 c 0.058,-0.4687 0.3969,-4.3096 0.3969,-4.3096 5.5641,-3.7298 9.7013,-1.043 13.2402,4.3338 l -1.4312,2.3687 z"
         id="path91236"
         sodipodi:nodetypes="ccccc" />
      <path
         style="font-variation-settings:normal;opacity:1;vector-effect:none;fill:#cccccc;fill-opacity:0.999549;stroke:none;stroke-width:1;stroke-linecap:round;stroke-linejoin:miter;stroke-miterlimit:4;stroke-dasharray:none;stroke-dashoffset:0;stroke-opacity:1;-inkscape-stroke:none;stop-color:#000000;stop-opacity:1"
         d="m 2034.8146,2474.7001 c 0.9504,1.5905 29.4467,61.0883 29.2745,60.0998 -0.1723,-0.9886 -25.1796,-83.5801 -25.1796,-83.5801 z"
         id="path86988"
         sodipodi:nodetypes="cscc" />
      <path
         style="font-variation-settings:normal;opacity:1;vector-effect:none;fill:#ececec;fill-opacity:0.999549;stroke:none;stroke-width:1;stroke-linecap:round;stroke-linejoin:miter;stroke-miterlimit:4;stroke-dasharray:none;stroke-dashoffset:0;stroke-opacity:1;-inkscape-stroke:none;stop-color:#000000;stop-opacity:1"
         d="m 2038.9095,2451.2198 25.1688,84.3666 c 10.0845,17.1199 20.7791,35.5403 40.0116,37.6707 7.9756,0.5096 14.2857,-0.3826 21.3405,-3.4281 4.6537,1.1117 8.7468,0.6394 13.0007,0.6215 11.3073,-3.7001 13.2349,-18.9343 14.2551,-35.2843 0.9773,-21.7429 -2.8046,-26.0709 -4.8531,-36.7416 l -40.7423,-84.0899 c -20.1064,-20.1719 -47.6096,-10.1996 -56.3927,-2.013 -8.4526,7.8786 -13.4526,20.2825 -11.7886,38.8981 z"
         id="path86990"
         sodipodi:nodetypes="ccccccccsc" />
      <path
         style="font-variation-settings:normal;opacity:1;vector-effect:none;fill:#999999;fill-opacity:0.999549;stroke:none;stroke-width:1;stroke-linecap:round;stroke-linejoin:miter;stroke-miterlimit:4;stroke-dasharray:none;stroke-dashoffset:0;stroke-opacity:1;-inkscape-stroke:none;stop-color:#000000;stop-opacity:1"
         d="m 2047.9451,2415.4027 16.1332,120.1837 -25.1688,-84.3666 c -1.0886,-17.2961 2.0343,-28.3557 9.0356,-35.8171 z"
         id="path88032"
         sodipodi:nodetypes="cccc" />
      <path
         style="font-variation-settings:normal;opacity:1;vector-effect:none;fill:#000000;fill-opacity:0.999549;stroke:none;stroke-width:1;stroke-linecap:round;stroke-linejoin:miter;stroke-miterlimit:4;stroke-dasharray:none;stroke-dashoffset:0;stroke-opacity:1;-inkscape-stroke:none;stop-color:#000000;stop-opacity:1"
         d="m 2098.618,2552.6345 c 17.2553,10.2399 34.7026,9.4198 45.8932,-5.4023 -15.6201,-16.6499 -37.351,-11.2538 -45.8932,5.4023 z"
         id="path89116"
         sodipodi:nodetypes="ccc" />
      <path
         style="font-variation-settings:normal;opacity:1;vector-effect:none;fill:#b3b3b3;fill-opacity:0.999549;stroke:none;stroke-width:1;stroke-linecap:round;stroke-linejoin:miter;stroke-miterlimit:4;stroke-dasharray:none;stroke-dashoffset:0;stroke-opacity:1;-inkscape-stroke:none;stop-color:#000000;stop-opacity:1"
         d="m 2063.4346,2405.47 39.7078,69.5102 -23.4798,-88.488 c -7.7976,-0.3172 -8.4664,15.6493 -16.228,18.9778 z"
         id="path89664"
         sodipodi:nodetypes="cccc" />
      <path
         style="font-variation-settings:normal;opacity:1;vector-effect:none;fill:#1a1a1a;fill-opacity:0.999549;stroke:none;stroke-width:1;stroke-linecap:round;stroke-linejoin:miter;stroke-miterlimit:4;stroke-dasharray:none;stroke-dashoffset:0;stroke-opacity:1;-inkscape-stroke:none;stop-color:#000000;stop-opacity:1"
         d="m 2079.6626,2386.4922 23.4798,88.488 -14.6728,-72.5833 c -4.0098,-7.3963 -6.8477,-15.5118 -8.807,-15.9047 z"
         id="path89950"
         sodipodi:nodetypes="cccc" />
    </g>
  </g>
</svg>
