<?xml version="1.0" encoding="UTF-8" standalone="no"?>
<!-- Created with Inkscape (http://www.inkscape.org/) -->

<svg
   xmlns:dc="http://purl.org/dc/elements/1.1/"
   xmlns:cc="http://creativecommons.org/ns#"
   xmlns:rdf="http://www.w3.org/1999/02/22-rdf-syntax-ns#"
   xmlns:svg="http://www.w3.org/2000/svg"
   xmlns="http://www.w3.org/2000/svg"
   xmlns:sodipodi="http://sodipodi.sourceforge.net/DTD/sodipodi-0.dtd"
   xmlns:inkscape="http://www.inkscape.org/namespaces/inkscape"
   width="351.11917mm"
   height="281.52225mm"
   viewBox="0 0 351.11917 281.52225"
   version="1.1"
   id="svg8"
   inkscape:version="0.92.4 (5da689c313, 2019-01-14)"
   sodipodi:docname="flickr-logo.svg">
  <defs
     id="defs2" />
  <sodipodi:namedview
     id="base"
     pagecolor="#ffffff"
     bordercolor="#666666"
     borderopacity="1.0"
     inkscape:pageopacity="0.0"
     inkscape:pageshadow="2"
     inkscape:zoom="0.24748737"
     inkscape:cx="328.58021"
     inkscape:cy="1092.688"
     inkscape:document-units="mm"
     inkscape:current-layer="layer1"
     showgrid="false"
     inkscape:window-width="1680"
     inkscape:window-height="1013"
     inkscape:window-x="0"
     inkscape:window-y="0"
     inkscape:window-maximized="1"
     fit-margin-top="0"
     fit-margin-left="0"
     fit-margin-right="0"
     fit-margin-bottom="0" />
  <metadata
     id="metadata5">
    <rdf:RDF>
      <cc:Work
         rdf:about="">
        <dc:format>image/svg+xml</dc:format>
        <dc:type
           rdf:resource="http://purl.org/dc/dcmitype/StillImage" />
        <dc:title></dc:title>
      </cc:Work>
    </rdf:RDF>
  </metadata>
  <g
     inkscape:label="Layer 1"
     inkscape:groupmode="layer"
     id="layer1"
     transform="translate(-320.78425,-429.54073)">
    <path
       style="fill:#0063db;fill-opacity:1;stroke-width:0.35277775"
       d="m 504.912,710.96276 c -14.91707,-1.90068 -25.31744,-8.43937 -31.07296,-19.5355 -0.65417,-1.26118 -1.27256,-2.37243 -1.37419,-2.46945 -0.10163,-0.097 -0.22234,-0.41451 -0.26824,-0.70555 -0.0459,-0.29105 -0.49838,-2.0373 -1.00551,-3.88056 -1.13212,-4.11493 -1.55209,-12.28629 -0.87089,-16.94505 0.82207,-5.62212 3.44176,-12.08713 6.57093,-16.21606 2.97352,-3.92354 7.73203,-7.82849 12.42014,-10.19225 2.41347,-1.21687 7.63782,-3.04274 9.6035,-3.35633 0.6791,-0.10834 1.6316,-0.28035 2.11667,-0.38225 4.5147,-0.94844 12.20576,-0.94372 17.99166,0.011 3.51514,0.58005 9.88241,2.8878 9.8745,3.5789 -0.002,0.15769 -0.398,4.25546 -0.88042,9.10615 -0.48243,4.8507 -0.87782,8.87422 -0.87866,8.94116 -7.1e-4,0.0669 -0.69366,-0.2839 -1.53959,-0.77964 -6.24485,-3.65974 -16.50166,-4.0677 -22.07714,-0.87813 -3.90085,2.23157 -6.97046,6.58616 -8.17009,11.59022 -0.70686,2.94853 -0.55431,8.54687 0.30518,11.20004 1.90324,5.8751 7.03487,10.45063 13.40024,11.94808 1.78873,0.4208 3.47853,0.51556 6.79098,0.38085 4.53076,-0.18426 7.02167,-0.69226 10.72092,-2.18646 1.16669,-0.47124 2.16712,-0.81095 2.22318,-0.75489 0.0561,0.0561 0.2225,4.19384 0.36988,9.19508 0.23816,8.08163 0.20632,9.12611 -0.2862,9.38938 -0.924,0.4939 -5.95457,1.73615 -9.32361,2.30236 -3.18304,0.53496 -12.32483,0.93387 -14.64028,0.63884 z"
       id="path846"
       inkscape:connector-curvature="0" />
    <path
       style="fill:#0063db;fill-opacity:1;stroke-width:0.35277775"
       d="M 335.57868,682.61244 V 655.7967 h -6.87917 -6.87916 v -8.81944 -8.81945 h 7.05555 7.05556 l 0.0614,-3.79236 c 0.10377,-6.40921 0.3488,-8.61432 1.38004,-12.41951 3.1639,-11.67457 13.29853,-17.3443 29.42661,-16.46247 4.04922,0.2214 9.55193,1.01007 9.97094,1.42908 0.20044,0.20045 -0.85333,14.34109 -1.20695,16.19599 -0.15763,0.82687 -0.32372,0.96388 -0.94974,0.78347 -0.41728,-0.12026 -2.14689,-0.39823 -3.84357,-0.61771 -5.25214,-0.67943 -8.17277,0.42598 -9.75233,3.69105 -0.93282,1.92823 -1.18659,3.55357 -1.1967,7.66469 l -0.008,3.35139 8.34399,0.0946 8.34399,0.0946 v 8.81306 8.81306 l -8.37847,2e-5 -8.37847,2e-5 v 26.7229 26.72289 l -12.08264,0.0928 -12.08264,0.0928 v -26.81575 z"
       id="path844"
       inkscape:connector-curvature="0" />
    <path
       style="fill:#0063db;fill-opacity:1;stroke-width:0.35277775"
       d="m 388.49534,658.26615 v -51.15278 h 11.8157 11.8157 l 0.0905,51.15279 0.0906,51.15279 -11.90625,-2e-5 -11.90625,-1e-5 z"
       id="path842"
       inkscape:connector-curvature="0" />
    <path
       style="fill:#0063db;fill-opacity:1;stroke-width:0.35277775"
       d="m 432.23978,673.78837 v -35.63056 h 11.99445 11.99444 v 35.63056 35.63055 h -11.99444 -11.99445 z"
       id="path840"
       inkscape:connector-curvature="0" />
    <path
       style="fill:#0063db;fill-opacity:1;stroke-width:0.35277775"
       d="m 538.77867,658.26615 v -51.15278 h 11.99444 11.99444 v 30.39135 30.39134 l 4.64064,-7.01982 c 2.55235,-3.8609 6.13731,-9.32169 7.96656,-12.13509 1.82926,-2.81341 3.72499,-5.67091 4.21273,-6.35 0.48774,-0.6791 1.30694,-1.90941 1.82045,-2.73403 l 0.93365,-1.49931 h 13.14354 c 7.22895,0 13.14354,0.0726 13.14354,0.16125 0,0.0887 -1.98437,2.86737 -4.40972,6.17485 -2.42535,3.30749 -4.40972,6.1718 -4.40972,6.36515 0,0.19334 -0.12569,0.35153 -0.2793,0.35153 -0.15362,0 -1.1458,1.20775 -2.20486,2.68389 -1.05906,1.47614 -3.75839,5.16708 -5.9985,8.20209 -2.24011,3.035 -4.59499,6.25331 -5.23305,7.1518 l -1.16012,1.6336 8.26137,12.389 c 4.54375,6.81396 8.34061,12.30977 8.43745,12.21292 0.0969,-0.0968 0.18358,0.0224 0.19274,0.26489 0.009,0.24254 1.94061,3.29299 4.29212,6.77879 2.35151,3.48581 4.27548,6.46237 4.27548,6.61459 0,0.15222 -6.51047,0.27676 -14.46772,0.27676 h -14.46772 l -0.94235,-1.9214 c -0.51828,-1.05677 -1.09671,-1.82599 -1.28539,-1.70938 -0.19153,0.11837 -0.23011,0.0293 -0.0874,-0.2017 0.14063,-0.22755 -0.0561,-0.92676 -0.43725,-1.55381 -0.38111,-0.62706 -2.5625,-4.6326 -4.84753,-8.90121 -2.28503,-4.26861 -4.76319,-8.87236 -5.50703,-10.23055 -0.74383,-1.3582 -2.26453,-4.20595 -3.37934,-6.32834 l -2.02692,-3.85889 -0.0915,17.35264 -0.0915,17.35264 h -11.99111 -11.99112 z"
       id="path838"
       inkscape:connector-curvature="0" />
    <path
       style="fill:#ff0084;fill-opacity:1;stroke-width:0.35277775"
       d="m 618.85922,673.78837 v -35.63056 l 11.0243,9e-5 11.02431,8e-5 -0.0625,6.42423 -0.0625,6.42424 1.12717,-2.10279 c 2.73528,-5.10281 5.8448,-8.33134 9.8614,-10.23882 2.70747,-1.28577 3.10098,-1.41067 6.24609,-1.98256 2.1616,-0.39306 5.92284,-0.19639 10.40496,0.54404 0.88079,0.1455 0.92143,0.92583 0.44373,8.51622 -0.36767,5.84208 -0.43025,7.04452 -0.54825,10.53288 -0.0586,1.7321 -0.16105,2.03123 -0.63361,1.84989 -1.78373,-0.68448 -8.03323,-0.9627 -10.90156,-0.48533 -5.09115,0.84733 -9.03441,3.94339 -11.28744,8.86238 -2.33124,5.08972 -2.38183,5.58931 -2.55094,25.18948 l -0.15288,17.72708 h -11.96614 -11.96614 z"
       id="path836"
       inkscape:connector-curvature="0" />
    <path
       style="fill:#0063db;fill-opacity:1;stroke-width:0.35277775"
       d="m 432.23978,617.87309 v -9.35799 l 11.90625,0.0929 11.90625,0.0929 v 9.17222 9.17222 l -11.90625,0.0929 -11.90625,0.0929 z"
       id="path834"
       inkscape:connector-curvature="0" />
    <path
       style="fill:#0063db;fill-opacity:1;stroke-width:0.35277775"
       d="m 399.60784,598.40874 c -0.97014,-0.0609 -3.58951,-0.36096 -5.82083,-0.66672 -20.22278,-2.77113 -38.22429,-12.39514 -51.86518,-27.7283 -1.32298,-1.4871 -2.45797,-2.67773 -2.5222,-2.64584 -0.0642,0.0319 -0.0834,-0.002 -0.0425,-0.0751 0.0409,-0.0732 -0.61196,-1.02569 -1.45071,-2.11667 -8.0674,-10.49344 -13.65851,-23.38846 -16.0992,-37.13027 -0.97275,-5.47689 -1.34227,-17.42152 -0.70933,-22.92915 1.44382,-12.56358 5.50683,-24.65395 11.66757,-34.71942 0.78046,-1.27512 1.31131,-2.49266 1.17967,-2.70566 -0.13493,-0.21833 -0.0785,-0.28787 0.12935,-0.1594 0.39227,0.24243 1.6218,-1.37727 1.6218,-2.13645 0,-0.24852 0.0683,-0.38358 0.15171,-0.30015 0.0834,0.0834 1.43066,-1.46437 2.99384,-3.43958 5.82084,-7.3551 14.06009,-14.69524 22.09544,-19.68427 1.75561,-1.09004 3.07844,-2.10767 2.93964,-2.26142 -0.13882,-0.15375 -0.0646,-0.17196 0.16484,-0.0404 0.22947,0.1315 2.13447,-0.61797 4.23333,-1.66548 17.30278,-8.63558 38.66596,-10.79695 57.97901,-5.86589 10.97865,2.8031 22.62714,8.63986 31.52492,15.79633 1.7258,1.38806 3.3133,2.42374 3.52778,2.30151 0.21447,-0.12223 0.27035,-0.0904 0.12419,0.0707 -0.14617,0.16111 1.69184,2.29 4.08448,4.73087 2.39263,2.44086 4.63303,4.87314 4.97865,5.40504 0.34823,0.53592 0.80782,0.8646 1.0308,0.7372 0.22131,-0.12646 0.28662,-0.10193 0.14513,0.0545 -0.14149,0.15643 0.23361,0.93594 0.83355,1.73226 6.45914,8.5733 11.83708,19.63081 14.389,29.58509 4.28853,16.7282 3.54613,33.8215 -2.1683,49.92407 -1.89243,5.33264 -5.96335,13.48787 -8.93241,17.89423 -1.30739,1.94027 -2.38103,3.71739 -2.38587,3.94915 -0.005,0.23175 -0.1114,0.3905 -0.23678,0.35277 -0.12538,-0.0377 -1.43626,1.38113 -2.91306,3.153 -5.36815,6.44076 -11.75792,12.17818 -18.78999,16.87165 -4.10798,2.74182 -12.59413,7.00253 -17.61364,8.84342 -10.37475,3.80489 -22.8778,5.5824 -34.24469,4.86843 z"
       id="path832"
       inkscape:connector-curvature="0" />
    <path
       style="fill:#ff0084;fill-opacity:1;stroke-width:0.35277775"
       d="m 580.69994,598.29162 c -10.84887,-0.97929 -20.88569,-3.76961 -30.456,-8.46701 -18.63605,-9.14714 -33.66587,-25.35163 -41.22535,-44.44735 -12.81079,-32.36087 -4.83257,-68.70015 20.33727,-92.63251 9.91161,-9.4243 21.65532,-16.13986 35.00354,-20.01653 11.56655,-3.35922 25.13467,-4.07242 37.56213,-1.97444 14.60696,2.46593 29.0748,9.2919 40.53867,19.12628 1.04784,0.89889 2.06456,1.53584 2.25937,1.41544 0.19482,-0.1204 0.26101,-0.0681 0.1471,0.11621 -0.11392,0.18431 0.77437,1.30205 1.97396,2.48385 12.40729,12.22328 20.99994,28.66632 23.84227,45.62494 3.91305,23.34695 -1.65572,46.53551 -15.65948,65.2068 -3.43857,4.58467 -9.86675,11.27723 -14.02373,14.60051 -1.69573,1.35564 -2.98089,2.63025 -2.85591,2.83247 0.12498,0.20221 0.0685,0.26958 -0.12545,0.1497 -0.19397,-0.11988 -2.16318,0.97837 -4.37603,2.44056 -7.33659,4.84782 -16.88057,9.03299 -25.66045,11.25248 -7.99489,2.02105 -19.52796,2.98852 -27.28191,2.2886 z"
       id="path828"
       inkscape:connector-curvature="0" />
  </g>
</svg>
