<?xml version="1.0" encoding="UTF-8" standalone="no"?>
<!-- Created with Inkscape (http://www.inkscape.org/) -->

<svg
   xmlns:dc="http://purl.org/dc/elements/1.1/"
   xmlns:cc="http://creativecommons.org/ns#"
   xmlns:rdf="http://www.w3.org/1999/02/22-rdf-syntax-ns#"
   xmlns:svg="http://www.w3.org/2000/svg"
   xmlns="http://www.w3.org/2000/svg"
   xmlns:sodipodi="http://sodipodi.sourceforge.net/DTD/sodipodi-0.dtd"
   xmlns:inkscape="http://www.inkscape.org/namespaces/inkscape"
   width="42.60725mm"
   height="41.55513mm"
   viewBox="0 0 42.60725 41.55513"
   version="1.1"
   id="svg1624"
   inkscape:version="0.92.4 (5da689c313, 2019-01-14)"
   sodipodi:docname="github-white.svg">
  <defs
     id="defs1618" />
  <sodipodi:namedview
     id="base"
     pagecolor="#ffffff"
     bordercolor="#666666"
     borderopacity="1.0"
     inkscape:pageopacity="0.0"
     inkscape:pageshadow="2"
     inkscape:zoom="1.4"
     inkscape:cx="207.63089"
     inkscape:cy="-66.063027"
     inkscape:document-units="mm"
     inkscape:current-layer="layer1"
     showgrid="false"
     fit-margin-top="0"
     fit-margin-left="0"
     fit-margin-right="0"
     fit-margin-bottom="0"
     inkscape:window-width="1680"
     inkscape:window-height="1013"
     inkscape:window-x="0"
     inkscape:window-y="0"
     inkscape:window-maximized="1" />
  <metadata
     id="metadata1621">
    <rdf:RDF>
      <cc:Work
         rdf:about="">
        <dc:format>image/svg+xml</dc:format>
        <dc:type
           rdf:resource="http://purl.org/dc/dcmitype/StillImage" />
        <dc:title></dc:title>
      </cc:Work>
    </rdf:RDF>
  </metadata>
  <g
     inkscape:label="Layer 1"
     inkscape:groupmode="layer"
     id="layer1"
     transform="translate(199.70837,33.718041)">
    <path
       inkscape:connector-curvature="0"
       style="fill:#ffffff;fill-opacity:1;fill-rule:evenodd;stroke:none;stroke-width:0.35277775"
       d="m -178.40476,-33.718041 c -11.76408,0 -21.30361,9.537413 -21.30361,21.303609 0,9.4121106 6.10407,17.3973416 14.56862,20.2142706 1.06468,0.197204 1.45572,-0.462063 1.45572,-1.024745 0,-0.507645 -0.0198,-2.186048 -0.0289,-3.966165 -5.92666,1.288698 -7.17734,-2.51354202 -7.17734,-2.51354202 -0.96907,-2.46203498 -2.36522,-3.11712198 -2.36522,-3.11712198 -1.93287,-1.32221 0.14572,-1.295011 0.14572,-1.295011 2.13925,0.150283 3.26544,2.195732 3.26544,2.195732 1.90006,3.256492 4.98395,2.31477098 6.19962,1.77043298 0.19156,-1.37653698 0.74312,-2.31641398 1.35237,-2.84840398 -4.73181,-0.538339 -9.70587,-2.365631 -9.70587,-10.5285566 0,-2.32551 0.83192,-4.2261 2.1947,-5.717998 -0.22119,-0.536575 -0.9504,-2.703494 0.20671,-5.637898 0,0 1.78889,-0.571892 5.85959,2.184363 1.69933,-0.472016 3.52203,-0.708803 5.33249,-0.717269 1.81045,0.0085 3.63412,0.245253 5.33662,0.717269 4.06612,-2.756255 5.85288,-2.184363 5.85288,-2.184363 1.15958,2.934404 0.43048,5.101323 0.20929,5.637898 1.36595,1.491898 2.19211,3.392488 2.19211,5.717998 0,8.1826816 -4.98377,9.9840996 -9.72757,10.5115046 0.76412,0.661104 1.44487,1.957427 1.44487,3.94497698 0,2.85044402 -0.0243,5.14448202 -0.0243,5.84615402 0,0.567267 0.38311,1.231522 1.46296,1.022678 8.46032,-2.820106 14.55674,-10.802914 14.55674,-20.2122036 0,-11.766196 -9.53812,-21.303609 -21.30361,-21.303609 z m -13.54026,30.2301956 c -0.11417,-0.01704 -0.21624,0.02032 -0.25063,0.101804 -0.0501,0.106185 0.0363,0.250545 0.1912,0.320395 0.1517,0.07267 0.31792,0.04056 0.36484,-0.06563 0.0533,-0.106186 -0.0346,-0.251415 -0.18914,-0.320911 -0.0386,-0.01818 -0.0782,-0.02998 -0.11627,-0.03566 z m 0.76378,0.732772 c -0.035,0.0068 -0.0663,0.02193 -0.0925,0.04548 -0.10302,0.09525 -0.0772,0.294347 0.0625,0.442868 0.13441,0.14887 0.333,0.192376 0.4346,0.09818 0.10619,-0.0956 0.0792,-0.292584 -0.0605,-0.442867 -0.10451,-0.11139 -0.23926,-0.164034 -0.34416,-0.143661 z m 0.88315,1.085207 c -0.0404,0.0021 -0.0786,0.01394 -0.11162,0.03669 -0.13371,0.09102 -0.13363,0.318185 -0.003,0.507978 0.13194,0.18944198 0.34593,0.27446898 0.47645,0.18345198 0.13335,-0.09278 0.13328,-0.32001398 0.003,-0.51262998 -0.10027,-0.140759 -0.24367,-0.221972 -0.36483,-0.21549 z m 1.02164,1.21077798 c -0.071,0.0033 -0.13383,0.02858 -0.17828,0.077 -0.11677,0.128764 -0.0648,0.372702 0.12144,0.544152 0.18203,0.176038 0.43048,0.210413 0.54725,0.08165 0.12418,-0.127355 0.0681,-0.372703 -0.11679,-0.544153 -0.11465,-0.108921 -0.25528,-0.164208 -0.37362,-0.158647 z m 1.55081,0.926042 c -0.17256,-0.0019 -0.31745,0.07405 -0.35502,0.199988 -0.0487,0.168627 0.1089,0.36364002 0.34985,0.43666502 0.2413,0.07091 0.48041,-0.0047 0.53227,-0.17156602 0.0501,-0.169685 -0.10771,-0.363477 -0.3483,-0.43615 -0.0608,-0.01897 -0.12128,-0.02831 -0.1788,-0.02894 z m 3.56516,0.07648 c -0.0571,-0.0062 -0.11842,-0.0042 -0.18139,0.0067 -0.24729,0.04551 -0.42601,0.221707 -0.39532,0.397391 0.0314,0.16968702 0.26016,0.27546802 0.50746,0.22996202 0.25153,-0.04692 0.42773,-0.22267802 0.39739,-0.39377702 -0.0241,-0.130704 -0.15697,-0.221607 -0.32814,-0.240294 z m -1.75545,0.205156 c -0.25435,0.0046 -0.45475,0.148632 -0.45475,0.32607702 0.003,0.172863 0.20934,0.315188 0.46405,0.309542 0.25329,-0.0032 0.45765,-0.148844 0.45165,-0.324528 0,-0.17427002 -0.20766,-0.31603102 -0.46095,-0.31109102 z"
       id="path28" />
  </g>
</svg>
