<?xml version="1.0" encoding="UTF-8" standalone="no"?>
<!-- Created with Inkscape (http://www.inkscape.org/) -->

<svg
   width="44.565266mm"
   height="44.565266mm"
   viewBox="0 0 44.565266 44.565266"
   version="1.1"
   id="svg158007"
   inkscape:version="1.1.1 (1:1.1+202109281949+c3084ef5ed)"
   sodipodi:docname="logo.svg"
   inkscape:export-filename="/home/frank/WebstormProjects/FrankWhoee.github.io/images/logo.png"
   inkscape:export-xdpi="80"
   inkscape:export-ydpi="80"
   xmlns:inkscape="http://www.inkscape.org/namespaces/inkscape"
   xmlns:sodipodi="http://sodipodi.sourceforge.net/DTD/sodipodi-0.dtd"
   xmlns="http://www.w3.org/2000/svg"
   xmlns:svg="http://www.w3.org/2000/svg">
  <sodipodi:namedview
     id="namedview158009"
     pagecolor="#ffffff"
     bordercolor="#666666"
     borderopacity="1.0"
     inkscape:pageshadow="2"
     inkscape:pageopacity="0.0"
     inkscape:pagecheckerboard="0"
     inkscape:document-units="mm"
     showgrid="false"
     inkscape:zoom="3.885397"
     inkscape:cx="80.94411"
     inkscape:cy="106.81019"
     inkscape:window-width="1920"
     inkscape:window-height="1043"
     inkscape:window-x="0"
     inkscape:window-y="0"
     inkscape:window-maximized="1"
     inkscape:current-layer="layer1" />
  <defs
     id="defs158004" />
  <g
     inkscape:label="Layer 1"
     inkscape:groupmode="layer"
     id="layer1"
     transform="translate(-150.67845,-39.736822)">
    <circle
       style="fill:#000000;fill-opacity:1;stroke:none;stroke-width:0.115383px;-inkscape-stroke:none;stop-color:#000000"
       id="path157162"
       cx="172.96109"
       cy="62.019455"
       r="22.282633" />
    <g
       id="g156792"
       transform="matrix(0.14369503,0,0,0.14369503,45.596395,19.532093)"
       style="fill:#ffffff;fill-opacity:1;stroke-width:1.46774">
      <path
         id="path156786"
         transform="scale(0.26458333)"
         d="m 3228.5723,1015.377 v 138.5722 h 312.1425 c 38.3843,0 69.2852,-30.9028 69.2852,-69.2871 0,-38.3843 -30.9009,-69.2851 -69.2852,-69.2851 z"
         style="opacity:1;fill:#ffffff;fill-opacity:1;stroke:none;stroke-width:1.09283;stroke-linecap:round;stroke-linejoin:round;stroke-miterlimit:4;stroke-dasharray:none;stroke-dashoffset:0;stroke-opacity:1"
         inkscape:connector-curvature="0" />
      <path
         id="path156788"
         transform="scale(0.26458333)"
         d="m 3159.2852,731.0918 c 38.3842,0 69.2871,30.90087 69.2871,69.28515 v 69.28516 h 312.1425 c 38.3843,0 69.2852,-30.90087 69.2852,-69.28516 0,-38.38428 -30.9009,-69.28515 -69.2852,-69.28515 z"
         style="opacity:1;fill:#ffffff;fill-opacity:1;stroke:none;stroke-width:1.09283;stroke-linecap:round;stroke-linejoin:round;stroke-miterlimit:4;stroke-dasharray:none;stroke-dashoffset:0;stroke-opacity:1"
         inkscape:connector-curvature="0" />
      <path
         id="path156790"
         transform="scale(0.26458333)"
         d="m 3090,800.37695 v 284.28515 c 0,-38.3843 30.9009,-69.2851 69.2852,-69.2851 h 69.2871 V 869.66211 h -69.2871 c -38.3843,0 -69.2852,-30.90087 -69.2852,-69.28516 z m 0,284.28515 v 350 c 0,38.3843 30.9009,69.2871 69.2852,69.2871 38.3842,0 69.2871,-30.9028 69.2871,-69.2871 v -280.7129 h -69.2871 c -38.3843,0 -69.2852,-30.9028 -69.2852,-69.2871 z"
         style="opacity:1;fill:#ffffff;fill-opacity:1;stroke:none;stroke-width:1.09283;stroke-linecap:round;stroke-linejoin:round;stroke-miterlimit:4;stroke-dasharray:none;stroke-dashoffset:0;stroke-opacity:1"
         inkscape:connector-curvature="0" />
    </g>
  </g>
</svg>
