<?xml version="1.0" encoding="UTF-8" standalone="no"?>
<!-- Created with Inkscape (http://www.inkscape.org/) -->

<svg
   width="15.199132mm"
   height="22.589926mm"
   viewBox="0 0 15.199132 22.589926"
   version="1.1"
   id="svg134479"
   inkscape:version="1.1.1 (1:1.1+202109281949+c3084ef5ed)"
   sodipodi:docname="logoblack.svg"
   xmlns:inkscape="http://www.inkscape.org/namespaces/inkscape"
   xmlns:sodipodi="http://sodipodi.sourceforge.net/DTD/sodipodi-0.dtd"
   xmlns="http://www.w3.org/2000/svg"
   xmlns:svg="http://www.w3.org/2000/svg">
  <sodipodi:namedview
     id="namedview134481"
     pagecolor="#ffffff"
     bordercolor="#666666"
     borderopacity="1.0"
     inkscape:pageshadow="2"
     inkscape:pageopacity="0.0"
     inkscape:pagecheckerboard="0"
     inkscape:document-units="mm"
     showgrid="false"
     inkscape:zoom="2.7473906"
     inkscape:cx="10.009498"
     inkscape:cy="42.949845"
     inkscape:window-width="1920"
     inkscape:window-height="1043"
     inkscape:window-x="0"
     inkscape:window-y="0"
     inkscape:window-maximized="1"
     inkscape:current-layer="layer1" />
  <defs
     id="defs134476" />
  <g
     inkscape:label="Layer 1"
     inkscape:groupmode="layer"
     id="layer1"
     transform="translate(-82.155299,-70.75562)">
    <g
       id="g4547"
       transform="matrix(0.11047219,0,0,0.11047219,-8.16262,49.386465)"
       style="fill:#000000;fill-opacity:1;stroke-width:1.46774">
      <path
         id="rect4534"
         transform="scale(0.26458333)"
         d="m 3228.5723,1015.377 v 138.5722 h 312.1425 c 38.3843,0 69.2852,-30.9028 69.2852,-69.2871 0,-38.3843 -30.9009,-69.2851 -69.2852,-69.2851 z"
         style="opacity:1;fill:#000000;fill-opacity:1;stroke:none;stroke-width:1.09283;stroke-linecap:round;stroke-linejoin:round;stroke-miterlimit:4;stroke-dasharray:none;stroke-dashoffset:0;stroke-opacity:1"
         inkscape:connector-curvature="0" />
      <path
         id="rect4487"
         transform="scale(0.26458333)"
         d="m 3159.2852,731.0918 c 38.3842,0 69.2871,30.90087 69.2871,69.28515 v 69.28516 h 312.1425 c 38.3843,0 69.2852,-30.90087 69.2852,-69.28516 0,-38.38428 -30.9009,-69.28515 -69.2852,-69.28515 z"
         style="opacity:1;fill:#000000;fill-opacity:1;stroke:none;stroke-width:1.09283;stroke-linecap:round;stroke-linejoin:round;stroke-miterlimit:4;stroke-dasharray:none;stroke-dashoffset:0;stroke-opacity:1"
         inkscape:connector-curvature="0" />
      <path
         id="rect4505"
         transform="scale(0.26458333)"
         d="m 3090,800.37695 v 284.28515 c 0,-38.3843 30.9009,-69.2851 69.2852,-69.2851 h 69.2871 V 869.66211 h -69.2871 c -38.3843,0 -69.2852,-30.90087 -69.2852,-69.28516 z m 0,284.28515 v 350 c 0,38.3843 30.9009,69.2871 69.2852,69.2871 38.3842,0 69.2871,-30.9028 69.2871,-69.2871 v -280.7129 h -69.2871 c -38.3843,0 -69.2852,-30.9028 -69.2852,-69.2871 z"
         style="opacity:1;fill:#000000;fill-opacity:1;stroke:none;stroke-width:1.09283;stroke-linecap:round;stroke-linejoin:round;stroke-miterlimit:4;stroke-dasharray:none;stroke-dashoffset:0;stroke-opacity:1"
         inkscape:connector-curvature="0" />
    </g>
  </g>
</svg>
