<?xml version="1.0" encoding="UTF-8" standalone="no"?>
<!-- Generator: Adobe Illustrator 19.0.0, SVG Export Plug-In . SVG Version: 6.00 Build 0)  -->

<svg
   xmlns:dc="http://purl.org/dc/elements/1.1/"
   xmlns:cc="http://creativecommons.org/ns#"
   xmlns:rdf="http://www.w3.org/1999/02/22-rdf-syntax-ns#"
   xmlns:svg="http://www.w3.org/2000/svg"
   xmlns="http://www.w3.org/2000/svg"
   xmlns:sodipodi="http://sodipodi.sourceforge.net/DTD/sodipodi-0.dtd"
   xmlns:inkscape="http://www.inkscape.org/namespaces/inkscape"
   version="1.1"
   id="Capa_1"
   x="0px"
   y="0px"
   viewBox="0 0 511.98618 512"
   xml:space="preserve"
   sodipodi:docname="resume-icon.svg"
   inkscape:version="0.92.4 (5da689c313, 2019-01-14)"
   width="511.98618"
   height="512"><metadata
   id="metadata97"><rdf:RDF><cc:Work
       rdf:about=""><dc:format>image/svg+xml</dc:format><dc:type
         rdf:resource="http://purl.org/dc/dcmitype/StillImage" /><dc:title></dc:title></cc:Work></rdf:RDF></metadata><defs
   id="defs95" /><sodipodi:namedview
   pagecolor="#ffffff"
   bordercolor="#666666"
   borderopacity="1"
   objecttolerance="10"
   gridtolerance="10"
   guidetolerance="10"
   inkscape:pageopacity="0"
   inkscape:pageshadow="2"
   inkscape:window-width="1680"
   inkscape:window-height="1050"
   id="namedview93"
   showgrid="false"
   inkscape:zoom="0.4609375"
   inkscape:cx="232.12859"
   inkscape:cy="275.52542"
   inkscape:window-x="0"
   inkscape:window-y="0"
   inkscape:window-maximized="1"
   inkscape:current-layer="Capa_1"
   fit-margin-top="0"
   fit-margin-left="0"
   fit-margin-right="0"
   fit-margin-bottom="0" />
<g
   id="g6"
   style="fill:#ffffff"
   transform="translate(-0.007)">
	<g
   id="g4"
   style="fill:#ffffff">
		<path
   d="m 414.007,148.75 c 5.522,0 10,-4.477 10,-10 V 30 c 0,-16.542 -13.458,-30 -30,-30 h -364 c -16.542,0 -30,13.458 -30,30 v 452 c 0,16.542 13.458,30 30,30 h 364 c 16.542,0 30,-13.458 30,-30 v -73.672 c 0,-5.523 -4.478,-10 -10,-10 -5.522,0 -10,4.477 -10,10 V 482 c 0,5.514 -4.486,10 -10,10 h -364 c -5.514,0 -10,-4.486 -10,-10 V 30 c 0,-5.514 4.486,-10 10,-10 h 364 c 5.514,0 10,4.486 10,10 v 108.75 c 0,5.523 4.478,10 10,10 z"
   id="path2"
   style="fill:#ffffff"
   inkscape:connector-curvature="0" />
	</g>
</g>
<g
   id="g12"
   style="fill:#ffffff"
   transform="translate(-0.007)">
	<g
   id="g10"
   style="fill:#ffffff">
		<path
   d="m 212.007,54 c -50.729,0 -92,41.271 -92,92 0,26.317 11.11,50.085 28.882,66.869 0.333,0.356 0.687,0.693 1.074,1 16.371,14.979 38.158,24.13 62.043,24.13 23.885,0 45.672,-9.152 62.043,-24.13 0.387,-0.307 0.741,-0.645 1.074,-1 17.774,-16.784 28.884,-40.552 28.884,-66.869 0,-50.729 -41.271,-92 -92,-92 z m 0,164 c -16.329,0 -31.399,-5.472 -43.491,-14.668 8.789,-15.585 25.19,-25.332 43.491,-25.332 18.301,0 34.702,9.747 43.491,25.332 C 243.405,212.528 228.336,218 212.007,218 Z m -16,-76 v -6.5 c 0,-8.822 7.178,-16 16,-16 8.822,0 16,7.178 16,16 v 6.5 c 0,8.822 -7.178,16 -16,16 -8.822,0 -16,-7.178 -16,-16 z m 73.94,46.683 c -7.375,-10.938 -17.596,-19.445 -29.463,-24.697 4.71,-6.087 7.523,-13.712 7.523,-21.986 v -6.5 c 0,-19.851 -16.149,-36 -36,-36 -19.851,0 -36,16.149 -36,36 v 6.5 c 0,8.274 2.813,15.899 7.523,21.986 -11.867,5.252 -22.088,13.759 -29.463,24.697 -8.829,-11.953 -14.06,-26.716 -14.06,-42.683 0,-39.701 32.299,-72 72,-72 39.701,0 72,32.299 72,72 0,15.967 -5.231,30.73 -14.06,42.683 z"
   id="path8"
   style="fill:#ffffff"
   inkscape:connector-curvature="0" />
	</g>
</g>
<g
   id="g18"
   style="fill:#ffffff"
   transform="translate(-0.007)">
	<g
   id="g16"
   style="fill:#ffffff">
		<path
   d="m 266.007,438 h -54 c -5.522,0 -10,4.477 -10,10 0,5.523 4.478,10 10,10 h 54 c 5.522,0 10,-4.477 10,-10 0,-5.523 -4.478,-10 -10,-10 z"
   id="path14"
   style="fill:#ffffff"
   inkscape:connector-curvature="0" />
	</g>
</g>
<g
   id="g24"
   style="fill:#ffffff"
   transform="translate(-0.007)">
	<g
   id="g22"
   style="fill:#ffffff">
		<path
   d="m 266.007,382 h -142 c -5.522,0 -10,4.477 -10,10 0,5.523 4.478,10 10,10 h 142 c 5.522,0 10,-4.477 10,-10 0,-5.523 -4.478,-10 -10,-10 z"
   id="path20"
   style="fill:#ffffff"
   inkscape:connector-curvature="0" />
	</g>
</g>
<g
   id="g30"
   style="fill:#ffffff"
   transform="translate(-0.007)">
	<g
   id="g28"
   style="fill:#ffffff">
		<path
   d="m 266.007,326 h -142 c -5.522,0 -10,4.477 -10,10 0,5.523 4.478,10 10,10 h 142 c 5.522,0 10,-4.477 10,-10 0,-5.523 -4.478,-10 -10,-10 z"
   id="path26"
   style="fill:#ffffff"
   inkscape:connector-curvature="0" />
	</g>
</g>
<g
   id="g36"
   style="fill:#ffffff"
   transform="translate(-0.007)">
	<g
   id="g34"
   style="fill:#ffffff">
		<path
   d="M 88.366,272.93 C 86.507,271.07 83.927,270 81.287,270 c -2.631,0 -5.211,1.07 -7.07,2.93 -1.86,1.86 -2.93,4.44 -2.93,7.07 0,2.63 1.069,5.21 2.93,7.07 1.87,1.86 4.439,2.93 7.07,2.93 2.64,0 5.21,-1.07 7.079,-2.93 1.86,-1.86 2.931,-4.44 2.931,-7.07 0,-2.63 -1.07,-5.21 -2.931,-7.07 z"
   id="path32"
   style="fill:#ffffff"
   inkscape:connector-curvature="0" />
	</g>
</g>
<g
   id="g42"
   style="fill:#ffffff"
   transform="translate(-0.007)">
	<g
   id="g40"
   style="fill:#ffffff">
		<path
   d="M 88.366,328.93 C 86.497,327.07 83.927,326 81.287,326 c -2.631,0 -5.2,1.07 -7.07,2.93 -1.86,1.86 -2.93,4.44 -2.93,7.07 0,2.63 1.069,5.21 2.93,7.07 1.87,1.86 4.439,2.93 7.07,2.93 2.64,0 5.21,-1.07 7.079,-2.93 1.86,-1.86 2.931,-4.44 2.931,-7.07 0,-2.63 -1.07,-5.21 -2.931,-7.07 z"
   id="path38"
   style="fill:#ffffff"
   inkscape:connector-curvature="0" />
	</g>
</g>
<g
   id="g48"
   style="fill:#ffffff"
   transform="translate(-0.007)">
	<g
   id="g46"
   style="fill:#ffffff">
		<path
   d="M 88.366,384.93 C 86.497,383.07 83.927,382 81.287,382 c -2.631,0 -5.2,1.07 -7.07,2.93 -1.86,1.86 -2.93,4.44 -2.93,7.07 0,2.63 1.069,5.21 2.93,7.07 1.859,1.86 4.439,2.93 7.07,2.93 2.64,0 5.22,-1.07 7.079,-2.93 1.86,-1.86 2.931,-4.44 2.931,-7.07 0,-2.63 -1.07,-5.21 -2.931,-7.07 z"
   id="path44"
   style="fill:#ffffff"
   inkscape:connector-curvature="0" />
	</g>
</g>
<g
   id="g54"
   style="fill:#ffffff"
   transform="translate(-0.007)">
	<g
   id="g52"
   style="fill:#ffffff">
		<path
   d="m 266.007,270 h -142 c -5.522,0 -10,4.477 -10,10 0,5.523 4.478,10 10,10 h 142 c 5.522,0 10,-4.477 10,-10 0,-5.523 -4.478,-10 -10,-10 z"
   id="path50"
   style="fill:#ffffff"
   inkscape:connector-curvature="0" />
	</g>
</g>
<g
   id="g60"
   style="fill:#ffffff"
   transform="translate(-0.007)">
	<g
   id="g58"
   style="fill:#ffffff">
		<path
   d="m 491.002,130.32 c -9.715,-5.609 -21.033,-7.099 -31.871,-4.196 -10.836,2.904 -19.894,9.854 -25.502,19.569 L 307.787,363.656 c -0.689,1.195 -1.125,2.52 -1.278,3.891 l -8.858,79.344 c -0.44,3.948 1.498,7.783 4.938,9.77 1.553,0.896 3.278,1.34 4.999,1.34 2.092,0 4.176,-0.655 5.931,-1.948 l 64.284,-47.344 c 1.111,-0.818 2.041,-1.857 2.73,-3.052 L 506.374,187.694 c 11.58,-20.056 4.684,-45.794 -15.372,-57.374 z m -170.939,296.074 4.626,-41.432 28.942,16.71 z m 48.15,-39.398 -38.105,-22 100.985,-174.91 38.105,22 z m 120.841,-209.303 -9.857,17.073 -38.105,-22 9.857,-17.073 c 2.938,-5.089 7.682,-8.729 13.358,-10.25 5.678,-1.522 11.606,-0.74 16.694,2.198 5.089,2.938 8.729,7.682 10.25,13.358 1.521,5.676 0.741,11.605 -2.197,16.694 z"
   id="path56"
   style="fill:#ffffff"
   inkscape:connector-curvature="0" />
	</g>
</g>
<g
   id="g62"
   style="fill:#ffffff"
   transform="translate(-0.007)">
</g>
<g
   id="g64"
   style="fill:#ffffff"
   transform="translate(-0.007)">
</g>
<g
   id="g66"
   style="fill:#ffffff"
   transform="translate(-0.007)">
</g>
<g
   id="g68"
   style="fill:#ffffff"
   transform="translate(-0.007)">
</g>
<g
   id="g70"
   style="fill:#ffffff"
   transform="translate(-0.007)">
</g>
<g
   id="g72"
   style="fill:#ffffff"
   transform="translate(-0.007)">
</g>
<g
   id="g74"
   style="fill:#ffffff"
   transform="translate(-0.007)">
</g>
<g
   id="g76"
   style="fill:#ffffff"
   transform="translate(-0.007)">
</g>
<g
   id="g78"
   style="fill:#ffffff"
   transform="translate(-0.007)">
</g>
<g
   id="g80"
   style="fill:#ffffff"
   transform="translate(-0.007)">
</g>
<g
   id="g82"
   style="fill:#ffffff"
   transform="translate(-0.007)">
</g>
<g
   id="g84"
   style="fill:#ffffff"
   transform="translate(-0.007)">
</g>
<g
   id="g86"
   style="fill:#ffffff"
   transform="translate(-0.007)">
</g>
<g
   id="g88"
   style="fill:#ffffff"
   transform="translate(-0.007)">
</g>
<g
   id="g90"
   style="fill:#ffffff"
   transform="translate(-0.007)">
</g>
</svg>