<?xml version="1.0" encoding="UTF-8" standalone="no"?>
<!-- Created with Inkscape (http://www.inkscape.org/) -->

<svg
   width="516.29663mm"
   height="195.15533mm"
   viewBox="0 0 516.29663 195.15533"
   version="1.1"
   id="svg51374"
   inkscape:version="1.2.1 (9c6d41e410, 2022-07-14)"
   sodipodi:docname="starliner.svg"
   xmlns:inkscape="http://www.inkscape.org/namespaces/inkscape"
   xmlns:sodipodi="http://sodipodi.sourceforge.net/DTD/sodipodi-0.dtd"
   xmlns="http://www.w3.org/2000/svg"
   xmlns:svg="http://www.w3.org/2000/svg">
  <sodipodi:namedview
     id="namedview51376"
     pagecolor="#ffffff"
     bordercolor="#000000"
     borderopacity="0.25"
     inkscape:showpageshadow="2"
     inkscape:pageopacity="0.0"
     inkscape:pagecheckerboard="0"
     inkscape:deskcolor="#d1d1d1"
     inkscape:document-units="mm"
     showgrid="false"
     inkscape:zoom="0.37282197"
     inkscape:cx="1121.1786"
     inkscape:cy="587.41173"
     inkscape:window-width="1920"
     inkscape:window-height="1017"
     inkscape:window-x="-8"
     inkscape:window-y="-8"
     inkscape:window-maximized="1"
     inkscape:current-layer="layer1" />
  <defs
     id="defs51371" />
  <g
     inkscape:label="Layer 1"
     inkscape:groupmode="layer"
     id="layer1"
     transform="translate(169.79349,-23.0675)">
    <g
       id="g51287"
       transform="translate(-507.14447,-167.99959)">
      <path
         id="path48203"
         style="fill:#000000;fill-opacity:1;stroke:none;stroke-width:1;stroke-dasharray:none"
         d="M 595.41947,246.64024 A 308.70969,308.70969 0 0 0 337.35098,386.22242 H 853.64764 A 308.70969,308.70969 0 0 0 595.41947,246.64024 Z" />
      <path
         style="font-variation-settings:normal;opacity:1;vector-effect:none;fill:#000000;fill-opacity:1;stroke:none;stroke-width:0.264583;stroke-linecap:butt;stroke-linejoin:miter;stroke-miterlimit:4;stroke-dasharray:none;stroke-dashoffset:0;stroke-opacity:1;-inkscape-stroke:none;stop-color:#000000;stop-opacity:1"
         d="m 655.55061,252.75931 2.20541,0.53318 c 1.21635,6.71384 0.6084,11.818 0.50182,17.36454 h -0.9914 c -0.31556,-3.70724 -0.11463,-14.45366 -1.71583,-17.89772 z"
         id="path34928"
         sodipodi:nodetypes="ccccc" />
      <path
         style="font-variation-settings:normal;opacity:1;vector-effect:none;fill:#ffffff;fill-opacity:1;stroke:none;stroke-width:0.264583;stroke-linecap:butt;stroke-linejoin:miter;stroke-miterlimit:4;stroke-dasharray:none;stroke-dashoffset:0;stroke-opacity:1;-inkscape-stroke:none;stop-color:#000000;stop-opacity:1"
         d="m 653.07491,275.15001 c 0.0166,-7.04193 -0.58403,-14.22946 -2.75348,-21.48982 l 5.22918,-1.55952 c 1.65529,7.5043 3.06264,14.90622 1.29045,21.05247 -0.18342,0.63614 -0.9594,1.04164 -1.20085,1.65479 z"
         id="path34732"
         sodipodi:nodetypes="cccscc" />
      <path
         style="font-variation-settings:normal;opacity:1;vector-effect:none;fill:#ffffff;fill-opacity:1;stroke:none;stroke-width:0.264583;stroke-linecap:butt;stroke-linejoin:miter;stroke-miterlimit:4;stroke-dasharray:none;stroke-dashoffset:0;stroke-opacity:1;-inkscape-stroke:none;stop-color:#000000;stop-opacity:1"
         d="m 519.25339,282.70616 0.59264,2.53457 c 0.39339,0.84726 1.27024,1.21106 2.24904,1.47291 h 1.42471 c 0.16767,-7.792 -0.34296,-21.18103 -1.31727,-22.06752 -1.68505,-0.0283 -3.44647,-0.0167 -4.50886,0.24683 -0.99699,6.17071 -0.19415,11.44691 1.55974,17.81321 z"
         id="path34734"
         sodipodi:nodetypes="ccccccc" />
      <path
         id="path34736"
         style="font-variation-settings:normal;opacity:1;vector-effect:none;fill:#ffffff;fill-opacity:1;stroke:none;stroke-width:0.264583;stroke-linecap:butt;stroke-linejoin:miter;stroke-miterlimit:4;stroke-dasharray:none;stroke-dashoffset:0;stroke-opacity:1;-inkscape-stroke:none;stop-color:#000000;stop-opacity:1"
         d="m 588.24885,219.33183 c -35.6187,-0.13999 -74.56437,29.46264 -57.85745,78.08051 4.58367,7.37688 8.7847,14.92298 16.90181,20.74033 10.49492,7.66322 23.66388,13.04927 43.15654,13.04727 12.8353,0.2772 27.6845,-6.50094 43.53016,-19.26859 27.32301,-24.92995 17.32217,-73.90687 -22.32836,-87.61894 -7.14055,-3.33198 -15.183,-4.94827 -23.4027,-4.98058 z" />
      <path
         style="font-variation-settings:normal;opacity:1;vector-effect:none;fill:#000000;fill-opacity:1;stroke:none;stroke-width:0.264583;stroke-linecap:butt;stroke-linejoin:miter;stroke-miterlimit:4;stroke-dasharray:none;stroke-dashoffset:0;stroke-opacity:1;-inkscape-stroke:none;stop-color:#000000;stop-opacity:1"
         d="m 610.08334,318.48287 3.85772,2.60437 1.63244,-1.83413 -4.34585,-2.61374 z"
         id="path34738"
         sodipodi:nodetypes="ccccc" />
      <path
         style="font-variation-settings:normal;opacity:1;vector-effect:none;fill:#000000;fill-opacity:1;stroke:none;stroke-width:0.264583;stroke-linecap:butt;stroke-linejoin:miter;stroke-miterlimit:4;stroke-dasharray:none;stroke-dashoffset:0;stroke-opacity:1;-inkscape-stroke:none;stop-color:#000000;stop-opacity:1"
         d="m 523.83026,239.78811 c -3.40401,7.38777 -5.82236,16.46315 -5.95593,24.23074 l 4.32818,0.62727 c -0.23282,-7.09868 3.69011,-14.82043 6.96082,-22.07656 z"
         id="path34740"
         sodipodi:nodetypes="ccccc" />
      <path
         style="font-variation-settings:normal;opacity:1;vector-effect:none;fill:#000000;fill-opacity:1;stroke:none;stroke-width:0.264583;stroke-linecap:butt;stroke-linejoin:miter;stroke-miterlimit:4;stroke-dasharray:none;stroke-dashoffset:0;stroke-opacity:1;-inkscape-stroke:none;stop-color:#000000;stop-opacity:1"
         d="m 584.39208,257.43679 0.34945,-5.58703 9.2209,0.0627 0.87819,-13.89407 c 8.0972,1.14261 15.7714,3.11009 22.20543,7.4959 l -5.67681,17.93998 c -9.69402,-5.23289 -16.72408,-5.80727 -26.97716,-6.01748 z"
         id="path34744"
         sodipodi:nodetypes="ccccccc" />
      <path
         style="font-variation-settings:normal;opacity:1;vector-effect:none;fill:#ffffff;fill-opacity:1;stroke:none;stroke-width:0.264583;stroke-linecap:butt;stroke-linejoin:miter;stroke-miterlimit:4;stroke-dasharray:none;stroke-dashoffset:0;stroke-opacity:1;-inkscape-stroke:none;stop-color:#000000;stop-opacity:1"
         d="m 533.91308,305.25557 c -4.05417,-4.3927 -8.55631,-11.87259 -10.45602,-18.59223 -2.26063,-8.54766 -1.72173,-17.49015 -0.9699,-25.59267 0.47155,-5.86734 3.44673,-11.46283 7.19259,-19.3753 26.65034,-56.29421 124.4194,-41.56563 123.39516,33.45464 -0.96824,13.31251 -8.09896,25.5858 -17.94153,36.91431 6.59966,-9.51541 13.1296,-14.19736 16.08193,-31.93703 0.63164,-21.83536 -10.33422,-37.40252 -20.44875,-48.76158 -29.10466,-23.06518 -76.61943,-20.1655 -98.99163,16.2186 -11.58851,21.82408 -9.05384,41.08312 2.13815,57.67126 z"
         id="path34746"
         sodipodi:nodetypes="cccscccccc" />
      <path
         style="font-variation-settings:normal;opacity:1;vector-effect:none;fill:#ffffff;fill-opacity:1;stroke:none;stroke-width:0.264583;stroke-linecap:butt;stroke-linejoin:miter;stroke-miterlimit:4;stroke-dasharray:none;stroke-dashoffset:0;stroke-opacity:1;-inkscape-stroke:none;stop-color:#000000;stop-opacity:1"
         d="m 529.6354,240.98569 c 0.98184,-8.25173 4.76609,-18.16126 14.7258,-28.12097 3.74244,-3.74244 14.2802,-9.99652 25.90323,-13.92742 18.94487,-2.26924 37.70595,-3.10905 54.55645,10.91129 9.95836,8.27623 17.41596,18.14879 20.05814,31.09522 -24.19773,-39.56929 -90.2378,-47.0235 -115.24362,0.0419 z"
         id="path34748"
         sodipodi:nodetypes="csccccc" />
      <path
         style="font-variation-settings:normal;opacity:1;vector-effect:none;fill:#d38d5f;fill-opacity:1;stroke:none;stroke-width:0.264583;stroke-linecap:butt;stroke-linejoin:miter;stroke-miterlimit:4;stroke-dasharray:none;stroke-dashoffset:0;stroke-opacity:1;-inkscape-stroke:none;stop-color:#000000;stop-opacity:1"
         d="m 559.46403,262.71956 -0.59879,6.45363 4.52419,-3.48186 0.86492,-6.20967 z"
         id="path34750" />
      <path
         style="font-variation-settings:normal;opacity:1;vector-effect:none;fill:#d38d5f;fill-opacity:1;stroke:none;stroke-width:0.264583;stroke-linecap:butt;stroke-linejoin:miter;stroke-miterlimit:4;stroke-dasharray:none;stroke-dashoffset:0;stroke-opacity:1;-inkscape-stroke:none;stop-color:#000000;stop-opacity:1"
         d="m 567.62532,257.41916 -1.66331,6.20967 5.45565,-2.61693 1.70766,-5.74395 z"
         id="path34752" />
      <path
         style="font-variation-settings:normal;opacity:1;vector-effect:none;fill:#d38d5f;fill-opacity:1;stroke:none;stroke-width:0.264583;stroke-linecap:butt;stroke-linejoin:miter;stroke-miterlimit:4;stroke-dasharray:none;stroke-dashoffset:0;stroke-opacity:1;-inkscape-stroke:none;stop-color:#000000;stop-opacity:1"
         d="m 611.3222,263.39157 4.43795,3.13637 4.06159,-2.08569 -4.26545,-3.55977 z"
         id="path34764" />
      <path
         style="font-variation-settings:normal;opacity:1;vector-effect:none;fill:#d38d5f;fill-opacity:1;stroke:none;stroke-width:0.264583;stroke-linecap:butt;stroke-linejoin:miter;stroke-miterlimit:4;stroke-dasharray:none;stroke-dashoffset:0;stroke-opacity:1;-inkscape-stroke:none;stop-color:#000000;stop-opacity:1"
         d="m 617.98697,268.42543 4.2184,4.20273 3.71659,-1.23887 -3.38727,-4.32817 z"
         id="path34766" />
      <path
         style="font-variation-settings:normal;opacity:1;vector-effect:none;fill:#d38d5f;fill-opacity:1;stroke:none;stroke-width:0.264583;stroke-linecap:butt;stroke-linejoin:miter;stroke-miterlimit:4;stroke-dasharray:none;stroke-dashoffset:0;stroke-opacity:1;-inkscape-stroke:none;stop-color:#000000;stop-opacity:1"
         d="m 623.93037,275.02747 2.57182,4.95545 4.23408,-0.61159 0.0941,-5.09658 z"
         id="path34768" />
      <path
         style="font-variation-settings:normal;opacity:1;vector-effect:none;fill:#d38d5f;fill-opacity:1;stroke:none;stroke-width:0.264583;stroke-linecap:butt;stroke-linejoin:miter;stroke-miterlimit:4;stroke-dasharray:none;stroke-dashoffset:0;stroke-opacity:1;-inkscape-stroke:none;stop-color:#000000;stop-opacity:1"
         d="m 627.5215,282.52337 1.59955,5.36318 7.80954,0.43909 2.28954,-5.7709 z"
         id="path34770"
         sodipodi:nodetypes="ccccc" />
      <path
         style="font-variation-settings:normal;opacity:1;vector-effect:none;fill:#d38d5f;fill-opacity:1;stroke:none;stroke-width:0.264583;stroke-linecap:butt;stroke-linejoin:miter;stroke-miterlimit:4;stroke-dasharray:none;stroke-dashoffset:0;stroke-opacity:1;-inkscape-stroke:none;stop-color:#000000;stop-opacity:1"
         d="m 629.38764,290.55246 0.0941,5.44158 2.35227,0.73705 c 0.38896,-1.61815 1.09042,-3.13865 2.1484,-4.54773 z"
         id="path34772"
         sodipodi:nodetypes="ccccc" />
      <path
         style="font-variation-settings:normal;opacity:1;vector-effect:none;fill:#d38d5f;fill-opacity:1;stroke:none;stroke-width:0.264583;stroke-linecap:butt;stroke-linejoin:miter;stroke-miterlimit:4;stroke-dasharray:none;stroke-dashoffset:0;stroke-opacity:1;-inkscape-stroke:none;stop-color:#000000;stop-opacity:1"
         d="m 629.01127,298.67563 c -0.19974,1.8985 -0.71409,3.58727 -1.2859,5.23772 l 1.25454,0.98796 c 0.60104,-0.85256 1.44433,-3.04107 1.91318,-4.75159 z"
         id="path34774"
         sodipodi:nodetypes="ccccc" />
      <path
         style="font-variation-settings:normal;opacity:1;vector-effect:none;fill:#d38d5f;fill-opacity:1;stroke:none;stroke-width:0.264583;stroke-linecap:butt;stroke-linejoin:miter;stroke-miterlimit:4;stroke-dasharray:none;stroke-dashoffset:0;stroke-opacity:1;-inkscape-stroke:none;stop-color:#000000;stop-opacity:1"
         d="m 626.80014,306.75176 -0.89386,1.58386 1.69363,-0.32932 z"
         id="path34776" />
      <path
         style="font-variation-settings:normal;opacity:1;vector-effect:none;fill:#000000;fill-opacity:1;stroke:none;stroke-width:0.264583;stroke-linecap:butt;stroke-linejoin:miter;stroke-miterlimit:4;stroke-dasharray:none;stroke-dashoffset:0;stroke-opacity:1;-inkscape-stroke:none;stop-color:#000000;stop-opacity:1"
         d="m 642.58499,275.16109 0.42137,7.36291 c 0.0822,0.3206 0.14545,0.66247 0.6875,0.46572 l 2.9496,-2.57258 c 0.33147,-0.36992 0.45613,-0.79155 0.55443,-1.21976 l -0.35484,-7.8508 c -0.12466,-0.88477 -0.41595,-0.93639 -0.77621,-0.64315 l -3.17137,3.21573 c -0.27069,0.38611 -0.39439,0.79672 -0.31048,1.24193 z"
         id="path34778"
         sodipodi:nodetypes="ccccccccc" />
      <ellipse
         style="fill:#ffffff;stroke:none;stroke-width:0.310465"
         id="ellipse34780"
         cx="700.46265"
         cy="-12.128532"
         rx="0.93897694"
         ry="1.817844"
         transform="matrix(0.91283569,0.40832707,-0.44393691,0.89605804,0,0)" />
      <ellipse
         style="fill:#ffffff;stroke:none;stroke-width:0.310465"
         id="ellipse34782"
         cx="702.2959"
         cy="-8.5089111"
         rx="0.93897694"
         ry="1.817844"
         transform="matrix(0.91283569,0.40832707,-0.44393691,0.89605804,0,0)" />
      <path
         style="font-variation-settings:normal;opacity:1;vector-effect:none;fill:#000000;fill-opacity:1;stroke:none;stroke-width:0.264583;stroke-linecap:butt;stroke-linejoin:miter;stroke-miterlimit:4;stroke-dasharray:none;stroke-dashoffset:0;stroke-opacity:1;-inkscape-stroke:none;stop-color:#000000;stop-opacity:1"
         d="m 548.79669,303.30424 -11.97581,-7.62903 -1.19758,-2.52823 c -3.90069,-22.1352 4.23034,-33.48398 12.81855,-43.0242 l 10.64516,19.07259 c -10.46184,10.04308 -13.53407,22.1919 -10.29032,34.10887 z"
         id="path34784"
         sodipodi:nodetypes="cccccc" />
      <path
         style="font-variation-settings:normal;opacity:1;vector-effect:none;fill:#d38d5f;fill-opacity:1;stroke:none;stroke-width:0.264583;stroke-linecap:butt;stroke-linejoin:miter;stroke-miterlimit:4;stroke-dasharray:none;stroke-dashoffset:0;stroke-opacity:1;-inkscape-stroke:none;stop-color:#000000;stop-opacity:1"
         d="m 546.51241,302.01795 0.0444,1.30847 c 1.44671,1.20762 2.50894,2.87663 3.68145,4.4133 l -1.39718,-4.28024 z"
         id="path34786"
         sodipodi:nodetypes="ccccc" />
      <path
         style="font-variation-settings:normal;opacity:1;vector-effect:none;fill:#d38d5f;fill-opacity:1;stroke:none;stroke-width:0.264583;stroke-linecap:butt;stroke-linejoin:miter;stroke-miterlimit:4;stroke-dasharray:none;stroke-dashoffset:0;stroke-opacity:1;-inkscape-stroke:none;stop-color:#000000;stop-opacity:1"
         d="m 548.28661,307.00787 1.99596,4.16935 4.19154,3.59274 -2.99396,-4.67943 z"
         id="path34788" />
      <path
         style="font-variation-settings:normal;opacity:1;vector-effect:none;fill:#d38d5f;fill-opacity:1;stroke:none;stroke-width:0.264583;stroke-linecap:butt;stroke-linejoin:miter;stroke-miterlimit:4;stroke-dasharray:none;stroke-dashoffset:0;stroke-opacity:1;-inkscape-stroke:none;stop-color:#000000;stop-opacity:1"
         d="m 552.69991,314.52601 3.4375,3.65928 3.45968,2.32863 -5.12298,-4.90121 z"
         id="path34790" />
      <path
         style="font-variation-settings:normal;opacity:1;vector-effect:none;fill:#d38d5f;fill-opacity:1;stroke:none;stroke-width:0.264583;stroke-linecap:butt;stroke-linejoin:miter;stroke-miterlimit:4;stroke-dasharray:none;stroke-dashoffset:0;stroke-opacity:1;-inkscape-stroke:none;stop-color:#000000;stop-opacity:1"
         d="m 560.30677,321.97763 3.0383,1.95161 3.39315,1.35282 -6.96371,-3.90323 z"
         id="path34792" />
      <path
         style="font-variation-settings:normal;opacity:1;vector-effect:none;fill:#000000;fill-opacity:1;stroke:none;stroke-width:0.264583;stroke-linecap:butt;stroke-linejoin:miter;stroke-miterlimit:4;stroke-dasharray:none;stroke-dashoffset:0;stroke-opacity:1;-inkscape-stroke:none;stop-color:#000000;stop-opacity:1"
         d="m 576.80677,225.35061 0.9758,6.96371 9.84678,-0.64315 c 0.63571,-0.057 1.0417,-0.32066 1.08669,-0.90927 l -0.19959,-6.25403 c -0.0257,-0.48063 -0.35152,-0.76118 -0.90928,-0.8871 l -9.625,0.73185 c -0.89673,0.15233 -1.09686,0.55345 -1.1754,0.99799 z"
         id="path34800"
         sodipodi:nodetypes="cccccccc" />
      <ellipse
         style="fill:#ffffff;stroke:none;stroke-width:0.269288"
         id="ellipse34802"
         cx="580.52148"
         cy="228.77702"
         rx="1.7607524"
         ry="2.4038978" />
      <ellipse
         style="fill:#ffffff;stroke:none;stroke-width:0.269288"
         id="ellipse34804"
         cx="585.1344"
         cy="228.20041"
         rx="1.7607524"
         ry="2.4038978" />
      <path
         style="font-variation-settings:normal;opacity:1;vector-effect:none;fill:#000000;fill-opacity:1;stroke:none;stroke-width:0.264583;stroke-linecap:butt;stroke-linejoin:miter;stroke-miterlimit:4;stroke-dasharray:none;stroke-dashoffset:0;stroke-opacity:1;-inkscape-stroke:none;stop-color:#000000;stop-opacity:1"
         d="m 528.65959,280.68327 1.13105,9.04839 c 0.17995,0.50004 0.48152,0.69607 0.77621,0.90927 l 3.28226,2.2621 c 0.26429,0.009 0.52586,0.014 0.44354,-0.55444 l -1.10887,-8.00605 c -0.2446,-0.40919 -0.40828,-0.49469 -0.59879,-0.6875 z"
         id="path34812"
         sodipodi:nodetypes="cccccccc" />
      <ellipse
         style="fill:#ffffff;stroke:none;stroke-width:0.278274"
         id="ellipse34814"
         cx="318.08862"
         cy="527.34003"
         rx="1.0966922"
         ry="1.9911605"
         transform="matrix(0.84830147,-0.52951356,0.49693053,0.86779032,0,0)" />
      <ellipse
         style="fill:#ffffff;stroke:none;stroke-width:0.278274"
         id="ellipse34816"
         cx="319.58951"
         cy="523.70685"
         rx="1.0966922"
         ry="1.9911605"
         transform="matrix(0.84830147,-0.52951356,0.49693053,0.86779032,0,0)" />
      <path
         style="font-variation-settings:normal;opacity:1;vector-effect:none;fill:none;fill-opacity:1;stroke:none;stroke-width:0.264583;stroke-linecap:butt;stroke-linejoin:miter;stroke-miterlimit:4;stroke-dasharray:none;stroke-dashoffset:0;stroke-opacity:1;-inkscape-stroke:none;stop-color:#000000;stop-opacity:1"
         d="m 538.19588,255.26795 0.97581,1.59677 c 0.14355,0.35913 0.24762,0.75775 0.26613,1.24193 -2.12029,3.25769 -3.53167,6.92047 -4.83468,10.64517 l -2.43952,-2.70565 0.8871,0.22178 z"
         id="path34822"
         sodipodi:nodetypes="ccccccc" />
      <path
         style="font-variation-settings:normal;opacity:1;vector-effect:none;fill:#000000;fill-opacity:1;stroke:none;stroke-width:0.264583;stroke-linecap:butt;stroke-linejoin:miter;stroke-miterlimit:4;stroke-dasharray:none;stroke-dashoffset:0;stroke-opacity:1;-inkscape-stroke:none;stop-color:#000000;stop-opacity:1"
         d="m 590.70063,198.40618 v 2.50909 c -6.47477,-0.18033 -12.90069,0.20105 -19.25725,1.38 l -0.75894,-2.32091 c 6.67207,-1.08912 13.34413,-1.64972 20.01619,-1.56818 z"
         id="path34824"
         sodipodi:nodetypes="ccccc" />
      <path
         style="font-variation-settings:normal;opacity:1;vector-effect:none;fill:#ffffff;fill-opacity:1;stroke:none;stroke-width:0.264583;stroke-linecap:butt;stroke-linejoin:miter;stroke-miterlimit:4;stroke-dasharray:none;stroke-dashoffset:0;stroke-opacity:1;-inkscape-stroke:none;stop-color:#000000;stop-opacity:1"
         d="m 570.5107,192.698 0.17374,7.27636 c 6.95051,-1.15046 13.60363,-1.63049 20.01619,-1.56818 l -0.43909,-7.33909 c -6.58361,0.004 -13.16723,0.45741 -19.75084,1.63091 z"
         id="path34826"
         sodipodi:nodetypes="ccccc" />
      <circle
         style="fill:#000000;stroke:none;stroke-width:0.264583"
         id="circle34828"
         cx="579.31976"
         cy="204.4373"
         r="1.219758" />
      <circle
         style="fill:#000000;stroke:none;stroke-width:0.264583"
         id="circle34830"
         cx="582.84595"
         cy="204.28641"
         r="1.219758" />
      <path
         style="font-variation-settings:normal;opacity:1;vector-effect:none;fill:#000000;fill-opacity:1;stroke:none;stroke-width:0.264583;stroke-linecap:butt;stroke-linejoin:miter;stroke-miterlimit:4;stroke-dasharray:none;stroke-dashoffset:0;stroke-opacity:1;-inkscape-stroke:none;stop-color:#000000;stop-opacity:1"
         d="m 590.26154,191.06709 0.94633,0.93072 c 0.18533,2.41903 0.92349,9.34357 0.92349,9.34357 l -1.43073,-0.42611 z"
         id="path34832"
         sodipodi:nodetypes="ccccc" />
      <path
         style="font-variation-settings:normal;opacity:1;vector-effect:none;fill:#000000;fill-opacity:1;stroke:none;stroke-width:0.264583;stroke-linecap:butt;stroke-linejoin:miter;stroke-miterlimit:4;stroke-dasharray:none;stroke-dashoffset:0;stroke-opacity:1;-inkscape-stroke:none;stop-color:#000000;stop-opacity:1"
         d="m 531.77493,247.58432 c 10.62062,-17.18783 26.93847,-29.09127 53.84728,-31.17121 27.05433,-0.69875 63.68182,14.32584 65.72286,58.7369 -0.47015,16.93223 -7.72661,28.13797 -16.21169,36.91431 l -1.15323,-0.13307 c 5.4934,-5.51277 8.92628,-12.11002 12.21287,-18.78427 3.89518,-11.75824 5.78561,-24.61909 -4.33989,-44.08871 -13.50328,-22.83893 -36.6546,-29.2742 -56.71874,-29.2742 -20.55634,0 -40.72257,11.96353 -51.42143,30.11277 z"
         id="path34834"
         sodipodi:nodetypes="cccccccscc" />
      <path
         style="font-variation-settings:normal;opacity:1;vector-effect:none;fill:#000000;fill-opacity:1;stroke:none;stroke-width:0.264583;stroke-linecap:butt;stroke-linejoin:miter;stroke-miterlimit:4;stroke-dasharray:none;stroke-dashoffset:0;stroke-opacity:1;-inkscape-stroke:none;stop-color:#000000;stop-opacity:1"
         d="m 527.5794,263.67627 c -2.48955,17.57569 -1.76745,34.94172 16.01309,51.19413 5.33027,4.71538 14.29692,13.30549 37.82451,16.14111 13.06008,0.85001 22.22415,-1.69841 29.30727,-4.50099 l -0.0208,1.48177 c -8.02083,3.23081 -18.13145,4.84585 -29.66286,3.8974 -15.28485,-1.30505 -27.69192,-7.23512 -38.29891,-16.05817 -12.34087,-13.0491 -22.206,-27.84302 -17.19751,-53.11929 z"
         id="path34836"
         sodipodi:nodetypes="ccccccccc" />
      <ellipse
         style="fill:#ffffff;stroke:#000000;stroke-width:1;stroke-dasharray:none"
         id="ellipse34838"
         cx="588.92438"
         cy="302.93039"
         rx="30.185568"
         ry="26.943741" />
      <ellipse
         style="fill:none;stroke:#000000;stroke-width:0.956668;stroke-dasharray:none"
         id="ellipse34840"
         cx="589.19049"
         cy="303.55136"
         rx="19.228676"
         ry="17.163582" />
      <path
         style="font-variation-settings:normal;opacity:1;vector-effect:none;fill:#000000;fill-opacity:1;stroke:none;stroke-width:0.264583;stroke-linecap:butt;stroke-linejoin:miter;stroke-miterlimit:4;stroke-dasharray:none;stroke-dashoffset:0;stroke-opacity:1;-inkscape-stroke:none;stop-color:#000000;stop-opacity:1"
         d="m 562.06566,290.83473 4.89272,2.22682 -2.22682,5.39454 -5.39454,-0.62728 c 0.40155,-2.47598 1.40767,-4.77985 2.72864,-6.99408 z"
         id="path34842"
         sodipodi:nodetypes="ccccc" />
      <path
         style="font-variation-settings:normal;opacity:1;vector-effect:none;fill:#000000;fill-opacity:1;stroke:none;stroke-width:0.264583;stroke-linecap:butt;stroke-linejoin:miter;stroke-miterlimit:4;stroke-dasharray:none;stroke-dashoffset:0;stroke-opacity:1;-inkscape-stroke:none;stop-color:#000000;stop-opacity:1"
         d="m 565.17065,286.82019 3.07364,1.85045 3.48136,-2.88545 -3.16773,-2.82272 c -1.23269,1.33123 -3.34381,3.04678 -3.38727,3.85772 z"
         id="path34844"
         sodipodi:nodetypes="ccccc" />
      <path
         style="font-variation-settings:normal;opacity:1;vector-effect:none;fill:#000000;fill-opacity:1;stroke:none;stroke-width:0.264583;stroke-linecap:butt;stroke-linejoin:miter;stroke-miterlimit:4;stroke-dasharray:none;stroke-dashoffset:0;stroke-opacity:1;-inkscape-stroke:none;stop-color:#000000;stop-opacity:1"
         d="m 573.54474,279.8261 1.16045,2.19546 4.07727,-1.66227 -0.78409,-2.50909 z"
         id="path34846" />
      <path
         style="font-variation-settings:normal;opacity:1;vector-effect:none;fill:#000000;fill-opacity:1;stroke:none;stroke-width:0.264583;stroke-linecap:butt;stroke-linejoin:miter;stroke-miterlimit:4;stroke-dasharray:none;stroke-dashoffset:0;stroke-opacity:1;-inkscape-stroke:none;stop-color:#000000;stop-opacity:1"
         d="m 595.34244,276.62702 -1.06636,4.82999 c 6.22171,1.52915 10.55318,4.10843 13.76862,7.30772 l 1.34864,-0.87818 2.66591,3.45 c 0.21335,0.0965 0.42914,0.18956 0.84681,0 l 2.54045,-1.035 c -4.33131,-6.88999 -10.59505,-11.87873 -20.10407,-13.67453 z"
         id="path34848"
         sodipodi:nodetypes="cccccccc" />
      <path
         style="font-variation-settings:normal;opacity:1;vector-effect:none;fill:#000000;fill-opacity:1;stroke:none;stroke-width:0.264583;stroke-linecap:butt;stroke-linejoin:miter;stroke-miterlimit:4;stroke-dasharray:none;stroke-dashoffset:0;stroke-opacity:1;-inkscape-stroke:none;stop-color:#000000;stop-opacity:1"
         d="m 566.26838,320.5047 1.06636,-0.97227 0.53318,0.0941 0.78409,-0.72136 3.95182,3.07363 1.06636,-1.09773 c 3.24852,1.79199 6.71649,3.2548 10.63226,4.04591 l -0.62727,2.54045 0.25091,0.43909 -0.21954,1.44273 c -7.46522,-0.97437 -12.97754,-4.28137 -17.43817,-8.84455 z"
         id="path34850"
         sodipodi:nodetypes="ccccccccccc" />
      <path
         style="font-variation-settings:normal;opacity:1;vector-effect:none;fill:#000000;fill-opacity:1;stroke:none;stroke-width:0.264583;stroke-linecap:butt;stroke-linejoin:miter;stroke-miterlimit:4;stroke-dasharray:none;stroke-dashoffset:0;stroke-opacity:1;-inkscape-stroke:none;stop-color:#000000;stop-opacity:1"
         d="m 587.52625,286.80331 1.94382,4.03722 2.2621,3.94758 5.45565,2.39516 7.67348,-3.08266 c -4.03932,-5.87699 -10.70239,-7.78581 -17.33505,-7.2973 z"
         id="path34880"
         sodipodi:nodetypes="cccccc" />
      <path
         style="font-variation-settings:normal;opacity:1;vector-effect:none;fill:#000000;fill-opacity:1;stroke:none;stroke-width:0.264583;stroke-linecap:butt;stroke-linejoin:miter;stroke-miterlimit:4;stroke-dasharray:none;stroke-dashoffset:0;stroke-opacity:1;-inkscape-stroke:none;stop-color:#000000;stop-opacity:1"
         d="m 589.16381,301.62381 -1.06636,0.53318 0.23523,1.2075 c 1.17306,0.94628 1.63745,0.34232 2.16408,-0.12545 l -0.15681,-1.19182 z"
         id="path34884"
         sodipodi:nodetypes="cccccc" />
      <path
         style="font-variation-settings:normal;opacity:1;fill:#000000;fill-opacity:1;stroke:none;stroke-width:0.264583;stroke-linecap:butt;stroke-linejoin:miter;stroke-miterlimit:4;stroke-dasharray:none;stroke-dashoffset:0;stroke-opacity:1;stop-color:#000000;stop-opacity:1"
         d="m 590.4237,320.15908 3.61492,-3.48186 c 1.45704,-0.47024 2.78117,-1.47209 4.125,-2.39516 l 8.00605,-3.57057 c -0.7395,2.06502 -0.92182,4.00623 -6.27621,7.09678 -3.67692,2.37713 -6.73699,2.86516 -9.46976,2.35081 z"
         id="path34886"
         sodipodi:nodetypes="cccccc" />
      <path
         style="font-variation-settings:normal;opacity:1;vector-effect:none;fill:#000000;fill-opacity:1;stroke:none;stroke-width:0.264583;stroke-linecap:butt;stroke-linejoin:miter;stroke-miterlimit:4;stroke-dasharray:none;stroke-dashoffset:0;stroke-opacity:1;-inkscape-stroke:none;stop-color:#000000;stop-opacity:1"
         d="m 571.63156,296.91927 4.98681,8.37408 c -0.26513,1.57641 -3.6e-4,2.97618 0.21954,4.39091 l -3.48136,3.92045 c -3.75019,-5.56181 -4.98712,-11.12363 -1.72499,-16.68544 z"
         id="path34888"
         sodipodi:nodetypes="ccccc" />
      <ellipse
         style="fill:#000000;stroke:none;stroke-width:0.258483"
         id="ellipse34892"
         cx="702.10608"
         cy="52.304432"
         rx="1.2215912"
         ry="2.2758358"
         transform="matrix(0.95414862,0.29933329,-0.27460245,0.96155785,0,0)" />
      <ellipse
         style="fill:#000000;stroke:none;stroke-width:0.26052"
         id="ellipse34894"
         cx="705.39563"
         cy="35.0909"
         rx="1.1680049"
         ry="2.417908"
         transform="matrix(0.94205712,0.3354525,-0.2439976,0.96977584,0,0)" />
      <ellipse
         style="fill:#000000;stroke:none;stroke-width:0.264583"
         id="ellipse34896"
         cx="695.78979"
         cy="133.19638"
         rx="0.59733576"
         ry="1.1864918"
         transform="rotate(11.256899)" />
      <ellipse
         style="fill:#000000;stroke:none;stroke-width:0.233713"
         id="ellipse34898"
         cx="692.20319"
         cy="88.164742"
         rx="0.46366969"
         ry="1.1926638"
         transform="matrix(0.96697082,0.25488708,-0.14862275,0.98889397,0,0)" />
      <ellipse
         style="fill:#000000;stroke:none;stroke-width:0.261957"
         id="ellipse34900"
         cx="346.73636"
         cy="638.72858"
         rx="1.3875849"
         ry="2.2695751"
         transform="matrix(0.60569113,-0.79569985,0.48586166,0.87403572,0,0)" />
      <ellipse
         style="fill:#000000;stroke:none;stroke-width:0.211745"
         id="ellipse34902"
         cx="357.19861"
         cy="558.13599"
         rx="1.0444126"
         ry="2.1945443"
         transform="matrix(0.76666376,-0.64204881,0.43897818,0.89849772,0,0)" />
      <ellipse
         style="fill:#000000;stroke:none;stroke-width:0.264583"
         id="ellipse34904"
         cx="338.06592"
         cy="480.46381"
         rx="0.73704475"
         ry="1.2012142"
         transform="rotate(-26.89915)" />
      <ellipse
         style="fill:#000000;stroke:none;stroke-width:0.250205"
         id="ellipse34906"
         cx="360.21069"
         cy="501.12027"
         rx="0.6735608"
         ry="1.1754569"
         transform="matrix(0.8688572,-0.49506278,0.41164116,0.91134601,0,0)" />
      <path
         style="font-variation-settings:normal;opacity:1;vector-effect:none;fill:#000000;fill-opacity:1;stroke:none;stroke-width:0.264583;stroke-linecap:butt;stroke-linejoin:miter;stroke-miterlimit:4;stroke-dasharray:none;stroke-dashoffset:0;stroke-opacity:1;-inkscape-stroke:none;stop-color:#000000;stop-opacity:1"
         d="m 515.74161,265.58703 c 0.34157,5.75204 0.68707,11.50421 2.76072,17.31398 l 0.75106,-0.19485 c -1.34464,-6.14465 -2.53035,-12.24942 -1.55974,-17.81321 z"
         id="path34908"
         sodipodi:nodetypes="ccccc" />
      <path
         style="font-variation-settings:normal;opacity:1;vector-effect:none;fill:none;fill-opacity:1;stroke:#ff0000;stroke-width:0.264583;stroke-linecap:butt;stroke-linejoin:miter;stroke-miterlimit:4;stroke-dasharray:none;stroke-dashoffset:0;stroke-opacity:1;-inkscape-stroke:none;stop-color:#000000;stop-opacity:1"
         d="M 517.69365,264.89295 Z"
         id="path34910" />
      <path
         id="path34912"
         style="fill:#ffffff;stroke:#000000;stroke-width:1;stroke-dasharray:none"
         d="m 632.2435,311.90664 c -12.35279,-3e-5 -22.36669,9.8695 -22.3666,22.04414 0.008,11.89359 9.5879,21.63639 21.64933,22.01777 0.77176,1.3616 2.13437,3.0337 3.07474,4.02095 1.64984,0.38317 3.21383,0.12278 4.74597,-0.37673 0.89487,-1.70385 1.10736,-3.80342 1.37666,-5.27461 8.3962,-3.39057 13.88205,-11.44459 13.88649,-20.38738 9e-5,-12.17463 -10.01381,-22.04416 -22.36659,-22.04414 z"
         sodipodi:nodetypes="sccccccs" />
      <path
         style="font-variation-settings:normal;opacity:1;vector-effect:none;fill:#000000;fill-opacity:1;stroke:none;stroke-width:0.264583;stroke-linecap:butt;stroke-linejoin:miter;stroke-miterlimit:4;stroke-dasharray:none;stroke-dashoffset:0;stroke-opacity:1;-inkscape-stroke:none;stop-color:#000000;stop-opacity:1"
         d="m 533.99523,305.60699 c -4.63119,-4.51997 -9.20242,-9.41654 -11.90016,-18.89335 l 1.36199,-0.0503 c 2.39953,8.08623 6.73951,13.18928 10.53817,18.94362 z"
         id="path34914"
         sodipodi:nodetypes="cccc" />
      <path
         style="font-variation-settings:normal;opacity:1;vector-effect:none;fill:#000000;fill-opacity:1;stroke:none;stroke-width:0.264583;stroke-linecap:butt;stroke-linejoin:miter;stroke-miterlimit:4;stroke-dasharray:none;stroke-dashoffset:0;stroke-opacity:1;-inkscape-stroke:none;stop-color:#000000;stop-opacity:1"
         d="m 524.25737,238.33549 5.55151,3.08546 c 3.82156,-8.32665 9.64939,-15.07516 16.90929,-20.6972 l -3.51019,-5.28645 c -7.44794,6.10018 -14.67521,12.49936 -18.95061,22.89819 z"
         id="path34916"
         sodipodi:nodetypes="ccccc" />
      <path
         style="font-variation-settings:normal;opacity:1;vector-effect:none;fill:#000000;fill-opacity:1;stroke:none;stroke-width:0.264583;stroke-linecap:butt;stroke-linejoin:miter;stroke-miterlimit:4;stroke-dasharray:none;stroke-dashoffset:0;stroke-opacity:1;-inkscape-stroke:none;stop-color:#000000;stop-opacity:1"
         d="m 543.71806,215.10464 3.40132,5.32119 c 6.80862,-5.16743 14.67096,-8.31311 23.07017,-10.42871 l -0.76786,-7.0457 c -9.57718,2.61767 -18.59284,6.03281 -25.70363,12.15322 z"
         id="path34918"
         sodipodi:nodetypes="ccccc" />
      <path
         style="font-variation-settings:normal;opacity:1;vector-effect:none;fill:#000000;fill-opacity:1;stroke:none;stroke-width:0.264583;stroke-linecap:butt;stroke-linejoin:miter;stroke-miterlimit:4;stroke-dasharray:none;stroke-dashoffset:0;stroke-opacity:1;-inkscape-stroke:none;stop-color:#000000;stop-opacity:1"
         d="m 620.62151,208.37981 -2.95566,6.91573 c -7.66003,-3.483 -15.73558,-6.13815 -24.80551,-6.81215 l -0.19672,-7.72754 c 9.69478,0.97681 19.25409,2.51808 27.95789,7.62396 z"
         id="path34920"
         sodipodi:nodetypes="ccccc" />
      <path
         style="font-variation-settings:normal;opacity:1;vector-effect:none;fill:#000000;fill-opacity:1;stroke:none;stroke-width:0.264583;stroke-linecap:butt;stroke-linejoin:miter;stroke-miterlimit:4;stroke-dasharray:none;stroke-dashoffset:0;stroke-opacity:1;-inkscape-stroke:none;stop-color:#000000;stop-opacity:1"
         d="m 621.34287,208.69344 -3.0109,6.77855 c 8.93392,4.34218 15.28261,10.42068 21.01215,16.91503 l 4.706,-4.6245 c -6.16647,-8.7408 -14.03951,-14.58044 -22.70725,-19.06908 z"
         id="path34922"
         sodipodi:nodetypes="ccccc" />
      <path
         style="font-variation-settings:normal;opacity:1;vector-effect:none;fill:#000000;fill-opacity:1;stroke:none;stroke-width:0.264583;stroke-linecap:butt;stroke-linejoin:miter;stroke-miterlimit:4;stroke-dasharray:none;stroke-dashoffset:0;stroke-opacity:1;-inkscape-stroke:none;stop-color:#000000;stop-opacity:1"
         d="m 644.48921,228.26433 -4.69274,4.69275 c 5.25072,6.47208 8.23128,13.50304 10.52496,20.70311 l 5.22918,-1.55952 c -1.74753,-8.5832 -5.49866,-16.50761 -11.0614,-23.83634 z"
         id="path34924"
         sodipodi:nodetypes="ccccc" />
      <path
         style="font-variation-settings:normal;opacity:1;vector-effect:none;fill:#000000;fill-opacity:1;stroke:none;stroke-width:0.264583;stroke-linecap:butt;stroke-linejoin:miter;stroke-miterlimit:4;stroke-dasharray:none;stroke-dashoffset:0;stroke-opacity:1;-inkscape-stroke:none;stop-color:#000000;stop-opacity:1"
         d="m 655.64019,274.80793 c -2.19703,14.72188 -6.4689,17.72688 -10.78202,24.74588 3.28144,-7.63647 7.83745,-13.56888 8.21674,-24.4038 z"
         id="path34926"
         sodipodi:nodetypes="cccc" />
      <path
         style="font-variation-settings:normal;opacity:1;vector-effect:none;fill:#000000;fill-opacity:1;stroke:none;stroke-width:0.264583;stroke-linecap:butt;stroke-linejoin:miter;stroke-miterlimit:4;stroke-dasharray:none;stroke-dashoffset:0;stroke-opacity:1;-inkscape-stroke:none;stop-color:#000000;stop-opacity:1"
         d="m 531.77493,247.58431 c -3.03924,4.4806 -4.44218,9.91687 -6.23072,15.12792 l 2.03517,0.96404 c 1.84813,-4.64847 3.13634,-9.45466 6.13357,-13.77943 z"
         id="path34930"
         sodipodi:nodetypes="ccccc" />
      <path
         style="font-variation-settings:normal;opacity:1;vector-effect:none;fill:#d38d5f;fill-opacity:1;stroke:none;stroke-width:0.264583;stroke-linecap:butt;stroke-linejoin:miter;stroke-miterlimit:4;stroke-dasharray:none;stroke-dashoffset:0;stroke-opacity:1;-inkscape-stroke:none;stop-color:#000000;stop-opacity:1"
         d="m 577.65923,253.89104 -2.82625,5.77399 5.85703,-1.51911 2.78022,-5.30843 z"
         id="path36623" />
      <path
         style="font-variation-settings:normal;opacity:1;vector-effect:none;fill:#000000;fill-opacity:1;stroke:none;stroke-width:0.264583;stroke-linecap:butt;stroke-linejoin:miter;stroke-miterlimit:4;stroke-dasharray:none;stroke-dashoffset:0;stroke-opacity:1;-inkscape-stroke:none;stop-color:#000000;stop-opacity:1"
         d="m 629.40475,322.17869 -8.91532,7.40726 2.39517,12.50806 11.88709,4.43549 9.22581,-7.67339 -2.43951,-12.33064 z"
         id="path48685" />
    </g>
  </g>
</svg>
